<svg width="1920" height="799" viewBox="0 0 1920 799" fill="none" xmlns="http://www.w3.org/2000/svg">
<rect x="6" y="6" width="1908" height="787" fill="#D9D9D9" stroke="white" stroke-width="12"/>
<rect x="65" y="431" width="131.466" height="131.466" rx="18" fill="white" stroke="#3E3E3E" stroke-width="12"/>
<rect x="237.534" y="431" width="131.466" height="131.466" rx="18" fill="white" stroke="#3E3E3E" stroke-width="12"/>
<rect x="410.068" y="431" width="131.466" height="131.466" rx="18" fill="white" stroke="#3E3E3E" stroke-width="12"/>
<rect x="582.603" y="431" width="131.466" height="131.466" rx="18" fill="white" stroke="#3E3E3E" stroke-width="12"/>
<rect x="1206" y="431" width="131.466" height="131.466" rx="18" fill="white" stroke="#3E3E3E" stroke-width="12"/>
<rect x="1378.53" y="431" width="131.466" height="131.466" rx="18" fill="white" stroke="#3E3E3E" stroke-width="12"/>
<rect x="1551.07" y="431" width="131.466" height="131.466" rx="18" fill="white" stroke="#3E3E3E" stroke-width="12"/>
<rect x="1723.6" y="431" width="131.466" height="131.466" rx="18" fill="white" stroke="#3E3E3E" stroke-width="12"/>
<rect x="65" y="603.534" width="131.466" height="131.466" rx="18" fill="white" stroke="#3E3E3E" stroke-width="12"/>
<rect x="237.534" y="603.534" width="131.466" height="131.466" rx="18" fill="white" stroke="#3E3E3E" stroke-width="12"/>
<rect x="410.068" y="603.534" width="131.466" height="131.466" rx="18" fill="white" stroke="#3E3E3E" stroke-width="12"/>
<rect x="582.603" y="603.534" width="131.466" height="131.466" rx="18" fill="white" stroke="#3E3E3E" stroke-width="12"/>
<rect x="1206" y="603.534" width="131.466" height="131.466" rx="18" fill="white" stroke="#3E3E3E" stroke-width="12"/>
<rect x="1378.53" y="603.534" width="131.466" height="131.466" rx="18" fill="white" stroke="#3E3E3E" stroke-width="12"/>
<rect x="1551.07" y="603.534" width="131.466" height="131.466" rx="18" fill="white" stroke="#3E3E3E" stroke-width="12"/>
<rect x="1723.6" y="603.534" width="131.466" height="131.466" rx="18" fill="white" stroke="#3E3E3E" stroke-width="12"/>
<path d="M758 351C758 341.059 766.059 333 776 333H1144C1153.94 333 1162 341.059 1162 351V717C1162 726.941 1153.94 735 1144 735H776C766.059 735 758 726.941 758 717V351Z" fill="#3E3E3E" stroke="white" stroke-width="12"/>
<rect x="65" y="333" width="131.47" height="41" rx="18" fill="#3E3E3E" stroke="white" stroke-width="12"/>
<rect x="238" y="333" width="131.47" height="41" rx="18" fill="#3E3E3E" stroke="white" stroke-width="12"/>
<rect x="410" y="333" width="131.47" height="41" rx="18" fill="#3E3E3E" stroke="white" stroke-width="12"/>
<rect x="583" y="333" width="131.47" height="41" rx="18" fill="#3E3E3E" stroke="white" stroke-width="12"/>
<rect x="1206" y="333" width="131.47" height="41" rx="18" fill="#3E3E3E" stroke="white" stroke-width="12"/>
<rect x="1379" y="333" width="131.47" height="41" rx="18" fill="#3E3E3E" stroke="white" stroke-width="12"/>
<rect x="1551" y="333" width="131.47" height="41" rx="18" fill="#3E3E3E" stroke="white" stroke-width="12"/>
<rect x="1724" y="333" width="131.47" height="41" rx="18" fill="#3E3E3E" stroke="white" stroke-width="12"/>
<rect x="65" y="62" width="1794" height="151" rx="23" fill="white"/>
<rect x="65" y="66" width="1790" height="148" rx="18" stroke="#3E3E3E" stroke-width="12" stroke-linejoin="round"/>
<ellipse cx="520.123" cy="206" rx="42.0934" ry="42" fill="#3E3E3E"/>
<ellipse cx="382.123" cy="206" rx="42.0934" ry="42" fill="#3E3E3E"/>
<ellipse cx="244.123" cy="206" rx="42.0934" ry="42" fill="#3E3E3E"/>
<path d="M530.16 186C530.16 202.556 516.705 216 500.08 216C483.455 216 470 202.556 470 186C470 169.444 483.455 156 500.08 156C516.705 156 530.16 169.444 530.16 186Z" fill="#D9D9D9" stroke="#3E3E3E" stroke-width="12"/>
<path d="M392.16 186C392.16 202.556 378.705 216 362.08 216C345.455 216 332 202.556 332 186C332 169.444 345.455 156 362.08 156C378.705 156 392.16 169.444 392.16 186Z" fill="#D9D9D9" stroke="#3E3E3E" stroke-width="12"/>
<path d="M254.16 186C254.16 202.556 240.705 216 224.08 216C207.455 216 194 202.556 194 186C194 169.444 207.455 156 224.08 156C240.705 156 254.16 169.444 254.16 186Z" fill="#D9D9D9" stroke="#3E3E3E" stroke-width="12"/>
<path d="M1202.23 179.2C1198.83 179.2 1195.87 178.767 1193.33 177.9C1190.87 176.967 1188.73 175.733 1186.93 174.2C1185.13 172.6 1183.6 170.767 1182.33 168.7C1181.13 166.567 1180.13 164.3 1179.33 161.9L1189.43 158.5C1189.97 160.1 1190.57 161.6 1191.23 163C1191.9 164.4 1192.73 165.6 1193.73 166.6C1194.73 167.6 1195.9 168.4 1197.23 169C1198.63 169.6 1200.33 169.9 1202.33 169.9C1207.27 169.9 1210.87 168.033 1213.13 164.3C1215.4 160.5 1216.53 155.4 1216.53 149V147.3H1195.53V137.9H1216.53V137.2C1216.53 130.8 1215.4 125.733 1213.13 122C1210.87 118.2 1207.27 116.3 1202.33 116.3C1200.33 116.3 1198.63 116.6 1197.23 117.2C1195.9 117.8 1194.73 118.6 1193.73 119.6C1192.73 120.6 1191.9 121.8 1191.23 123.2C1190.57 124.6 1189.97 126.1 1189.43 127.7L1179.33 124.3C1180.13 121.9 1181.13 119.667 1182.33 117.6C1183.6 115.467 1185.13 113.633 1186.93 112.1C1188.73 110.5 1190.87 109.267 1193.33 108.4C1195.87 107.467 1198.83 107 1202.23 107C1211.1 107 1217.67 110.133 1221.93 116.4C1226.27 122.667 1228.43 131.567 1228.43 143.1C1228.43 154.633 1226.27 163.533 1221.93 169.8C1217.67 176.067 1211.1 179.2 1202.23 179.2ZM1258.6 172.4C1251.2 171.8 1245.7 168.9 1242.1 163.7C1238.5 158.433 1236.7 151.6 1236.7 143.2C1236.7 134.8 1238.5 128 1242.1 122.8C1245.7 117.533 1251.2 114.6 1258.6 114V105.3H1269.8V114C1273.53 114.333 1276.76 115.233 1279.5 116.7C1282.23 118.167 1284.5 120.167 1286.3 122.7C1288.1 125.233 1289.43 128.233 1290.3 131.7C1291.23 135.167 1291.7 139 1291.7 143.2C1291.7 147.4 1291.23 151.233 1290.3 154.7C1289.43 158.167 1288.1 161.167 1286.3 163.7C1284.5 166.233 1282.23 168.267 1279.5 169.8C1276.76 171.267 1273.53 172.133 1269.8 172.4V181.1H1258.6V172.4ZM1259.2 122.5C1255 122.967 1251.96 124.567 1250.1 127.3C1248.23 129.967 1247.3 133.533 1247.3 138V148.4C1247.3 152.867 1248.23 156.467 1250.1 159.2C1251.96 161.867 1255 163.433 1259.2 163.9V122.5ZM1269.2 163.9C1273.4 163.433 1276.43 161.867 1278.3 159.2C1280.16 156.467 1281.1 152.867 1281.1 148.4V138C1281.1 133.533 1280.16 129.967 1278.3 127.3C1276.43 124.567 1273.4 122.967 1269.2 122.5V163.9ZM1318.56 172.4C1311.16 171.8 1305.66 168.9 1302.06 163.7C1298.46 158.433 1296.66 151.6 1296.66 143.2C1296.66 134.8 1298.46 128 1302.06 122.8C1305.66 117.533 1311.16 114.6 1318.56 114V105.3H1329.76V114C1333.49 114.333 1336.72 115.233 1339.46 116.7C1342.19 118.167 1344.46 120.167 1346.26 122.7C1348.06 125.233 1349.39 128.233 1350.26 131.7C1351.19 135.167 1351.66 139 1351.66 143.2C1351.66 147.4 1351.19 151.233 1350.26 154.7C1349.39 158.167 1348.06 161.167 1346.26 163.7C1344.46 166.233 1342.19 168.267 1339.46 169.8C1336.72 171.267 1333.49 172.133 1329.76 172.4V181.1H1318.56V172.4ZM1319.16 122.5C1314.96 122.967 1311.92 124.567 1310.06 127.3C1308.19 129.967 1307.26 133.533 1307.26 138V148.4C1307.26 152.867 1308.19 156.467 1310.06 159.2C1311.92 161.867 1314.96 163.433 1319.16 163.9V122.5ZM1329.16 163.9C1333.36 163.433 1336.39 161.867 1338.26 159.2C1340.12 156.467 1341.06 152.867 1341.06 148.4V138C1341.06 133.533 1340.12 129.967 1338.26 127.3C1336.39 124.567 1333.36 122.967 1329.16 122.5V163.9ZM1362.72 178V108.2H1406.42V117.6H1373.92V137.9H1405.22V147.3H1373.92V168.6H1406.42V178H1362.72ZM1421.28 108.2H1432.48V138H1443.28L1456.58 108.2H1468.08L1456.28 134.6C1455.14 137.133 1454.01 138.933 1452.88 140C1451.81 141.067 1450.54 141.733 1449.08 142V142.6C1450.74 142.933 1452.08 143.633 1453.08 144.7C1454.14 145.767 1455.24 147.667 1456.38 150.4L1464.18 168.6H1470.28V178H1463.48C1461.01 178 1458.94 177.367 1457.28 176.1C1455.61 174.833 1454.11 172.7 1452.78 169.7L1443.18 147.4H1432.48V178H1421.28V108.2ZM1509.64 117.6V178H1498.44V117.6H1476.54V108.2H1531.54V117.6H1509.64ZM1537.9 108.2H1548.1V135H1554C1560.2 135 1565 136.9 1568.4 140.7C1571.8 144.433 1573.5 149.7 1573.5 156.5C1573.5 163.3 1571.8 168.6 1568.4 172.4C1565 176.133 1560.2 178 1554 178H1537.9V108.2ZM1553.1 169C1556.17 169 1558.57 168.233 1560.3 166.7C1562.03 165.167 1562.9 162.767 1562.9 159.5V153.5C1562.9 150.233 1562.03 147.833 1560.3 146.3C1558.57 144.767 1556.17 144 1553.1 144H1548.1V169H1553.1ZM1579.9 178V108.2H1590.1V178H1579.9Z" fill="#3E3E3E"/>
</svg>
