<svg width="1920" height="1079" viewBox="0 0 1920 1079" fill="none" xmlns="http://www.w3.org/2000/svg">
<rect x="6" y="6" width="1908" height="1067" fill="#3E3E3E" stroke="white" stroke-width="12"/>
<path d="M671 785.479L708.625 785.479" stroke="#D9D9D9" stroke-width="12"/>
<path d="M671 669.038L708.625 669.038" stroke="#D9D9D9" stroke-width="12"/>
<path d="M671 727.587L708.625 727.587" stroke="#D9D9D9" stroke-width="12"/>
<path d="M671 610.489L708.625 610.489" stroke="#D9D9D9" stroke-width="12"/>
<path d="M671 757.19L708.625 757.19" stroke="#D9D9D9" stroke-width="12"/>
<path d="M671 640.092L708.625 640.092" stroke="#D9D9D9" stroke-width="12"/>
<path d="M671 697.983L708.625 697.983" stroke="#D9D9D9" stroke-width="12"/>
<path d="M671 580.884L708.625 580.884" stroke="#D9D9D9" stroke-width="12"/>
<path d="M676.823 854.205L757.001 854.205M757.001 854.205L757.001 887.446M757.001 854.205L774.022 822.318" stroke="#D9D9D9" stroke-width="12"/>
<path d="M727.44 561.52L727.368 575.175M726.096 817.718L773.566 817.718L773.566 861.934L758.788 883.393L677.283 883.393L677.283 854.132L685.791 817.718L726.096 817.718ZM726.096 817.718L726.253 787.806M727.368 575.175L782.075 575.175M727.368 575.175L727.218 603.786M727.218 603.786L782.075 603.786M727.218 603.786L727.075 631.096M727.075 631.096L782.075 631.096M727.075 631.096L727.075 655.599M727.075 655.599L782.075 655.806M727.075 655.599L726.809 681.816M726.809 681.816L782.075 681.816M726.809 681.816L726.544 708.476M726.544 708.476L782.075 708.476M726.544 708.476L726.539 733.185M726.539 733.185L782.075 733.185M726.539 733.185L726.396 760.496M726.396 760.496L782.075 760.496M726.396 760.496L726.253 787.806M726.253 787.806L782.075 787.806" stroke="#D9D9D9" stroke-width="12"/>
<path d="M1246.07 785.479L1208.45 785.479" stroke="#D9D9D9" stroke-width="12"/>
<path d="M1246.07 669.038L1208.45 669.038" stroke="#D9D9D9" stroke-width="12"/>
<path d="M1246.07 727.587L1208.45 727.587" stroke="#D9D9D9" stroke-width="12"/>
<path d="M1246.07 610.489L1208.45 610.489" stroke="#D9D9D9" stroke-width="12"/>
<path d="M1246.07 757.19L1208.45 757.19" stroke="#D9D9D9" stroke-width="12"/>
<path d="M1246.07 640.092L1208.45 640.092" stroke="#D9D9D9" stroke-width="12"/>
<path d="M1246.07 697.983L1208.45 697.983" stroke="#D9D9D9" stroke-width="12"/>
<path d="M1246.07 580.884L1208.45 580.884" stroke="#D9D9D9" stroke-width="12"/>
<path d="M1240.25 854.205L1160.07 854.205M1160.07 854.205L1160.07 887.446M1160.07 854.205L1143.05 822.318" stroke="#D9D9D9" stroke-width="12"/>
<path d="M1189.64 561.52L1189.71 575.175M1190.98 817.718L1143.51 817.718L1143.51 861.934L1158.29 883.393L1239.79 883.393L1239.79 854.132L1231.28 817.718L1190.98 817.718ZM1190.98 817.718L1190.82 787.806M1189.71 575.175L1135 575.175M1189.71 575.175L1189.86 603.786M1189.86 603.786L1135 603.786M1189.86 603.786L1190 631.096M1190 631.096L1135 631.096M1190 631.096L1190 655.599M1190 655.599L1135 655.806M1190 655.599L1190.27 681.816M1190.27 681.816L1135 681.816M1190.27 681.816L1190.53 708.476M1190.53 708.476L1135 708.476M1190.53 708.476L1190.54 733.185M1190.54 733.185L1135 733.185M1190.54 733.185L1190.68 760.496M1190.68 760.496L1135 760.496M1190.68 760.496L1190.82 787.806M1190.82 787.806L1135 787.806" stroke="#D9D9D9" stroke-width="12"/>
<circle cx="24.5507" cy="24.5507" r="24.5507" transform="matrix(0 1 1 0 854.466 586.545)" fill="#D9D9D9"/>
<circle cx="24.5507" cy="24.5507" r="24.5507" transform="matrix(0 1 1 0 854.466 750.781)" fill="#D9D9D9"/>
<circle cx="24.5507" cy="24.5507" r="24.5507" transform="matrix(0 1 1 0 854.466 668.663)" fill="#D9D9D9"/>
<circle cx="24.5507" cy="24.5507" r="24.5507" transform="matrix(0 1 1 0 854.466 832.899)" fill="#D9D9D9"/>
<circle cx="21.5877" cy="21.5877" r="16.5877" transform="matrix(0 1 1 0 852 573)" fill="#3E3E3E" stroke="#D9D9D9" stroke-width="10"/>
<circle cx="21.5877" cy="21.5877" r="16.5877" transform="matrix(0 1 1 0 852 737.236)" fill="#3E3E3E" stroke="#D9D9D9" stroke-width="10"/>
<circle cx="21.5877" cy="21.5877" r="16.5877" transform="matrix(0 1 1 0 852 655.118)" fill="#3E3E3E" stroke="#D9D9D9" stroke-width="10"/>
<circle cx="21.5877" cy="21.5877" r="16.5877" transform="matrix(0 1 1 0 852 819.353)" fill="#3E3E3E" stroke="#D9D9D9" stroke-width="10"/>
<circle cx="1040.55" cy="611.096" r="24.5507" transform="rotate(90 1040.55 611.096)" fill="#D9D9D9"/>
<circle cx="1040.55" cy="775.332" r="24.5507" transform="rotate(90 1040.55 775.332)" fill="#D9D9D9"/>
<circle cx="1040.55" cy="693.214" r="24.5507" transform="rotate(90 1040.55 693.214)" fill="#D9D9D9"/>
<circle cx="1040.55" cy="857.449" r="24.5507" transform="rotate(90 1040.55 857.449)" fill="#D9D9D9"/>
<circle cx="1041.98" cy="594.588" r="16.5877" transform="rotate(90 1041.98 594.588)" fill="#3E3E3E" stroke="#D9D9D9" stroke-width="10"/>
<circle cx="1041.98" cy="758.823" r="16.5877" transform="rotate(90 1041.98 758.823)" fill="#3E3E3E" stroke="#D9D9D9" stroke-width="10"/>
<circle cx="1041.98" cy="676.706" r="16.5877" transform="rotate(90 1041.98 676.706)" fill="#3E3E3E" stroke="#D9D9D9" stroke-width="10"/>
<circle cx="1041.98" cy="840.941" r="16.5877" transform="rotate(90 1041.98 840.941)" fill="#3E3E3E" stroke="#D9D9D9" stroke-width="10"/>
<rect x="269.171" y="104.501" width="1379.66" height="229.768" rx="22" fill="white" stroke="#D9D9D9" stroke-width="12"/>
<rect x="244" y="79" width="1430" height="281" rx="38" stroke="#D9D9D9" stroke-width="12"/>
<path d="M404.706 210.012C397.225 210.012 391.656 207.369 388 202.081C384.4 196.794 382.6 189.285 382.6 179.554C382.6 169.823 384.4 162.314 388 157.026C391.656 151.739 397.225 149.095 404.706 149.095C407.574 149.095 410.049 149.489 412.13 150.276C414.268 151.008 416.096 152.048 417.615 153.398C419.133 154.692 420.399 156.239 421.411 158.039C422.48 159.782 423.352 161.667 424.027 163.692L415.505 166.56C415.055 165.21 414.549 163.945 413.987 162.764C413.424 161.582 412.721 160.57 411.877 159.726C411.034 158.883 410.021 158.208 408.84 157.701C407.715 157.195 406.309 156.942 404.621 156.942C400.459 156.942 397.421 158.545 395.509 161.751C393.597 164.901 392.64 169.176 392.64 174.576V184.532C392.64 189.932 393.597 194.235 395.509 197.441C397.421 200.591 400.459 202.166 404.621 202.166C406.309 202.166 407.715 201.913 408.84 201.406C410.021 200.9 411.034 200.225 411.877 199.381C412.721 198.538 413.424 197.525 413.987 196.344C414.549 195.163 415.055 193.897 415.505 192.547L424.027 195.416C423.352 197.441 422.48 199.353 421.411 201.153C420.399 202.897 419.133 204.444 417.615 205.794C416.096 207.088 414.268 208.128 412.13 208.916C410.049 209.647 407.574 210.012 404.706 210.012ZM453.609 210.012C449.897 210.012 446.662 209.337 443.906 207.988C441.206 206.581 438.956 204.584 437.156 201.997C435.413 199.41 434.119 196.232 433.275 192.463C432.431 188.694 432.009 184.391 432.009 179.554C432.009 174.773 432.431 170.498 433.275 166.729C434.119 162.904 435.413 159.698 437.156 157.111C438.956 154.523 441.206 152.555 443.906 151.205C446.662 149.798 449.897 149.095 453.609 149.095C457.321 149.095 460.527 149.798 463.227 151.205C465.984 152.555 468.234 154.523 469.977 157.111C471.777 159.698 473.099 162.904 473.943 166.729C474.787 170.498 475.208 174.773 475.208 179.554C475.208 184.391 474.787 188.694 473.943 192.463C473.099 196.232 471.777 199.41 469.977 201.997C468.234 204.584 465.984 206.581 463.227 207.988C460.527 209.337 457.321 210.012 453.609 210.012ZM453.609 202.166C457.828 202.166 460.809 200.591 462.552 197.441C464.296 194.235 465.168 189.904 465.168 184.447V174.576C465.168 169.176 464.296 164.901 462.552 161.751C460.809 158.545 457.828 156.942 453.609 156.942C449.39 156.942 446.409 158.545 444.665 161.751C442.922 164.901 442.05 169.176 442.05 174.576V184.532C442.05 189.932 442.922 194.235 444.665 197.441C446.409 200.591 449.39 202.166 453.609 202.166ZM502.597 210.012C497.759 210.012 493.681 209.112 490.363 207.313C487.044 205.513 484.316 203.235 482.178 200.478L488.253 194.572C492.247 199.578 497.084 202.081 502.765 202.081C506.14 202.081 508.784 201.266 510.696 199.635C512.665 198.003 513.649 195.753 513.649 192.885V191.45C513.649 188.807 512.806 186.754 511.118 185.291C509.487 183.773 506.9 183.013 503.356 183.013H495.172V175.082H503.018C506.281 175.082 508.671 174.351 510.19 172.888C511.765 171.426 512.553 169.289 512.553 166.476V165.126C512.553 162.595 511.737 160.626 510.106 159.22C508.475 157.758 505.972 157.026 502.597 157.026C499.615 157.026 497.112 157.589 495.087 158.714C493.119 159.839 491.403 161.329 489.941 163.186L483.866 158.039C486.116 155.17 488.759 152.976 491.797 151.458C494.834 149.883 498.631 149.095 503.187 149.095C509.431 149.095 514.184 150.53 517.446 153.398C520.765 156.211 522.424 160.036 522.424 164.873C522.424 166.954 522.115 168.782 521.496 170.357C520.934 171.876 520.118 173.198 519.049 174.323C518.037 175.391 516.799 176.263 515.337 176.938C513.931 177.613 512.412 178.091 510.781 178.373V178.795C512.581 178.963 514.24 179.357 515.759 179.976C517.334 180.594 518.684 181.466 519.809 182.591C520.99 183.66 521.918 185.01 522.593 186.641C523.268 188.216 523.605 190.1 523.605 192.294C523.605 194.938 523.099 197.357 522.087 199.55C521.131 201.688 519.752 203.544 517.952 205.119C516.153 206.638 513.931 207.847 511.287 208.747C508.7 209.591 505.803 210.012 502.597 210.012ZM530.575 201.069H535.216C536.341 199.55 537.353 197.778 538.253 195.753C539.153 193.729 539.913 191.338 540.531 188.582C541.206 185.769 541.713 182.591 542.05 179.048C542.388 175.504 542.556 171.454 542.556 166.898V150.108H572.003V201.069H578.33V221.656H569.64V209H539.35V221.656H530.575V201.069ZM562.721 158.039H551.247V167.995C551.247 176.657 550.684 183.632 549.559 188.919C548.491 194.15 547.056 198.2 545.256 201.069H562.721V158.039ZM619.05 209L614.578 193.307H595.847L591.375 209H581.757L598.969 150.108H611.878L629.09 209H619.05ZM605.55 159.642H604.875L597.619 185.46H612.806L605.55 159.642ZM636.482 150.108H645.763V176.432L644.582 193.054H645.172L666.519 150.108H675.462V209H666.181V182.676L667.362 166.054H666.772L645.425 209H636.482V150.108ZM655.972 145.383C652.71 145.383 650.066 144.68 648.041 143.274C646.016 141.811 644.357 139.646 643.063 136.777L640.954 132.052L648.632 129.352L651.669 138.296C652.175 138.521 652.85 138.689 653.694 138.802C654.538 138.858 655.297 138.886 655.972 138.886C656.647 138.886 657.406 138.858 658.25 138.802C659.094 138.689 659.769 138.521 660.275 138.296L663.312 129.352L670.99 132.052L668.881 136.777C667.587 139.646 665.928 141.811 663.903 143.274C661.878 144.68 659.234 145.383 655.972 145.383ZM758.841 210.012C751.36 210.012 745.791 207.369 742.135 202.081C738.535 196.794 736.735 189.285 736.735 179.554C736.735 169.823 738.535 162.314 742.135 157.026C745.791 151.739 751.36 149.095 758.841 149.095C761.71 149.095 764.185 149.489 766.266 150.276C768.403 151.008 770.231 152.048 771.75 153.398C773.269 154.692 774.534 156.239 775.547 158.039C776.615 159.782 777.487 161.667 778.162 163.692L769.641 166.56C769.191 165.21 768.684 163.945 768.122 162.764C767.559 161.582 766.856 160.57 766.013 159.726C765.169 158.883 764.156 158.208 762.975 157.701C761.85 157.195 760.444 156.942 758.757 156.942C754.594 156.942 751.557 158.545 749.644 161.751C747.732 164.901 746.776 169.176 746.776 174.576V184.532C746.776 189.932 747.732 194.235 749.644 197.441C751.557 200.591 754.594 202.166 758.757 202.166C760.444 202.166 761.85 201.913 762.975 201.406C764.156 200.9 765.169 200.225 766.013 199.381C766.856 198.538 767.559 197.525 768.122 196.344C768.684 195.163 769.191 193.897 769.641 192.547L778.162 195.416C777.487 197.441 776.615 199.353 775.547 201.153C774.534 202.897 773.269 204.444 771.75 205.794C770.231 207.088 768.403 208.128 766.266 208.916C764.185 209.647 761.71 210.012 758.841 210.012ZM789.435 150.108H809.769C815.113 150.108 819.247 151.486 822.172 154.242C825.153 156.998 826.644 160.767 826.644 165.548C826.644 168.979 825.8 171.707 824.113 173.732C822.425 175.757 820.147 177.191 817.278 178.035V178.457C820.71 179.245 823.466 180.763 825.547 183.013C827.628 185.207 828.669 188.329 828.669 192.379C828.669 194.797 828.275 197.019 827.487 199.044C826.7 201.069 825.575 202.841 824.113 204.359C822.65 205.822 820.878 206.975 818.797 207.819C816.772 208.606 814.522 209 812.047 209H789.435V150.108ZM809.179 201.744C812.328 201.744 814.747 201.097 816.435 199.803C818.122 198.51 818.966 196.428 818.966 193.56V190.522C818.966 187.654 818.122 185.572 816.435 184.279C814.747 182.985 812.328 182.338 809.179 182.338H798.716V201.744H809.179ZM807.829 175.42C810.81 175.42 813.06 174.857 814.578 173.732C816.153 172.551 816.941 170.61 816.941 167.91V164.873C816.941 162.173 816.153 160.261 814.578 159.136C813.06 157.954 810.81 157.364 807.829 157.364H798.716V175.42H807.829ZM858.335 210.012C854.623 210.012 851.388 209.337 848.632 207.988C845.932 206.581 843.682 204.584 841.882 201.997C840.139 199.41 838.845 196.232 838.001 192.463C837.157 188.694 836.736 184.391 836.736 179.554C836.736 174.773 837.157 170.498 838.001 166.729C838.845 162.904 840.139 159.698 841.882 157.111C843.682 154.523 845.932 152.555 848.632 151.205C851.388 149.798 854.623 149.095 858.335 149.095C862.047 149.095 865.254 149.798 867.954 151.205C870.71 152.555 872.96 154.523 874.703 157.111C876.503 159.698 877.825 162.904 878.669 166.729C879.513 170.498 879.934 174.773 879.934 179.554C879.934 184.391 879.513 188.694 878.669 192.463C877.825 196.232 876.503 199.41 874.703 201.997C872.96 204.584 870.71 206.581 867.954 207.988C865.254 209.337 862.047 210.012 858.335 210.012ZM858.335 202.166C862.554 202.166 865.535 200.591 867.279 197.441C869.022 194.235 869.894 189.904 869.894 184.447V174.576C869.894 169.176 869.022 164.901 867.279 161.751C865.535 158.545 862.554 156.942 858.335 156.942C854.116 156.942 851.135 158.545 849.391 161.751C847.648 164.901 846.776 169.176 846.776 174.576V184.532C846.776 189.932 847.648 194.235 849.391 197.441C851.135 200.591 854.116 202.166 858.335 202.166ZM889.436 150.108H898.717V176.432L897.535 193.054H898.126L919.472 150.108H928.416V209H919.135V182.676L920.316 166.054H919.725L898.379 209H889.436V150.108ZM908.926 145.383C905.663 145.383 903.02 144.68 900.995 143.274C898.97 141.811 897.31 139.646 896.017 136.777L893.907 132.052L901.585 129.352L904.623 138.296C905.129 138.521 905.804 138.689 906.648 138.802C907.491 138.858 908.251 138.886 908.926 138.886C909.601 138.886 910.36 138.858 911.204 138.802C912.048 138.689 912.723 138.521 913.229 138.296L916.266 129.352L923.944 132.052L921.835 136.777C920.541 139.646 918.882 141.811 916.857 143.274C914.832 144.68 912.188 145.383 908.926 145.383ZM1022.34 180.819L1022.59 163.101H1021.92L1010.11 193.391L998.295 163.101H997.62L997.873 180.819V209H989.52V150.108H1001.08L1010.11 173.479H1010.7L1019.81 150.108H1030.69V209H1022.34V180.819ZM1046.02 201.069H1055.38L1057.74 195.078L1038.09 150.108H1048.21L1058.59 175.166L1062.05 185.207H1062.22L1065.42 174.998L1074.28 150.108H1083.65L1064.92 199.888C1064.24 201.688 1063.51 203.178 1062.72 204.359C1061.99 205.541 1061.15 206.469 1060.19 207.144C1059.24 207.819 1058.14 208.297 1056.9 208.578C1055.66 208.859 1054.2 209 1052.51 209H1046.02V201.069ZM1109.69 210.012C1104.85 210.012 1100.77 209.112 1097.45 207.313C1094.13 205.513 1091.4 203.235 1089.27 200.478L1095.34 194.572C1099.34 199.578 1104.17 202.081 1109.85 202.081C1113.23 202.081 1115.87 201.266 1117.79 199.635C1119.75 198.003 1120.74 195.753 1120.74 192.885V191.45C1120.74 188.807 1119.89 186.754 1118.21 185.291C1116.58 183.773 1113.99 183.013 1110.45 183.013H1102.26V175.082H1110.11C1113.37 175.082 1115.76 174.351 1117.28 172.888C1118.85 171.426 1119.64 169.289 1119.64 166.476V165.126C1119.64 162.595 1118.83 160.626 1117.19 159.22C1115.56 157.758 1113.06 157.026 1109.69 157.026C1106.7 157.026 1104.2 157.589 1102.18 158.714C1100.21 159.839 1098.49 161.329 1097.03 163.186L1090.95 158.039C1093.2 155.17 1095.85 152.976 1098.89 151.458C1101.92 149.883 1105.72 149.095 1110.28 149.095C1116.52 149.095 1121.27 150.53 1124.54 153.398C1127.85 156.211 1129.51 160.036 1129.51 164.873C1129.51 166.954 1129.2 168.782 1128.59 170.357C1128.02 171.876 1127.21 173.198 1126.14 174.323C1125.13 175.391 1123.89 176.263 1122.43 176.938C1121.02 177.613 1119.5 178.091 1117.87 178.373V178.795C1119.67 178.963 1121.33 179.357 1122.85 179.976C1124.42 180.594 1125.77 181.466 1126.9 182.591C1128.08 183.66 1129.01 185.01 1129.68 186.641C1130.36 188.216 1130.69 190.1 1130.69 192.294C1130.69 194.938 1130.19 197.357 1129.18 199.55C1128.22 201.688 1126.84 203.544 1125.04 205.119C1123.24 206.638 1121.02 207.847 1118.38 208.747C1115.79 209.591 1112.89 210.012 1109.69 210.012ZM1139.86 150.108H1148.46V172.72H1153.44C1158.67 172.72 1162.72 174.323 1165.59 177.529C1168.46 180.679 1169.89 185.122 1169.89 190.86C1169.89 196.597 1168.46 201.069 1165.59 204.275C1162.72 207.425 1158.67 209 1153.44 209H1139.86V150.108ZM1152.68 201.406C1155.27 201.406 1157.3 200.76 1158.76 199.466C1160.22 198.172 1160.95 196.147 1160.95 193.391V188.329C1160.95 185.572 1160.22 183.548 1158.76 182.254C1157.3 180.96 1155.27 180.313 1152.68 180.313H1148.46V201.406H1152.68ZM1175.29 209V150.108H1183.9V209H1175.29ZM1193.23 150.108H1202.68V175.251H1211.8L1223.02 150.108H1232.72L1222.76 172.382C1221.81 174.52 1220.85 176.038 1219.9 176.938C1219 177.838 1217.93 178.401 1216.69 178.626V179.132C1218.1 179.413 1219.22 180.004 1220.06 180.904C1220.96 181.804 1221.89 183.407 1222.85 185.713L1229.43 201.069H1234.58V209H1228.84C1226.76 209 1225.01 208.466 1223.61 207.397C1222.2 206.328 1220.94 204.528 1219.81 201.997L1211.71 183.182H1202.68V209H1193.23V150.108ZM1276.73 209L1272.26 193.307H1253.53L1249.06 209H1239.44L1256.65 150.108H1269.56L1286.77 209H1276.73ZM1263.23 159.642H1262.55L1255.3 185.46H1270.49L1263.23 159.642ZM1323.86 158.039H1310.36V168.501C1310.36 174.013 1310.19 178.795 1309.86 182.844C1309.52 186.894 1309.01 190.382 1308.34 193.307C1307.66 196.175 1306.82 198.566 1305.81 200.478C1304.85 202.335 1303.75 203.881 1302.51 205.119C1301.05 206.525 1299.48 207.538 1297.79 208.156C1296.1 208.719 1294.02 209 1291.55 209H1289.01V201.069H1294.75C1295.88 199.944 1296.86 198.538 1297.71 196.85C1298.55 195.163 1299.22 193.025 1299.73 190.438C1300.29 187.851 1300.71 184.701 1301 180.988C1301.28 177.22 1301.42 172.692 1301.42 167.404V150.108H1333.31V209H1323.86V158.039ZM1345.85 150.108H1355.3V172.72H1368.29C1373.69 172.72 1377.88 174.295 1380.86 177.445C1383.9 180.594 1385.42 185.066 1385.42 190.86C1385.42 196.597 1383.9 201.069 1380.86 204.275C1377.88 207.425 1373.69 209 1368.29 209H1345.85V150.108ZM1367.2 201.238C1369.78 201.238 1371.81 200.591 1373.27 199.297C1374.73 197.947 1375.46 195.922 1375.46 193.222V188.497C1375.46 185.797 1374.73 183.801 1373.27 182.507C1371.81 181.157 1369.78 180.482 1367.2 180.482H1355.3V201.238H1367.2ZM1424.62 183.098H1405.05V209H1395.6V150.108H1405.05V175.166H1424.62V150.108H1434.07V209H1424.62V183.098ZM1443.4 150.108H1452.01V172.72H1456.99C1462.22 172.72 1466.27 174.323 1469.14 177.529C1472.01 180.679 1473.44 185.122 1473.44 190.86C1473.44 196.597 1472.01 201.069 1469.14 204.275C1466.27 207.425 1462.22 209 1456.99 209H1443.4V150.108ZM1456.23 201.406C1458.81 201.406 1460.84 200.76 1462.3 199.466C1463.76 198.172 1464.5 196.147 1464.5 193.391V188.329C1464.5 185.572 1463.76 183.548 1462.3 182.254C1460.84 180.96 1458.81 180.313 1456.23 180.313H1452.01V201.406H1456.23ZM1478.84 209V150.108H1487.45V209H1478.84ZM1496.52 150.108H1505.81V176.432L1504.62 193.054H1505.22L1526.56 150.108H1535.5V209H1526.22V182.676L1527.41 166.054H1526.81L1505.47 209H1496.52V150.108ZM1516.01 145.383C1512.75 145.383 1510.11 144.68 1508.08 143.274C1506.06 141.811 1504.4 139.646 1503.11 136.777L1501 132.052L1508.67 129.352L1511.71 138.296C1512.22 138.521 1512.89 138.689 1513.74 138.802C1514.58 138.858 1515.34 138.886 1516.01 138.886C1516.69 138.886 1517.45 138.858 1518.29 138.802C1519.14 138.689 1519.81 138.521 1520.32 138.296L1523.36 129.352L1531.03 132.052L1528.92 136.777C1527.63 139.646 1525.97 141.811 1523.95 143.274C1521.92 144.68 1519.28 145.383 1516.01 145.383ZM788.676 244.108H826.812V303H817.363V252.039H798.126V303H788.676V244.108ZM858.335 304.012C854.623 304.012 851.388 303.337 848.632 301.988C845.932 300.581 843.682 298.584 841.882 295.997C840.139 293.41 838.845 290.232 838.001 286.463C837.157 282.694 836.736 278.391 836.736 273.554C836.736 268.773 837.157 264.498 838.001 260.729C838.845 256.904 840.139 253.698 841.882 251.111C843.682 248.523 845.932 246.555 848.632 245.205C851.388 243.798 854.623 243.095 858.335 243.095C862.047 243.095 865.254 243.798 867.953 245.205C870.71 246.555 872.96 248.523 874.703 251.111C876.503 253.698 877.825 256.904 878.669 260.729C879.513 264.498 879.934 268.773 879.934 273.554C879.934 278.391 879.513 282.694 878.669 286.463C877.825 290.232 876.503 293.41 874.703 295.997C872.96 298.584 870.71 300.581 867.953 301.988C865.254 303.337 862.047 304.012 858.335 304.012ZM858.335 296.166C862.554 296.166 865.535 294.591 867.278 291.441C869.022 288.235 869.894 283.904 869.894 278.447V268.576C869.894 263.176 869.022 258.901 867.278 255.751C865.535 252.545 862.554 250.942 858.335 250.942C854.116 250.942 851.135 252.545 849.391 255.751C847.648 258.901 846.776 263.176 846.776 268.576V278.532C846.776 283.932 847.648 288.235 849.391 291.441C851.135 294.591 854.116 296.166 858.335 296.166ZM890.701 303V244.108H912.723C918.347 244.108 922.622 245.683 925.547 248.833C928.528 251.983 930.019 256.314 930.019 261.826C930.019 267.338 928.528 271.67 925.547 274.819C922.622 277.969 918.347 279.544 912.723 279.544H900.151V303H890.701ZM900.151 271.698H911.288C917.138 271.698 920.063 268.998 920.063 263.598V259.97C920.063 254.626 917.138 251.954 911.288 251.954H900.151V271.698ZM964.241 252.039V303H954.792V252.039H936.314V244.108H982.719V252.039H964.241ZM991.883 303V244.108H1013.9C1019.53 244.108 1023.8 245.683 1026.73 248.833C1029.71 251.983 1031.2 256.314 1031.2 261.826C1031.2 267.338 1029.71 271.67 1026.73 274.819C1023.8 277.969 1019.53 279.544 1013.9 279.544H1001.33V303H991.883ZM1001.33 271.698H1012.47C1018.32 271.698 1021.24 268.998 1021.24 263.598V259.97C1021.24 254.626 1018.32 251.954 1012.47 251.954H1001.33V271.698ZM1042.64 303V244.108H1079.51V252.039H1052.09V269.166H1078.5V277.098H1052.09V295.069H1079.51V303H1042.64ZM1116.01 252.039V303H1106.56V252.039H1088.09V244.108H1134.49V252.039H1116.01Z" fill="#555555"/>
<circle cx="958.5" cy="978.5" r="31.5" fill="#00AEEF" stroke="#D9D9D9" stroke-width="12"/>
<circle cx="662.5" cy="466.5" r="29.5" fill="#FFF200" stroke="#D9D9D9" stroke-width="12"/>
<circle cx="775.5" cy="465.5" r="29.5" fill="#EC008C" stroke="#D9D9D9" stroke-width="12"/>
<circle cx="878.5" cy="465.5" r="20.5" fill="#3E3E3E" stroke="#D9D9D9" stroke-width="12"/>
<line x1="709" y1="467" x2="729" y2="467" stroke="#D9D9D9" stroke-width="10"/>
<line x1="822" y1="467" x2="841" y2="467" stroke="#D9D9D9" stroke-width="10"/>
<circle cx="1144.5" cy="465.5" r="29.5" fill="#EC008C" stroke="#D9D9D9" stroke-width="12"/>
<circle cx="1257.5" cy="465.5" r="29.5" fill="#00AEEF" stroke="#D9D9D9" stroke-width="12"/>
<circle cx="1041.5" cy="464.5" r="20.5" fill="#3E3E3E" stroke="#D9D9D9" stroke-width="12"/>
<line x1="1191" y1="467" x2="1211" y2="467" stroke="#D9D9D9" stroke-width="10"/>
<line x1="1079" y1="467" x2="1098" y2="467" stroke="#D9D9D9" stroke-width="10"/>
<rect x="1140" y="954" width="102" height="47" rx="9" fill="#3E3E3E" stroke="#D9D9D9" stroke-width="10"/>
<path d="M1171 978H1210" stroke="#D9D9D9" stroke-width="10" stroke-linecap="round"/>
<rect x="675" y="954" width="102" height="47" rx="9" fill="#3E3E3E" stroke="#D9D9D9" stroke-width="10"/>
<path d="M706 978H745" stroke="#D9D9D9" stroke-width="10" stroke-linecap="round"/>
<circle cx="959.551" cy="611.551" r="24.5507" transform="rotate(90 959.551 611.551)" fill="#D9D9D9"/>
<circle cx="21.5877" cy="21.5877" r="16.5877" transform="matrix(0 1 1 0 937 573)" fill="#3E3E3E" stroke="#D9D9D9" stroke-width="10"/>
<circle cx="959.551" cy="693.551" r="24.5507" transform="rotate(90 959.551 693.551)" fill="#D9D9D9"/>
<circle cx="21.5877" cy="21.5877" r="16.5877" transform="matrix(0 1 1 0 937 655)" fill="#3E3E3E" stroke="#D9D9D9" stroke-width="10"/>
<circle cx="958.551" cy="775.551" r="24.5507" transform="rotate(90 958.551 775.551)" fill="#D9D9D9"/>
<circle cx="21.5877" cy="21.5877" r="16.5877" transform="matrix(0 1 1 0 936 737)" fill="#3E3E3E" stroke="#D9D9D9" stroke-width="10"/>
<circle cx="958.551" cy="857.551" r="24.5507" transform="rotate(90 958.551 857.551)" fill="#D9D9D9"/>
<circle cx="21.5877" cy="21.5877" r="16.5877" transform="matrix(0 1 1 0 936 819)" fill="#3E3E3E" stroke="#D9D9D9" stroke-width="10"/>
<rect x="1719" y="166" width="131.47" height="41" rx="18" fill="#EC008C" stroke="white" stroke-width="12"/>
<rect x="1719" y="231" width="131.47" height="41" rx="18" fill="#FFF200" stroke="white" stroke-width="12"/>
<rect x="1719" y="296" width="131.47" height="41" rx="18" fill="#3E3E3E" stroke="white" stroke-width="12"/>
<rect x="1719" y="101" width="131.47" height="41" rx="18" fill="#00AEEF" stroke="white" stroke-width="12"/>
<rect x="70" y="166" width="131.47" height="41" rx="18" fill="#EC008C" stroke="white" stroke-width="12"/>
<rect x="70" y="231" width="131.47" height="41" rx="18" fill="#FFF200" stroke="white" stroke-width="12"/>
<rect x="70" y="296" width="131.47" height="41" rx="18" fill="#3E3E3E" stroke="white" stroke-width="12"/>
<rect x="70" y="101" width="131.47" height="41" rx="18" fill="#00AEEF" stroke="white" stroke-width="12"/>
</svg>
