<svg width="1920" height="228" viewBox="0 0 1920 228" fill="none" xmlns="http://www.w3.org/2000/svg">
<rect x="6" y="6" width="1908" height="216" fill="#3E3E3E" stroke="white" stroke-width="12"/>
<rect x="1491" y="46" width="363" height="136" rx="18" fill="#D9D9D9" stroke="white" stroke-width="12"/>
<path d="M1533.86 80.2H1574.26V89.6H1545.06V150H1533.86V80.2ZM1611.72 151.2C1607.32 151.2 1603.49 150.4 1600.22 148.8C1597.02 147.133 1594.36 144.767 1592.22 141.7C1590.16 138.633 1588.62 134.867 1587.62 130.4C1586.62 125.933 1586.12 120.833 1586.12 115.1C1586.12 109.433 1586.62 104.367 1587.62 99.9C1588.62 95.3667 1590.16 91.5667 1592.22 88.5C1594.36 85.4333 1597.02 83.1 1600.22 81.5C1603.49 79.8333 1607.32 79 1611.72 79C1616.12 79 1619.92 79.8333 1623.12 81.5C1626.39 83.1 1629.06 85.4333 1631.12 88.5C1633.26 91.5667 1634.82 95.3667 1635.82 99.9C1636.82 104.367 1637.32 109.433 1637.32 115.1C1637.32 120.833 1636.82 125.933 1635.82 130.4C1634.82 134.867 1633.26 138.633 1631.12 141.7C1629.06 144.767 1626.39 147.133 1623.12 148.8C1619.92 150.4 1616.12 151.2 1611.72 151.2ZM1611.72 141.9C1616.72 141.9 1620.26 140.033 1622.32 136.3C1624.39 132.5 1625.42 127.367 1625.42 120.9V109.2C1625.42 102.8 1624.39 97.7333 1622.32 94C1620.26 90.2 1616.72 88.3 1611.72 88.3C1606.72 88.3 1603.19 90.2 1601.12 94C1599.06 97.7333 1598.02 102.8 1598.02 109.2V121C1598.02 127.4 1599.06 132.5 1601.12 136.3C1603.19 140.033 1606.72 141.9 1611.72 141.9ZM1683.79 89.6H1667.79V102C1667.79 108.533 1667.59 114.2 1667.19 119C1666.79 123.8 1666.19 127.933 1665.39 131.4C1664.59 134.8 1663.59 137.633 1662.39 139.9C1661.25 142.1 1659.95 143.933 1658.49 145.4C1656.75 147.067 1654.89 148.267 1652.89 149C1650.89 149.667 1648.42 150 1645.49 150H1642.49V140.6H1649.29C1650.62 139.267 1651.79 137.6 1652.79 135.6C1653.79 133.6 1654.59 131.067 1655.19 128C1655.85 124.933 1656.35 121.2 1656.69 116.8C1657.02 112.333 1657.19 106.967 1657.19 100.7V80.2H1694.99V150H1683.79V89.6ZM1731.65 151.2C1727.25 151.2 1723.41 150.4 1720.15 148.8C1716.95 147.133 1714.28 144.767 1712.15 141.7C1710.08 138.633 1708.55 134.867 1707.55 130.4C1706.55 125.933 1706.05 120.833 1706.05 115.1C1706.05 109.433 1706.55 104.367 1707.55 99.9C1708.55 95.3667 1710.08 91.5667 1712.15 88.5C1714.28 85.4333 1716.95 83.1 1720.15 81.5C1723.41 79.8333 1727.25 79 1731.65 79C1736.05 79 1739.85 79.8333 1743.05 81.5C1746.31 83.1 1748.98 85.4333 1751.05 88.5C1753.18 91.5667 1754.75 95.3667 1755.75 99.9C1756.75 104.367 1757.25 109.433 1757.25 115.1C1757.25 120.833 1756.75 125.933 1755.75 130.4C1754.75 134.867 1753.18 138.633 1751.05 141.7C1748.98 144.767 1746.31 147.133 1743.05 148.8C1739.85 150.4 1736.05 151.2 1731.65 151.2ZM1731.65 141.9C1736.65 141.9 1740.18 140.033 1742.25 136.3C1744.31 132.5 1745.35 127.367 1745.35 120.9V109.2C1745.35 102.8 1744.31 97.7333 1742.25 94C1740.18 90.2 1736.65 88.3 1731.65 88.3C1726.65 88.3 1723.11 90.2 1721.05 94C1718.98 97.7333 1717.95 102.8 1717.95 109.2V121C1717.95 127.4 1718.98 132.5 1721.05 136.3C1723.11 140.033 1726.65 141.9 1731.65 141.9ZM1793.61 151.2C1784.74 151.2 1778.14 148.067 1773.81 141.8C1769.54 135.533 1767.41 126.633 1767.41 115.1C1767.41 103.567 1769.54 94.6667 1773.81 88.4C1778.14 82.1333 1784.74 79 1793.61 79C1797.01 79 1799.94 79.4667 1802.41 80.4C1804.94 81.2667 1807.11 82.5 1808.91 84.1C1810.71 85.6333 1812.21 87.4667 1813.41 89.6C1814.67 91.6667 1815.71 93.9 1816.51 96.3L1806.41 99.7C1805.87 98.1 1805.27 96.6 1804.61 95.2C1803.94 93.8 1803.11 92.6 1802.11 91.6C1801.11 90.6 1799.91 89.8 1798.51 89.2C1797.17 88.6 1795.51 88.3 1793.51 88.3C1788.57 88.3 1784.97 90.2 1782.71 94C1780.44 97.7333 1779.31 102.8 1779.31 109.2V121C1779.31 127.4 1780.44 132.5 1782.71 136.3C1784.97 140.033 1788.57 141.9 1793.51 141.9C1795.51 141.9 1797.17 141.6 1798.51 141C1799.91 140.4 1801.11 139.6 1802.11 138.6C1803.11 137.6 1803.94 136.4 1804.61 135C1805.27 133.6 1805.87 132.1 1806.41 130.5L1816.51 133.9C1815.71 136.3 1814.67 138.567 1813.41 140.7C1812.21 142.767 1810.71 144.6 1808.91 146.2C1807.11 147.733 1804.94 148.967 1802.41 149.9C1799.94 150.767 1797.01 151.2 1793.61 151.2Z" fill="#3E3E3E"/>
<rect x="68" y="39" width="228.241" height="150.537" rx="18" fill="#3E3E3E" stroke="#D9D9D9" stroke-width="12"/>
<rect x="320.38" y="39" width="228.241" height="150.537" rx="18" fill="#3E3E3E" stroke="#D9D9D9" stroke-width="12"/>
<rect x="572.76" y="39" width="228.241" height="150.537" rx="18" fill="#3E3E3E" stroke="#D9D9D9" stroke-width="12"/>
<path d="M159.665 75.0601L159.665 153.477" stroke="white" stroke-width="24" stroke-linecap="round"/>
<path d="M204.576 75.0601L204.576 153.477" stroke="white" stroke-width="24" stroke-linecap="round"/>
<path d="M464 104.608C472 109.226 472 120.774 464 125.392L428 146.177C420 150.796 410 145.022 410 135.785V94.2154C410 84.9778 420 79.2043 428 83.8231L464 104.608Z" fill="white"/>
<rect x="652.305" y="79.3372" width="69.1495" height="69.1495" rx="12" fill="white"/>
</svg>
