<svg width="1920" height="1165" viewBox="0 0 1920 1165" fill="none" xmlns="http://www.w3.org/2000/svg">
<rect x="6" y="6" width="1908" height="1072" fill="white" stroke="#3E3E3E" stroke-width="12"/>
<rect x="489" y="173" width="942" height="861" rx="6" fill="#D9D9D9" stroke="#3E3E3E" stroke-width="12"/>
<rect x="533.069" y="49.9229" width="83" height="80" rx="6" fill="#A214DF" stroke="#3E3E3E" stroke-width="12"/>
<rect x="684.069" y="49.9229" width="82" height="80" rx="6" fill="#EC008C" stroke="#3E3E3E" stroke-width="12"/>
<rect x="834.069" y="49.9229" width="82" height="80" rx="6" fill="#00AEEF" stroke="#3E3E3E" stroke-width="12"/>
<rect x="984.069" y="49.9229" width="83" height="80" rx="6" fill="#FFF200" stroke="#3E3E3E" stroke-width="12"/>
<rect x="1135.07" y="49.9229" width="83" height="80" rx="6" fill="#DF5B14" stroke="#3E3E3E" stroke-width="12"/>
<rect x="1558" y="453" width="228.241" height="150.537" rx="18" fill="#D9D9D9" stroke="#3E3E3E" stroke-width="12"/>
<rect x="1558" y="625" width="228.241" height="150.537" rx="18" fill="#D9D9D9" stroke="#3E3E3E" stroke-width="12"/>
<rect x="1558" y="260" width="228.241" height="150.537" rx="18" fill="#D9D9D9" stroke="#3E3E3E" stroke-width="12"/>
<path d="M1649.66 493.061L1649.66 571.477" stroke="#3E3E3E" stroke-width="24" stroke-linecap="round"/>
<path d="M1694.58 493.061L1694.58 571.477" stroke="#3E3E3E" stroke-width="24" stroke-linecap="round"/>
<path d="M1701.62 690.608C1709.62 695.226 1709.62 706.774 1701.62 711.392L1665.62 732.177C1657.62 736.796 1647.62 731.022 1647.62 721.785V680.215C1647.62 670.978 1657.62 665.204 1665.62 669.823L1701.62 690.608Z" fill="#3E3E3E"/>
<rect x="1558" y="796" width="228.241" height="150.537" rx="18" fill="#D9D9D9" stroke="#3E3E3E" stroke-width="12"/>
<rect x="1637.54" y="836.338" width="69.1495" height="69.1495" rx="12" fill="#3E3E3E"/>
<path d="M1630.5 351.3H1618.3V342.9H1632L1634 331.3H1622V322.9H1635.5L1639.2 302.2H1648.3L1636 372H1626.9L1630.5 351.3ZM1658 302.2H1667.1L1663.5 322.9H1675.7V331.3H1662L1660 342.9H1672V351.3H1658.5L1654.8 372H1645.7L1658 302.2ZM1685.76 372V362.7H1705.36V310.4H1704.56L1688.36 327.7L1681.46 321.5L1699.26 302.2H1716.56V362.7H1733.46V372H1685.76Z" fill="#3E3E3E"/>
<path d="M147 658L227 658" stroke="#3E3E3E" stroke-width="12"/>
<path d="M147 518L227 518" stroke="#3E3E3E" stroke-width="12"/>
<path d="M284 378L364 378" stroke="#3E3E3E" stroke-width="12"/>
<path d="M284 413L364 413" stroke="#3E3E3E" stroke-width="12"/>
<path d="M147 343L227 343" stroke="#3E3E3E" stroke-width="12"/>
<path d="M147 623L227 623" stroke="#3E3E3E" stroke-width="12"/>
<path d="M284 623L364 623" stroke="#3E3E3E" stroke-width="12"/>
<path d="M284 658L364 658" stroke="#3E3E3E" stroke-width="12"/>
<path d="M147 483L227 483" stroke="#3E3E3E" stroke-width="12"/>
<path d="M284 343L364 343" stroke="#3E3E3E" stroke-width="12"/>
<path d="M147 378L227 378" stroke="#3E3E3E" stroke-width="12"/>
<path d="M147 588L227 588" stroke="#3E3E3E" stroke-width="12"/>
<path d="M284 588L364 588" stroke="#3E3E3E" stroke-width="12"/>
<path d="M147 448L227 448" stroke="#3E3E3E" stroke-width="12"/>
<path d="M284 518L364 518" stroke="#3E3E3E" stroke-width="12"/>
<path d="M284 483L364 483" stroke="#3E3E3E" stroke-width="12"/>
<path d="M284 448L364 448" stroke="#3E3E3E" stroke-width="12"/>
<path d="M284 308L364 308" stroke="#3E3E3E" stroke-width="12"/>
<path d="M284 275L364 275" stroke="#3E3E3E" stroke-width="12"/>
<path d="M147 275L227 275" stroke="#3E3E3E" stroke-width="12"/>
<path d="M147 413L227 413" stroke="#3E3E3E" stroke-width="12"/>
<path d="M147 553L227 553" stroke="#3E3E3E" stroke-width="12"/>
<path d="M284 553L364 553" stroke="#3E3E3E" stroke-width="12"/>
<path d="M147 308L227 308" stroke="#3E3E3E" stroke-width="12"/>
<rect x="100" y="729" width="312" height="217" rx="6" fill="#D9D9D9" stroke="#3E3E3E" stroke-width="12"/>
<rect y="1070" width="1920" height="95" fill="#3E3E3E"/>
<path d="M52.91 1119.31L53.024 1111.33H52.72L47.4 1124.97L42.08 1111.33H41.776L41.89 1119.31V1132H38.128V1105.48H43.334L47.4 1116H47.666L51.77 1105.48H56.672V1132H52.91V1119.31ZM77.4812 1132C76.2905 1132 75.3912 1131.7 74.7832 1131.09C74.2005 1130.48 73.8458 1129.68 73.7192 1128.69H73.5292C73.1492 1129.88 72.4525 1130.81 71.4392 1131.47C70.4512 1132.13 69.1845 1132.46 67.6392 1132.46C65.6378 1132.46 64.0418 1131.94 62.8512 1130.9C61.6605 1129.83 61.0652 1128.38 61.0652 1126.53C61.0652 1124.63 61.7618 1123.18 63.1552 1122.2C64.5738 1121.18 66.7398 1120.68 69.6532 1120.68H73.4152V1119.16C73.4152 1116.5 72.0092 1115.17 69.1972 1115.17C67.9305 1115.17 66.9045 1115.42 66.1192 1115.93C65.3338 1116.41 64.6752 1117.05 64.1432 1117.86L61.6732 1115.85C62.2305 1114.79 63.1678 1113.87 64.4852 1113.11C65.8025 1112.33 67.4998 1111.94 69.5772 1111.94C72.0598 1111.94 74.0105 1112.53 75.4292 1113.72C76.8478 1114.91 77.5572 1116.64 77.5572 1118.89V1128.73H80.0272V1132H77.4812ZM68.8172 1129.42C70.1598 1129.42 71.2618 1129.11 72.1232 1128.5C72.9845 1127.9 73.4152 1127.11 73.4152 1126.15V1123.3H69.7292C66.7398 1123.3 65.2452 1124.2 65.2452 1126V1126.76C65.2452 1127.64 65.5618 1128.31 66.1952 1128.77C66.8285 1129.2 67.7025 1129.42 68.8172 1129.42ZM84.5723 1112.39H88.7143V1115.74H88.9423C89.525 1114.55 90.2976 1113.62 91.2603 1112.96C92.223 1112.28 93.4263 1111.94 94.8703 1111.94C97.1756 1111.94 99.0123 1112.8 100.38 1114.52C101.748 1116.24 102.432 1118.8 102.432 1122.2C102.432 1125.59 101.748 1128.15 100.38 1129.87C99.0123 1131.59 97.1756 1132.46 94.8703 1132.46C93.4263 1132.46 92.223 1132.13 91.2603 1131.47C90.2976 1130.78 89.525 1129.85 88.9423 1128.66H88.7143V1139.6H84.5723V1112.39ZM93.1603 1129.07C94.731 1129.07 95.9343 1128.59 96.7703 1127.63C97.6316 1126.67 98.0623 1125.39 98.0623 1123.79V1120.6C98.0623 1119 97.6316 1117.72 96.7703 1116.76C95.9343 1115.8 94.731 1115.32 93.1603 1115.32C92.5523 1115.32 91.9823 1115.39 91.4503 1115.55C90.9183 1115.7 90.4496 1115.93 90.0443 1116.23C89.639 1116.53 89.3096 1116.91 89.0563 1117.37C88.8283 1117.8 88.7143 1118.32 88.7143 1118.93V1125.46C88.7143 1126.07 88.8283 1126.6 89.0563 1127.06C89.3096 1127.49 89.639 1127.86 90.0443 1128.16C90.4496 1128.47 90.9183 1128.69 91.4503 1128.85C91.9823 1129 92.5523 1129.07 93.1603 1129.07ZM113.665 1115.74H106.787V1112.39H124.723V1115.74H117.807V1132H113.665V1115.74ZM128.813 1112.39H132.575V1118.85H135.349C137.35 1118.85 138.959 1119.42 140.175 1120.56C141.416 1121.7 142.037 1123.32 142.037 1125.43C142.037 1127.53 141.416 1129.15 140.175 1130.29C138.959 1131.43 137.35 1132 135.349 1132H128.813V1112.39ZM135.083 1128.88C136.045 1128.88 136.793 1128.67 137.325 1128.24C137.882 1127.78 138.161 1127.07 138.161 1126.11V1124.74C138.161 1123.78 137.882 1123.08 137.325 1122.65C136.793 1122.2 136.045 1121.97 135.083 1121.97H132.575V1128.88H135.083ZM144.507 1112.39H148.269V1132H144.507V1112.39ZM153.118 1112.39H157.26V1120.3H165.392V1112.39H169.534V1132H165.392V1123.64H157.26V1132H153.118V1112.39ZM184.111 1132.46C182.667 1132.46 181.362 1132.22 180.197 1131.73C179.057 1131.25 178.082 1130.57 177.271 1129.68C176.486 1128.8 175.878 1127.72 175.447 1126.45C175.016 1125.19 174.801 1123.77 174.801 1122.2C174.801 1120.63 175.016 1119.21 175.447 1117.94C175.878 1116.67 176.486 1115.6 177.271 1114.71C178.082 1113.82 179.057 1113.14 180.197 1112.66C181.362 1112.18 182.667 1111.94 184.111 1111.94C185.555 1111.94 186.847 1112.18 187.987 1112.66C189.152 1113.14 190.128 1113.82 190.913 1114.71C191.724 1115.6 192.344 1116.67 192.775 1117.94C193.206 1119.21 193.421 1120.63 193.421 1122.2C193.421 1123.77 193.206 1125.19 192.775 1126.45C192.344 1127.72 191.724 1128.8 190.913 1129.68C190.128 1130.57 189.152 1131.25 187.987 1131.73C186.847 1132.22 185.555 1132.46 184.111 1132.46ZM184.111 1129.19C185.631 1129.19 186.834 1128.73 187.721 1127.82C188.633 1126.88 189.089 1125.5 189.089 1123.68V1120.71C189.089 1118.89 188.633 1117.52 187.721 1116.61C186.834 1115.67 185.631 1115.2 184.111 1115.2C182.591 1115.2 181.375 1115.67 180.463 1116.61C179.576 1117.52 179.133 1118.89 179.133 1120.71V1123.68C179.133 1125.5 179.576 1126.88 180.463 1127.82C181.375 1128.73 182.591 1129.19 184.111 1129.19ZM199.106 1112.39H209.632C211.329 1112.39 212.647 1112.85 213.584 1113.76C214.521 1114.65 214.99 1115.84 214.99 1117.33C214.99 1119.76 213.66 1121.18 211 1121.59V1121.78C212.621 1121.9 213.812 1122.37 214.572 1123.18C215.332 1123.97 215.712 1125.01 215.712 1126.3C215.712 1127.09 215.573 1127.82 215.294 1128.5C215.041 1129.19 214.661 1129.8 214.154 1130.33C213.647 1130.83 213.014 1131.24 212.254 1131.54C211.519 1131.85 210.683 1132 209.746 1132H199.106V1112.39ZM208.872 1128.88C209.683 1128.88 210.316 1128.69 210.772 1128.31C211.228 1127.91 211.456 1127.34 211.456 1126.6V1125.69C211.456 1124.96 211.228 1124.39 210.772 1123.98C210.341 1123.58 209.759 1123.37 209.024 1123.37H203.248V1128.88H208.872ZM208.492 1120.6C209.176 1120.6 209.721 1120.41 210.126 1120.03C210.531 1119.65 210.734 1119.13 210.734 1118.47V1117.64C210.734 1116.98 210.531 1116.46 210.126 1116.08C209.721 1115.7 209.176 1115.51 208.492 1115.51H203.248V1120.6H208.492ZM236.977 1132C235.787 1132 234.887 1131.7 234.279 1131.09C233.697 1130.48 233.342 1129.68 233.215 1128.69H233.025C232.645 1129.88 231.949 1130.81 230.935 1131.47C229.947 1132.13 228.681 1132.46 227.135 1132.46C225.134 1132.46 223.538 1131.94 222.347 1130.9C221.157 1129.83 220.561 1128.38 220.561 1126.53C220.561 1124.63 221.258 1123.18 222.651 1122.2C224.07 1121.18 226.236 1120.68 229.149 1120.68H232.911V1119.16C232.911 1116.5 231.505 1115.17 228.693 1115.17C227.427 1115.17 226.401 1115.42 225.615 1115.93C224.83 1116.41 224.171 1117.05 223.639 1117.86L221.169 1115.85C221.727 1114.79 222.664 1113.87 223.981 1113.11C225.299 1112.33 226.996 1111.94 229.073 1111.94C231.556 1111.94 233.507 1112.53 234.925 1113.72C236.344 1114.91 237.053 1116.64 237.053 1118.89V1128.73H239.523V1132H236.977ZM228.313 1129.42C229.656 1129.42 230.758 1129.11 231.619 1128.5C232.481 1127.9 232.911 1127.11 232.911 1126.15V1123.3H229.225C226.236 1123.3 224.741 1124.2 224.741 1126V1126.76C224.741 1127.64 225.058 1128.31 225.691 1128.77C226.325 1129.2 227.199 1129.42 228.313 1129.42ZM281.408 1132L279.394 1124.93H270.958L268.944 1132H264.612L272.364 1105.48H278.178L285.93 1132H281.408ZM275.328 1109.77H275.024L271.756 1121.4H278.596L275.328 1109.77ZM287.549 1128.66H290.095C290.424 1128.23 290.715 1127.73 290.969 1127.17C291.247 1126.59 291.463 1125.89 291.615 1125.08C291.792 1124.27 291.919 1123.34 291.995 1122.27C292.096 1121.21 292.147 1119.97 292.147 1118.55V1112.39H306.017V1132H301.875V1115.74H296.023V1118.62C296.023 1121.94 295.782 1124.54 295.301 1126.41C294.819 1128.29 294.161 1129.66 293.325 1130.52C292.742 1131.13 292.071 1131.53 291.311 1131.73C290.551 1131.91 289.753 1132 288.917 1132H287.549V1128.66ZM312.576 1112.39H316.68V1120.83L316.3 1126.15H316.49L325.154 1112.39H329.068V1132H324.964V1123.56L325.344 1118.24H325.154L316.49 1132H312.576V1112.39ZM344.329 1132.46C342.86 1132.46 341.542 1132.22 340.377 1131.73C339.237 1131.25 338.262 1130.57 337.451 1129.68C336.666 1128.8 336.058 1127.72 335.627 1126.45C335.222 1125.19 335.019 1123.77 335.019 1122.2C335.019 1120.63 335.222 1119.21 335.627 1117.94C336.058 1116.67 336.666 1115.6 337.451 1114.71C338.262 1113.82 339.237 1113.14 340.377 1112.66C341.542 1112.18 342.847 1111.94 344.291 1111.94C346.318 1111.94 347.939 1112.37 349.155 1113.23C350.396 1114.09 351.321 1115.2 351.929 1116.57L348.699 1118.32C348.344 1117.41 347.8 1116.69 347.065 1116.15C346.356 1115.62 345.431 1115.36 344.291 1115.36C342.72 1115.36 341.504 1115.84 340.643 1116.8C339.782 1117.74 339.351 1118.99 339.351 1120.56V1123.83C339.351 1125.38 339.782 1126.63 340.643 1127.59C341.504 1128.55 342.746 1129.04 344.367 1129.04C345.583 1129.04 346.571 1128.76 347.331 1128.2C348.116 1127.64 348.737 1126.88 349.193 1125.92L352.233 1127.78C351.6 1129.15 350.637 1130.28 349.345 1131.16C348.053 1132.03 346.381 1132.46 344.329 1132.46ZM373.688 1132C372.498 1132 371.598 1131.7 370.99 1131.09C370.408 1130.48 370.053 1129.68 369.926 1128.69H369.736C369.356 1129.88 368.66 1130.81 367.646 1131.47C366.658 1132.13 365.392 1132.46 363.846 1132.46C361.845 1132.46 360.249 1131.94 359.058 1130.9C357.868 1129.83 357.272 1128.38 357.272 1126.53C357.272 1124.63 357.969 1123.18 359.362 1122.2C360.781 1121.18 362.947 1120.68 365.86 1120.68H369.622V1119.16C369.622 1116.5 368.216 1115.17 365.404 1115.17C364.138 1115.17 363.112 1115.42 362.326 1115.93C361.541 1116.41 360.882 1117.05 360.35 1117.86L357.88 1115.85C358.438 1114.79 359.375 1113.87 360.692 1113.11C362.01 1112.33 363.707 1111.94 365.784 1111.94C368.267 1111.94 370.218 1112.53 371.636 1113.72C373.055 1114.91 373.764 1116.64 373.764 1118.89V1128.73H376.234V1132H373.688ZM365.024 1129.42C366.367 1129.42 367.469 1129.11 368.33 1128.5C369.192 1127.9 369.622 1127.11 369.622 1126.15V1123.3H365.936C362.947 1123.3 361.452 1124.2 361.452 1126V1126.76C361.452 1127.64 361.769 1128.31 362.402 1128.77C363.036 1129.2 363.91 1129.42 365.024 1129.42Z" fill="#D9D9D9"/>
<path d="M1722.93 1105.48H1738.47V1109.05H1727.18V1116.04H1733.03C1735.47 1116.04 1737.35 1116.74 1738.7 1118.13C1740.06 1119.52 1740.75 1121.49 1740.75 1124.02C1740.75 1126.55 1740.06 1128.52 1738.7 1129.91C1737.35 1131.3 1735.47 1132 1733.03 1132H1722.93V1105.48ZM1732.54 1128.5C1733.71 1128.5 1734.62 1128.21 1735.28 1127.63C1735.93 1127.02 1736.26 1126.11 1736.26 1124.89V1123.15C1736.26 1121.93 1735.93 1121.03 1735.28 1120.45C1734.62 1119.84 1733.71 1119.54 1732.54 1119.54H1727.18V1128.5H1732.54ZM1763.5 1132H1745.18V1127.93L1753.84 1120.37C1755.21 1119.16 1756.26 1118 1757 1116.91C1757.76 1115.82 1758.14 1114.67 1758.14 1113.46V1113.04C1758.14 1111.64 1757.76 1110.58 1757 1109.85C1756.24 1109.09 1755.14 1108.71 1753.69 1108.71C1752.22 1108.71 1751.08 1109.1 1750.27 1109.88C1749.49 1110.67 1748.92 1111.67 1748.56 1112.89L1744.84 1111.48C1745.09 1110.64 1745.46 1109.85 1745.94 1109.09C1746.42 1108.3 1747.03 1107.6 1747.76 1107C1748.52 1106.39 1749.41 1105.91 1750.42 1105.55C1751.46 1105.2 1752.65 1105.02 1754 1105.02C1755.36 1105.02 1756.58 1105.22 1757.64 1105.63C1758.73 1106.01 1759.64 1106.54 1760.38 1107.22C1761.11 1107.91 1761.67 1108.73 1762.05 1109.69C1762.43 1110.63 1762.62 1111.67 1762.62 1112.81C1762.62 1113.87 1762.46 1114.86 1762.13 1115.77C1761.82 1116.66 1761.38 1117.52 1760.8 1118.36C1760.24 1119.17 1759.57 1119.95 1758.78 1120.71C1758 1121.47 1757.14 1122.23 1756.2 1122.99L1749.78 1128.39H1763.5V1132ZM1779.33 1132V1126.83H1766.71V1123.18L1777.81 1105.48H1783.39V1123.49H1787.12V1126.83H1783.39V1132H1779.33ZM1770.32 1123.49H1779.33V1109.39H1779.1L1770.32 1123.49ZM1788.85 1128.43H1790.94C1791.45 1127.74 1791.9 1126.95 1792.31 1126.03C1792.71 1125.12 1793.05 1124.05 1793.33 1122.8C1793.64 1121.54 1793.87 1120.11 1794.02 1118.51C1794.17 1116.91 1794.25 1115.09 1794.25 1113.04V1105.48H1807.51V1128.43H1810.36V1137.7H1806.44V1132H1792.8V1137.7H1788.85V1128.43ZM1803.33 1109.05H1798.16V1113.53C1798.16 1117.43 1797.91 1120.57 1797.4 1122.96C1796.92 1125.31 1796.27 1127.14 1795.46 1128.43H1803.33V1109.05ZM1821.82 1132.46C1819.64 1132.46 1817.8 1132.05 1816.31 1131.24C1814.81 1130.43 1813.59 1129.4 1812.62 1128.16L1815.36 1125.5C1817.16 1127.76 1819.34 1128.88 1821.89 1128.88C1823.41 1128.88 1824.61 1128.52 1825.47 1127.78C1826.35 1127.05 1826.8 1126.03 1826.8 1124.74V1124.1C1826.8 1122.91 1826.42 1121.98 1825.66 1121.32C1824.92 1120.64 1823.76 1120.3 1822.16 1120.3H1818.47V1116.72H1822.01C1823.48 1116.72 1824.55 1116.39 1825.24 1115.74C1825.95 1115.08 1826.3 1114.11 1826.3 1112.85V1112.24C1826.3 1111.1 1825.94 1110.21 1825.2 1109.58C1824.47 1108.92 1823.34 1108.59 1821.82 1108.59C1820.48 1108.59 1819.35 1108.85 1818.44 1109.35C1817.55 1109.86 1816.78 1110.53 1816.12 1111.37L1813.38 1109.05C1814.4 1107.76 1815.59 1106.77 1816.95 1106.08C1818.32 1105.37 1820.03 1105.02 1822.08 1105.02C1824.9 1105.02 1827.04 1105.67 1828.51 1106.96C1830 1108.22 1830.75 1109.95 1830.75 1112.13C1830.75 1113.06 1830.61 1113.89 1830.33 1114.6C1830.08 1115.28 1829.71 1115.88 1829.23 1116.38C1828.77 1116.86 1828.22 1117.26 1827.56 1117.56C1826.92 1117.86 1826.24 1118.08 1825.5 1118.21V1118.4C1826.32 1118.47 1827.06 1118.65 1827.75 1118.93C1828.46 1119.21 1829.06 1119.6 1829.57 1120.11C1830.1 1120.59 1830.52 1121.2 1830.82 1121.93C1831.13 1122.64 1831.28 1123.49 1831.28 1124.48C1831.28 1125.67 1831.05 1126.76 1830.6 1127.74C1830.17 1128.71 1829.55 1129.54 1828.73 1130.25C1827.92 1130.94 1826.92 1131.48 1825.73 1131.89C1824.57 1132.27 1823.26 1132.46 1821.82 1132.46ZM1845.33 1132.46C1843.65 1132.46 1842.2 1132.15 1840.96 1131.54C1839.74 1130.91 1838.73 1130.01 1837.92 1128.85C1837.13 1127.68 1836.55 1126.25 1836.17 1124.55C1835.79 1122.85 1835.6 1120.92 1835.6 1118.74C1835.6 1116.58 1835.79 1114.66 1836.17 1112.96C1836.55 1111.24 1837.13 1109.8 1837.92 1108.63C1838.73 1107.46 1839.74 1106.58 1840.96 1105.97C1842.2 1105.34 1843.65 1105.02 1845.33 1105.02C1847 1105.02 1848.44 1105.34 1849.66 1105.97C1850.9 1106.58 1851.91 1107.46 1852.7 1108.63C1853.51 1109.8 1854.1 1111.24 1854.48 1112.96C1854.86 1114.66 1855.05 1116.58 1855.05 1118.74C1855.05 1120.92 1854.86 1122.85 1854.48 1124.55C1854.1 1126.25 1853.51 1127.68 1852.7 1128.85C1851.91 1130.01 1850.9 1130.91 1849.66 1131.54C1848.44 1132.15 1847 1132.46 1845.33 1132.46ZM1845.33 1128.96C1847.25 1128.96 1848.62 1128.25 1849.43 1126.83C1850.27 1125.39 1850.68 1123.45 1850.68 1121.02V1116.46C1850.68 1114.03 1850.27 1112.1 1849.43 1110.68C1848.62 1109.24 1847.25 1108.52 1845.33 1108.52C1844.36 1108.52 1843.54 1108.71 1842.86 1109.09C1842.17 1109.44 1841.61 1109.97 1841.18 1110.68C1840.75 1111.37 1840.44 1112.2 1840.23 1113.19C1840.06 1114.15 1839.97 1115.24 1839.97 1116.46V1121.02C1839.97 1122.23 1840.06 1123.34 1840.23 1124.32C1840.44 1125.29 1840.75 1126.12 1841.18 1126.83C1841.61 1127.52 1842.17 1128.05 1842.86 1128.43C1843.54 1128.78 1844.36 1128.96 1845.33 1128.96ZM1845.33 1120.98C1844.44 1120.98 1843.82 1120.8 1843.46 1120.45C1843.13 1120.09 1842.97 1119.66 1842.97 1119.16V1118.32C1842.97 1117.81 1843.13 1117.38 1843.46 1117.03C1843.82 1116.67 1844.44 1116.5 1845.33 1116.5C1846.21 1116.5 1846.82 1116.67 1847.15 1117.03C1847.5 1117.38 1847.68 1117.81 1847.68 1118.32V1119.16C1847.68 1119.66 1847.5 1120.09 1847.15 1120.45C1846.82 1120.8 1846.21 1120.98 1845.33 1120.98ZM1877.5 1115.36C1877.5 1117.28 1877.21 1119.09 1876.62 1120.79C1876.04 1122.49 1875.28 1124.05 1874.34 1125.46C1873.41 1126.88 1872.37 1128.15 1871.23 1129.26C1870.09 1130.38 1868.96 1131.29 1867.84 1132H1862.14C1863.66 1130.91 1865.03 1129.86 1866.25 1128.85C1867.46 1127.83 1868.52 1126.79 1869.4 1125.73C1870.31 1124.67 1871.07 1123.55 1871.68 1122.39C1872.29 1121.2 1872.76 1119.88 1873.09 1118.43L1872.82 1118.36C1872.54 1118.89 1872.21 1119.4 1871.83 1119.88C1871.45 1120.33 1871.01 1120.74 1870.5 1121.09C1870 1121.45 1869.42 1121.73 1868.76 1121.93C1868.1 1122.13 1867.35 1122.23 1866.51 1122.23C1865.37 1122.23 1864.32 1122.04 1863.36 1121.66C1862.4 1121.28 1861.56 1120.74 1860.85 1120.03C1860.14 1119.3 1859.59 1118.42 1859.18 1117.41C1858.8 1116.39 1858.61 1115.25 1858.61 1113.99C1858.61 1112.67 1858.83 1111.47 1859.26 1110.38C1859.71 1109.26 1860.35 1108.31 1861.16 1107.53C1861.99 1106.74 1862.99 1106.13 1864.16 1105.7C1865.32 1105.25 1866.62 1105.02 1868.03 1105.02C1869.5 1105.02 1870.82 1105.26 1871.99 1105.74C1873.18 1106.22 1874.18 1106.92 1874.99 1107.83C1875.8 1108.72 1876.42 1109.8 1876.85 1111.06C1877.28 1112.33 1877.5 1113.76 1877.5 1115.36ZM1868.07 1118.85C1869.67 1118.85 1870.91 1118.42 1871.8 1117.56C1872.68 1116.67 1873.13 1115.43 1873.13 1113.84V1113.46C1873.13 1111.86 1872.68 1110.63 1871.8 1109.77C1870.91 1108.88 1869.67 1108.44 1868.07 1108.44C1866.45 1108.44 1865.2 1108.88 1864.31 1109.77C1863.42 1110.63 1862.98 1111.86 1862.98 1113.46V1113.84C1862.98 1115.43 1863.42 1116.67 1864.31 1117.56C1865.2 1118.42 1866.45 1118.85 1868.07 1118.85Z" fill="#D9D9D9"/>
</svg>
