<svg width="1068" height="704" viewBox="0 0 1068 704" fill="none" xmlns="http://www.w3.org/2000/svg">
<rect x="6" y="10.0844" width="1050.85" height="686.383" fill="white"/>
<path d="M156.309 697.549H6.48682V6.00073H156.309M156.309 697.549V6.00073M156.309 697.549H306.132M156.309 6.00073H306.132M306.132 6.00073V697.549M306.132 6.00073H460.637M306.132 697.549H460.637M460.637 697.549V6.00073M460.637 697.549H610.459M460.637 6.00073H610.459M610.459 697.549V6.00073M610.459 697.549H761.843M610.459 6.00073H761.843M761.843 697.549V6.00073M761.843 697.549H911.665M761.843 6.00073H911.665M911.665 697.549H1061.49V6.00073H911.665M911.665 697.549V6.00073" stroke="#3E3E3E" stroke-width="12"/>
<rect x="6" y="11" width="1056" height="686.553" stroke="#3E3E3E" stroke-width="12"/>
<rect x="109.312" y="5" width="92.9806" height="412.971" fill="#3E3E3E"/>
<rect x="262.212" y="5" width="94.0137" height="412.971" fill="#3E3E3E"/>
<rect x="564.916" y="5" width="94.0137" height="412.971" fill="#3E3E3E"/>
<rect x="714.718" y="5" width="94.0137" height="412.971" fill="#3E3E3E"/>
<rect x="868.652" y="5" width="92.9806" height="412.971" fill="#3E3E3E"/>
</svg>
