<svg width="111" height="214" viewBox="0 0 111 214" fill="none" xmlns="http://www.w3.org/2000/svg">
<path fill-rule="evenodd" clip-rule="evenodd" d="M7.92884e-07 200.995L0 213.996C0.332989 213.999 0.666331 214 1.00002 214C61.7513 214 111 166.094 111 107C111 47.9055 61.7513 -2.62467e-06 1.00001 0C0.666329 1.44165e-08 0.332995 0.00144527 1.3051e-05 0.00432967L1.22581e-05 13.0049C0.332925 13.0016 0.666261 13 1.00001 13C54.9128 13 98 55.4217 98 107C98 158.578 54.9128 201 1.00002 201C0.666263 201 0.332921 200.998 7.92884e-07 200.995Z" fill="#363535"/>
</svg>
