<svg width="113" height="120" viewBox="0 0 113 120" fill="none" xmlns="http://www.w3.org/2000/svg">
<path d="M106.764 69.2368L106.764 97.6579M77.7637 6.00001C83.5638 16.2316 99.514 23.0527 106.764 25.1842L106.764 97.6579M77.7637 6.00001L46.3464 6.00001M77.7637 6.00001L77.7637 81.3158M46.3464 6.00001C39.3648 12.3947 21.6959 25.1842 6.87344 25.1842L6.87344 69.5921L6.87344 97.6579M46.3464 6.00001L46.3464 81.3158M6.87344 97.6579L6.87344 114L106.764 114L106.764 97.6579M6.87344 97.6579C20.0311 98.3684 46.3464 96.0947 46.3464 81.3158M46.3464 81.3158L77.7637 81.3158M77.7637 81.3158C82.3286 86.7632 94.5195 97.6579 106.764 97.6579" stroke="#3E3E3E" stroke-width="12"/>
</svg>
