<svg width="1920" height="1165" viewBox="0 0 1920 1165" fill="none" xmlns="http://www.w3.org/2000/svg">
<rect x="6" y="6" width="1908" height="1072" fill="white" stroke="#3E3E3E" stroke-width="12"/>
<rect x="489" y="173" width="942" height="861" rx="6" fill="#D9D9D9" stroke="#3E3E3E" stroke-width="12"/>
<rect x="533.069" y="49.9229" width="83" height="80" rx="6" fill="#A214DF" stroke="#3E3E3E" stroke-width="12"/>
<rect x="684.069" y="49.9229" width="82" height="80" rx="6" fill="#EC008C" stroke="#3E3E3E" stroke-width="12"/>
<rect x="834.069" y="49.9229" width="82" height="80" rx="6" fill="#00AEEF" stroke="#3E3E3E" stroke-width="12"/>
<rect x="984.069" y="49.9229" width="83" height="80" rx="6" fill="#FFF200" stroke="#3E3E3E" stroke-width="12"/>
<rect x="1135.07" y="49.9229" width="83" height="80" rx="6" fill="#DF5B14" stroke="#3E3E3E" stroke-width="12"/>
<rect x="1558" y="260" width="228.241" height="150.537" rx="18" fill="#D9D9D9" stroke="#3E3E3E" stroke-width="12"/>
<rect x="1558" y="453" width="228.241" height="150.537" rx="18" fill="#D9D9D9" stroke="#3E3E3E" stroke-width="12"/>
<path d="M1649.66 493.061L1649.66 571.477" stroke="#3E3E3E" stroke-width="24" stroke-linecap="round"/>
<path d="M1694.58 493.061L1694.58 571.477" stroke="#3E3E3E" stroke-width="24" stroke-linecap="round"/>
<rect x="1558" y="625" width="228.241" height="150.537" rx="18" fill="#D9D9D9" stroke="#3E3E3E" stroke-width="12"/>
<path d="M1701.62 690.608C1709.62 695.226 1709.62 706.774 1701.62 711.392L1665.62 732.177C1657.62 736.796 1647.62 731.022 1647.62 721.785V680.215C1647.62 670.978 1657.62 665.204 1665.62 669.823L1701.62 690.608Z" fill="#3E3E3E"/>
<rect x="1558" y="796" width="228.241" height="150.537" rx="18" fill="#D9D9D9" stroke="#3E3E3E" stroke-width="12"/>
<rect x="1637.54" y="836.338" width="69.1495" height="69.1495" rx="12" fill="#3E3E3E"/>
<path d="M1630.5 351.3H1618.3V342.9H1632L1634 331.3H1622V322.9H1635.5L1639.2 302.2H1648.3L1636 372H1626.9L1630.5 351.3ZM1658 302.2H1667.1L1663.5 322.9H1675.7V331.3H1662L1660 342.9H1672V351.3H1658.5L1654.8 372H1645.7L1658 302.2ZM1685.76 372V362.7H1705.36V310.4H1704.56L1688.36 327.7L1681.46 321.5L1699.26 302.2H1716.56V362.7H1733.46V372H1685.76Z" fill="#3E3E3E"/>
<rect x="100" y="790" width="312" height="156" rx="6" fill="#D9D9D9" stroke="#3E3E3E" stroke-width="12"/>
<rect y="1070" width="1920" height="95" fill="#3E3E3E"/>
<path d="M52.91 1119.31L53.024 1111.33H52.72L47.4 1124.97L42.08 1111.33H41.776L41.89 1119.31V1132H38.128V1105.48H43.334L47.4 1116H47.666L51.77 1105.48H56.672V1132H52.91V1119.31ZM77.4812 1132C76.2905 1132 75.3912 1131.7 74.7832 1131.09C74.2005 1130.48 73.8458 1129.68 73.7192 1128.69H73.5292C73.1492 1129.88 72.4525 1130.81 71.4392 1131.47C70.4512 1132.13 69.1845 1132.46 67.6392 1132.46C65.6378 1132.46 64.0418 1131.94 62.8512 1130.9C61.6605 1129.83 61.0652 1128.38 61.0652 1126.53C61.0652 1124.63 61.7618 1123.18 63.1552 1122.2C64.5738 1121.18 66.7398 1120.68 69.6532 1120.68H73.4152V1119.16C73.4152 1116.5 72.0092 1115.17 69.1972 1115.17C67.9305 1115.17 66.9045 1115.42 66.1192 1115.93C65.3338 1116.41 64.6752 1117.05 64.1432 1117.86L61.6732 1115.85C62.2305 1114.79 63.1678 1113.87 64.4852 1113.11C65.8025 1112.33 67.4998 1111.94 69.5772 1111.94C72.0598 1111.94 74.0105 1112.53 75.4292 1113.72C76.8478 1114.91 77.5572 1116.64 77.5572 1118.89V1128.73H80.0272V1132H77.4812ZM68.8172 1129.42C70.1598 1129.42 71.2618 1129.11 72.1232 1128.5C72.9845 1127.9 73.4152 1127.11 73.4152 1126.15V1123.3H69.7292C66.7398 1123.3 65.2452 1124.2 65.2452 1126V1126.76C65.2452 1127.64 65.5618 1128.31 66.1952 1128.77C66.8285 1129.2 67.7025 1129.42 68.8172 1129.42ZM84.5723 1112.39H88.7143V1115.74H88.9423C89.525 1114.55 90.2976 1113.62 91.2603 1112.96C92.223 1112.28 93.4263 1111.94 94.8703 1111.94C97.1756 1111.94 99.0123 1112.8 100.38 1114.52C101.748 1116.24 102.432 1118.8 102.432 1122.2C102.432 1125.59 101.748 1128.15 100.38 1129.87C99.0123 1131.59 97.1756 1132.46 94.8703 1132.46C93.4263 1132.46 92.223 1132.13 91.2603 1131.47C90.2976 1130.78 89.525 1129.85 88.9423 1128.66H88.7143V1139.6H84.5723V1112.39ZM93.1603 1129.07C94.731 1129.07 95.9343 1128.59 96.7703 1127.63C97.6316 1126.67 98.0623 1125.39 98.0623 1123.79V1120.6C98.0623 1119 97.6316 1117.72 96.7703 1116.76C95.9343 1115.8 94.731 1115.32 93.1603 1115.32C92.5523 1115.32 91.9823 1115.39 91.4503 1115.55C90.9183 1115.7 90.4496 1115.93 90.0443 1116.23C89.639 1116.53 89.3096 1116.91 89.0563 1117.37C88.8283 1117.8 88.7143 1118.32 88.7143 1118.93V1125.46C88.7143 1126.07 88.8283 1126.6 89.0563 1127.06C89.3096 1127.49 89.639 1127.86 90.0443 1128.16C90.4496 1128.47 90.9183 1128.69 91.4503 1128.85C91.9823 1129 92.5523 1129.07 93.1603 1129.07ZM113.665 1115.74H106.787V1112.39H124.723V1115.74H117.807V1132H113.665V1115.74ZM128.813 1112.39H132.575V1118.85H135.349C137.35 1118.85 138.959 1119.42 140.175 1120.56C141.416 1121.7 142.037 1123.32 142.037 1125.43C142.037 1127.53 141.416 1129.15 140.175 1130.29C138.959 1131.43 137.35 1132 135.349 1132H128.813V1112.39ZM135.083 1128.88C136.045 1128.88 136.793 1128.67 137.325 1128.24C137.882 1127.78 138.161 1127.07 138.161 1126.11V1124.74C138.161 1123.78 137.882 1123.08 137.325 1122.65C136.793 1122.2 136.045 1121.97 135.083 1121.97H132.575V1128.88H135.083ZM144.507 1112.39H148.269V1132H144.507V1112.39ZM153.118 1112.39H157.26V1120.3H165.392V1112.39H169.534V1132H165.392V1123.64H157.26V1132H153.118V1112.39ZM184.111 1132.46C182.667 1132.46 181.362 1132.22 180.197 1131.73C179.057 1131.25 178.082 1130.57 177.271 1129.68C176.486 1128.8 175.878 1127.72 175.447 1126.45C175.016 1125.19 174.801 1123.77 174.801 1122.2C174.801 1120.63 175.016 1119.21 175.447 1117.94C175.878 1116.67 176.486 1115.6 177.271 1114.71C178.082 1113.82 179.057 1113.14 180.197 1112.66C181.362 1112.18 182.667 1111.94 184.111 1111.94C185.555 1111.94 186.847 1112.18 187.987 1112.66C189.152 1113.14 190.128 1113.82 190.913 1114.71C191.724 1115.6 192.344 1116.67 192.775 1117.94C193.206 1119.21 193.421 1120.63 193.421 1122.2C193.421 1123.77 193.206 1125.19 192.775 1126.45C192.344 1127.72 191.724 1128.8 190.913 1129.68C190.128 1130.57 189.152 1131.25 187.987 1131.73C186.847 1132.22 185.555 1132.46 184.111 1132.46ZM184.111 1129.19C185.631 1129.19 186.834 1128.73 187.721 1127.82C188.633 1126.88 189.089 1125.5 189.089 1123.68V1120.71C189.089 1118.89 188.633 1117.52 187.721 1116.61C186.834 1115.67 185.631 1115.2 184.111 1115.2C182.591 1115.2 181.375 1115.67 180.463 1116.61C179.576 1117.52 179.133 1118.89 179.133 1120.71V1123.68C179.133 1125.5 179.576 1126.88 180.463 1127.82C181.375 1128.73 182.591 1129.19 184.111 1129.19ZM199.106 1112.39H209.632C211.329 1112.39 212.647 1112.85 213.584 1113.76C214.521 1114.65 214.99 1115.84 214.99 1117.33C214.99 1119.76 213.66 1121.18 211 1121.59V1121.78C212.621 1121.9 213.812 1122.37 214.572 1123.18C215.332 1123.97 215.712 1125.01 215.712 1126.3C215.712 1127.09 215.573 1127.82 215.294 1128.5C215.041 1129.19 214.661 1129.8 214.154 1130.33C213.647 1130.83 213.014 1131.24 212.254 1131.54C211.519 1131.85 210.683 1132 209.746 1132H199.106V1112.39ZM208.872 1128.88C209.683 1128.88 210.316 1128.69 210.772 1128.31C211.228 1127.91 211.456 1127.34 211.456 1126.6V1125.69C211.456 1124.96 211.228 1124.39 210.772 1123.98C210.341 1123.58 209.759 1123.37 209.024 1123.37H203.248V1128.88H208.872ZM208.492 1120.6C209.176 1120.6 209.721 1120.41 210.126 1120.03C210.531 1119.65 210.734 1119.13 210.734 1118.47V1117.64C210.734 1116.98 210.531 1116.46 210.126 1116.08C209.721 1115.7 209.176 1115.51 208.492 1115.51H203.248V1120.6H208.492ZM236.977 1132C235.787 1132 234.887 1131.7 234.279 1131.09C233.697 1130.48 233.342 1129.68 233.215 1128.69H233.025C232.645 1129.88 231.949 1130.81 230.935 1131.47C229.947 1132.13 228.681 1132.46 227.135 1132.46C225.134 1132.46 223.538 1131.94 222.347 1130.9C221.157 1129.83 220.561 1128.38 220.561 1126.53C220.561 1124.63 221.258 1123.18 222.651 1122.2C224.07 1121.18 226.236 1120.68 229.149 1120.68H232.911V1119.16C232.911 1116.5 231.505 1115.17 228.693 1115.17C227.427 1115.17 226.401 1115.42 225.615 1115.93C224.83 1116.41 224.171 1117.05 223.639 1117.86L221.169 1115.85C221.727 1114.79 222.664 1113.87 223.981 1113.11C225.299 1112.33 226.996 1111.94 229.073 1111.94C231.556 1111.94 233.507 1112.53 234.925 1113.72C236.344 1114.91 237.053 1116.64 237.053 1118.89V1128.73H239.523V1132H236.977ZM228.313 1129.42C229.656 1129.42 230.758 1129.11 231.619 1128.5C232.481 1127.9 232.911 1127.11 232.911 1126.15V1123.3H229.225C226.236 1123.3 224.741 1124.2 224.741 1126V1126.76C224.741 1127.64 225.058 1128.31 225.691 1128.77C226.325 1129.2 227.199 1129.42 228.313 1129.42ZM281.408 1132L279.394 1124.93H270.958L268.944 1132H264.612L272.364 1105.48H278.178L285.93 1132H281.408ZM275.328 1109.77H275.024L271.756 1121.4H278.596L275.328 1109.77ZM287.549 1128.66H290.095C290.424 1128.23 290.715 1127.73 290.969 1127.17C291.247 1126.59 291.463 1125.89 291.615 1125.08C291.792 1124.27 291.919 1123.34 291.995 1122.27C292.096 1121.21 292.147 1119.97 292.147 1118.55V1112.39H306.017V1132H301.875V1115.74H296.023V1118.62C296.023 1121.94 295.782 1124.54 295.301 1126.41C294.819 1128.29 294.161 1129.66 293.325 1130.52C292.742 1131.13 292.071 1131.53 291.311 1131.73C290.551 1131.91 289.753 1132 288.917 1132H287.549V1128.66ZM312.576 1112.39H316.68V1120.83L316.3 1126.15H316.49L325.154 1112.39H329.068V1132H324.964V1123.56L325.344 1118.24H325.154L316.49 1132H312.576V1112.39ZM344.329 1132.46C342.86 1132.46 341.542 1132.22 340.377 1131.73C339.237 1131.25 338.262 1130.57 337.451 1129.68C336.666 1128.8 336.058 1127.72 335.627 1126.45C335.222 1125.19 335.019 1123.77 335.019 1122.2C335.019 1120.63 335.222 1119.21 335.627 1117.94C336.058 1116.67 336.666 1115.6 337.451 1114.71C338.262 1113.82 339.237 1113.14 340.377 1112.66C341.542 1112.18 342.847 1111.94 344.291 1111.94C346.318 1111.94 347.939 1112.37 349.155 1113.23C350.396 1114.09 351.321 1115.2 351.929 1116.57L348.699 1118.32C348.344 1117.41 347.8 1116.69 347.065 1116.15C346.356 1115.62 345.431 1115.36 344.291 1115.36C342.72 1115.36 341.504 1115.84 340.643 1116.8C339.782 1117.74 339.351 1118.99 339.351 1120.56V1123.83C339.351 1125.38 339.782 1126.63 340.643 1127.59C341.504 1128.55 342.746 1129.04 344.367 1129.04C345.583 1129.04 346.571 1128.76 347.331 1128.2C348.116 1127.64 348.737 1126.88 349.193 1125.92L352.233 1127.78C351.6 1129.15 350.637 1130.28 349.345 1131.16C348.053 1132.03 346.381 1132.46 344.329 1132.46ZM373.688 1132C372.498 1132 371.598 1131.7 370.99 1131.09C370.408 1130.48 370.053 1129.68 369.926 1128.69H369.736C369.356 1129.88 368.66 1130.81 367.646 1131.47C366.658 1132.13 365.392 1132.46 363.846 1132.46C361.845 1132.46 360.249 1131.94 359.058 1130.9C357.868 1129.83 357.272 1128.38 357.272 1126.53C357.272 1124.63 357.969 1123.18 359.362 1122.2C360.781 1121.18 362.947 1120.68 365.86 1120.68H369.622V1119.16C369.622 1116.5 368.216 1115.17 365.404 1115.17C364.138 1115.17 363.112 1115.42 362.326 1115.93C361.541 1116.41 360.882 1117.05 360.35 1117.86L357.88 1115.85C358.438 1114.79 359.375 1113.87 360.692 1113.11C362.01 1112.33 363.707 1111.94 365.784 1111.94C368.267 1111.94 370.218 1112.53 371.636 1113.72C373.055 1114.91 373.764 1116.64 373.764 1118.89V1128.73H376.234V1132H373.688ZM365.024 1129.42C366.367 1129.42 367.469 1129.11 368.33 1128.5C369.192 1127.9 369.622 1127.11 369.622 1126.15V1123.3H365.936C362.947 1123.3 361.452 1124.2 361.452 1126V1126.76C361.452 1127.64 361.769 1128.31 362.402 1128.77C363.036 1129.2 363.91 1129.42 365.024 1129.42Z" fill="#D9D9D9"/>
<path d="M1722.93 1105.48H1738.47V1109.05H1727.18V1116.04H1733.03C1735.47 1116.04 1737.35 1116.74 1738.7 1118.13C1740.06 1119.52 1740.75 1121.49 1740.75 1124.02C1740.75 1126.55 1740.06 1128.52 1738.7 1129.91C1737.35 1131.3 1735.47 1132 1733.03 1132H1722.93V1105.48ZM1732.54 1128.5C1733.71 1128.5 1734.62 1128.21 1735.28 1127.63C1735.93 1127.02 1736.26 1126.11 1736.26 1124.89V1123.15C1736.26 1121.93 1735.93 1121.03 1735.28 1120.45C1734.62 1119.84 1733.71 1119.54 1732.54 1119.54H1727.18V1128.5H1732.54ZM1763.5 1132H1745.18V1127.93L1753.84 1120.37C1755.21 1119.16 1756.26 1118 1757 1116.91C1757.76 1115.82 1758.14 1114.67 1758.14 1113.46V1113.04C1758.14 1111.64 1757.76 1110.58 1757 1109.85C1756.24 1109.09 1755.14 1108.71 1753.69 1108.71C1752.22 1108.71 1751.08 1109.1 1750.27 1109.88C1749.49 1110.67 1748.92 1111.67 1748.56 1112.89L1744.84 1111.48C1745.09 1110.64 1745.46 1109.85 1745.94 1109.09C1746.42 1108.3 1747.03 1107.6 1747.76 1107C1748.52 1106.39 1749.41 1105.91 1750.42 1105.55C1751.46 1105.2 1752.65 1105.02 1754 1105.02C1755.36 1105.02 1756.58 1105.22 1757.64 1105.63C1758.73 1106.01 1759.64 1106.54 1760.38 1107.22C1761.11 1107.91 1761.67 1108.73 1762.05 1109.69C1762.43 1110.63 1762.62 1111.67 1762.62 1112.81C1762.62 1113.87 1762.46 1114.86 1762.13 1115.77C1761.82 1116.66 1761.38 1117.52 1760.8 1118.36C1760.24 1119.17 1759.57 1119.95 1758.78 1120.71C1758 1121.47 1757.14 1122.23 1756.2 1122.99L1749.78 1128.39H1763.5V1132ZM1779.33 1132V1126.83H1766.71V1123.18L1777.81 1105.48H1783.39V1123.49H1787.12V1126.83H1783.39V1132H1779.33ZM1770.32 1123.49H1779.33V1109.39H1779.1L1770.32 1123.49ZM1788.85 1128.43H1790.94C1791.45 1127.74 1791.9 1126.95 1792.31 1126.03C1792.71 1125.12 1793.05 1124.05 1793.33 1122.8C1793.64 1121.54 1793.87 1120.11 1794.02 1118.51C1794.17 1116.91 1794.25 1115.09 1794.25 1113.04V1105.48H1807.51V1128.43H1810.36V1137.7H1806.44V1132H1792.8V1137.7H1788.85V1128.43ZM1803.33 1109.05H1798.16V1113.53C1798.16 1117.43 1797.91 1120.57 1797.4 1122.96C1796.92 1125.31 1796.27 1127.14 1795.46 1128.43H1803.33V1109.05ZM1821.82 1132.46C1819.64 1132.46 1817.8 1132.05 1816.31 1131.24C1814.81 1130.43 1813.59 1129.4 1812.62 1128.16L1815.36 1125.5C1817.16 1127.76 1819.34 1128.88 1821.89 1128.88C1823.41 1128.88 1824.61 1128.52 1825.47 1127.78C1826.35 1127.05 1826.8 1126.03 1826.8 1124.74V1124.1C1826.8 1122.91 1826.42 1121.98 1825.66 1121.32C1824.92 1120.64 1823.76 1120.3 1822.16 1120.3H1818.47V1116.72H1822.01C1823.48 1116.72 1824.55 1116.39 1825.24 1115.74C1825.95 1115.08 1826.3 1114.11 1826.3 1112.85V1112.24C1826.3 1111.1 1825.94 1110.21 1825.2 1109.58C1824.47 1108.92 1823.34 1108.59 1821.82 1108.59C1820.48 1108.59 1819.35 1108.85 1818.44 1109.35C1817.55 1109.86 1816.78 1110.53 1816.12 1111.37L1813.38 1109.05C1814.4 1107.76 1815.59 1106.77 1816.95 1106.08C1818.32 1105.37 1820.03 1105.02 1822.08 1105.02C1824.9 1105.02 1827.04 1105.67 1828.51 1106.96C1830 1108.22 1830.75 1109.95 1830.75 1112.13C1830.75 1113.06 1830.61 1113.89 1830.33 1114.6C1830.08 1115.28 1829.71 1115.88 1829.23 1116.38C1828.77 1116.86 1828.22 1117.26 1827.56 1117.56C1826.92 1117.86 1826.24 1118.08 1825.5 1118.21V1118.4C1826.32 1118.47 1827.06 1118.65 1827.75 1118.93C1828.46 1119.21 1829.06 1119.6 1829.57 1120.11C1830.1 1120.59 1830.52 1121.2 1830.82 1121.93C1831.13 1122.64 1831.28 1123.49 1831.28 1124.48C1831.28 1125.67 1831.05 1126.76 1830.6 1127.74C1830.17 1128.71 1829.55 1129.54 1828.73 1130.25C1827.92 1130.94 1826.92 1131.48 1825.73 1131.89C1824.57 1132.27 1823.26 1132.46 1821.82 1132.46ZM1845.33 1132.46C1843.65 1132.46 1842.2 1132.15 1840.96 1131.54C1839.74 1130.91 1838.73 1130.01 1837.92 1128.85C1837.13 1127.68 1836.55 1126.25 1836.17 1124.55C1835.79 1122.85 1835.6 1120.92 1835.6 1118.74C1835.6 1116.58 1835.79 1114.66 1836.17 1112.96C1836.55 1111.24 1837.13 1109.8 1837.92 1108.63C1838.73 1107.46 1839.74 1106.58 1840.96 1105.97C1842.2 1105.34 1843.65 1105.02 1845.33 1105.02C1847 1105.02 1848.44 1105.34 1849.66 1105.97C1850.9 1106.58 1851.91 1107.46 1852.7 1108.63C1853.51 1109.8 1854.1 1111.24 1854.48 1112.96C1854.86 1114.66 1855.05 1116.58 1855.05 1118.74C1855.05 1120.92 1854.86 1122.85 1854.48 1124.55C1854.1 1126.25 1853.51 1127.68 1852.7 1128.85C1851.91 1130.01 1850.9 1130.91 1849.66 1131.54C1848.44 1132.15 1847 1132.46 1845.33 1132.46ZM1845.33 1128.96C1847.25 1128.96 1848.62 1128.25 1849.43 1126.83C1850.27 1125.39 1850.68 1123.45 1850.68 1121.02V1116.46C1850.68 1114.03 1850.27 1112.1 1849.43 1110.68C1848.62 1109.24 1847.25 1108.52 1845.33 1108.52C1844.36 1108.52 1843.54 1108.71 1842.86 1109.09C1842.17 1109.44 1841.61 1109.97 1841.18 1110.68C1840.75 1111.37 1840.44 1112.2 1840.23 1113.19C1840.06 1114.15 1839.97 1115.24 1839.97 1116.46V1121.02C1839.97 1122.23 1840.06 1123.34 1840.23 1124.32C1840.44 1125.29 1840.75 1126.12 1841.18 1126.83C1841.61 1127.52 1842.17 1128.05 1842.86 1128.43C1843.54 1128.78 1844.36 1128.96 1845.33 1128.96ZM1845.33 1120.98C1844.44 1120.98 1843.82 1120.8 1843.46 1120.45C1843.13 1120.09 1842.97 1119.66 1842.97 1119.16V1118.32C1842.97 1117.81 1843.13 1117.38 1843.46 1117.03C1843.82 1116.67 1844.44 1116.5 1845.33 1116.5C1846.21 1116.5 1846.82 1116.67 1847.15 1117.03C1847.5 1117.38 1847.68 1117.81 1847.68 1118.32V1119.16C1847.68 1119.66 1847.5 1120.09 1847.15 1120.45C1846.82 1120.8 1846.21 1120.98 1845.33 1120.98ZM1877.5 1115.36C1877.5 1117.28 1877.21 1119.09 1876.62 1120.79C1876.04 1122.49 1875.28 1124.05 1874.34 1125.46C1873.41 1126.88 1872.37 1128.15 1871.23 1129.26C1870.09 1130.38 1868.96 1131.29 1867.84 1132H1862.14C1863.66 1130.91 1865.03 1129.86 1866.25 1128.85C1867.46 1127.83 1868.52 1126.79 1869.4 1125.73C1870.31 1124.67 1871.07 1123.55 1871.68 1122.39C1872.29 1121.2 1872.76 1119.88 1873.09 1118.43L1872.82 1118.36C1872.54 1118.89 1872.21 1119.4 1871.83 1119.88C1871.45 1120.33 1871.01 1120.74 1870.5 1121.09C1870 1121.45 1869.42 1121.73 1868.76 1121.93C1868.1 1122.13 1867.35 1122.23 1866.51 1122.23C1865.37 1122.23 1864.32 1122.04 1863.36 1121.66C1862.4 1121.28 1861.56 1120.74 1860.85 1120.03C1860.14 1119.3 1859.59 1118.42 1859.18 1117.41C1858.8 1116.39 1858.61 1115.25 1858.61 1113.99C1858.61 1112.67 1858.83 1111.47 1859.26 1110.38C1859.71 1109.26 1860.35 1108.31 1861.16 1107.53C1861.99 1106.74 1862.99 1106.13 1864.16 1105.7C1865.32 1105.25 1866.62 1105.02 1868.03 1105.02C1869.5 1105.02 1870.82 1105.26 1871.99 1105.74C1873.18 1106.22 1874.18 1106.92 1874.99 1107.83C1875.8 1108.72 1876.42 1109.8 1876.85 1111.06C1877.28 1112.33 1877.5 1113.76 1877.5 1115.36ZM1868.07 1118.85C1869.67 1118.85 1870.91 1118.42 1871.8 1117.56C1872.68 1116.67 1873.13 1115.43 1873.13 1113.84V1113.46C1873.13 1111.86 1872.68 1110.63 1871.8 1109.77C1870.91 1108.88 1869.67 1108.44 1868.07 1108.44C1866.45 1108.44 1865.2 1108.88 1864.31 1109.77C1863.42 1110.63 1862.98 1111.86 1862.98 1113.46V1113.84C1862.98 1115.43 1863.42 1116.67 1864.31 1117.56C1865.2 1118.42 1866.45 1118.85 1868.07 1118.85Z" fill="#D9D9D9"/>
<path d="M131.656 818.248H134.296V825.736L133.96 830.464H134.128L140.2 818.248H142.744V835H140.104V827.512L140.44 822.784H140.272L134.2 835H131.656V818.248ZM155.071 826.984L155.143 821.944H154.951L151.591 830.56L148.231 821.944H148.039L148.111 826.984V835H145.735V818.248H149.023L151.591 824.896H151.759L154.351 818.248H157.447V835H155.071V826.984ZM159.645 832.744H161.109L162.789 829.36C163.029 828.88 163.277 828.536 163.533 828.328C163.805 828.104 164.133 827.96 164.517 827.896V827.752C163.109 827.672 162.053 827.232 161.349 826.432C160.645 825.632 160.293 824.552 160.293 823.192C160.293 821.688 160.717 820.488 161.565 819.592C162.413 818.696 163.613 818.248 165.165 818.248H171.309V835H168.621V828.136H166.365L163.869 833.152C163.517 833.856 163.141 834.344 162.741 834.616C162.357 834.872 161.885 835 161.325 835H159.645V832.744ZM168.621 820.456H165.477C164.725 820.456 164.141 820.648 163.725 821.032C163.325 821.4 163.125 821.968 163.125 822.736V823.672C163.125 824.44 163.325 825.016 163.725 825.4C164.141 825.768 164.725 825.952 165.477 825.952H168.621V820.456ZM180.372 835.24C179.604 835.24 179.06 835.08 178.74 834.76C178.436 834.44 178.284 834.048 178.284 833.584V832.96C178.284 832.496 178.436 832.104 178.74 831.784C179.06 831.464 179.604 831.304 180.372 831.304C181.14 831.304 181.676 831.464 181.98 831.784C182.3 832.104 182.46 832.496 182.46 832.96V833.584C182.46 834.048 182.3 834.44 181.98 834.76C181.676 835.08 181.14 835.24 180.372 835.24ZM180.372 826.312C179.604 826.312 179.06 826.152 178.74 825.832C178.436 825.512 178.284 825.12 178.284 824.656V824.032C178.284 823.568 178.436 823.176 178.74 822.856C179.06 822.536 179.604 822.376 180.372 822.376C181.14 822.376 181.676 822.536 181.98 822.856C182.3 823.176 182.46 823.568 182.46 824.032V824.656C182.46 825.12 182.3 825.512 181.98 825.832C181.676 826.152 181.14 826.312 180.372 826.312ZM200.403 826.984L200.475 821.944H200.283L196.923 830.56L193.563 821.944H193.371L193.442 826.984V835H191.066V818.248H194.354L196.923 824.896H197.091L199.683 818.248H202.779V835H200.403V826.984ZM217.361 835L216.089 830.536H210.761L209.489 835H206.753L211.649 818.248H215.321L220.217 835H217.361ZM213.521 820.96H213.329L211.265 828.304H215.585L213.521 820.96ZM223.136 832.744H224.456C224.776 832.312 225.064 831.808 225.32 831.232C225.576 830.656 225.792 829.976 225.968 829.192C226.16 828.392 226.304 827.488 226.4 826.48C226.496 825.472 226.544 824.32 226.544 823.024V818.248H234.92V832.744H236.72V838.6H234.248V835H225.632V838.6H223.136V832.744ZM232.28 820.504H229.016V823.336C229.016 825.8 228.856 827.784 228.536 829.288C228.232 830.776 227.824 831.928 227.312 832.744H232.28V820.504ZM249.478 820.504H245.638V823.48C245.638 825.048 245.59 826.408 245.494 827.56C245.398 828.712 245.254 829.704 245.062 830.536C244.87 831.352 244.63 832.032 244.342 832.576C244.07 833.104 243.758 833.544 243.406 833.896C242.99 834.296 242.542 834.584 242.062 834.76C241.582 834.92 240.99 835 240.286 835H239.566V832.744H241.198C241.518 832.424 241.798 832.024 242.038 831.544C242.278 831.064 242.47 830.456 242.614 829.72C242.774 828.984 242.894 828.088 242.974 827.032C243.054 825.96 243.094 824.672 243.094 823.168V818.248H252.166V835H249.478V820.504ZM257.989 835V818.248H268.477V820.504H260.677V825.376H268.189V827.632H260.677V832.744H268.477V835H257.989ZM282.46 827.632H276.892V835H274.204V818.248H276.892V825.376H282.46V818.248H285.148V835H282.46V827.632Z" fill="#363535"/>
<path d="M131.992 859.248H137.776C139.296 859.248 140.472 859.64 141.304 860.424C142.152 861.208 142.576 862.28 142.576 863.64C142.576 864.616 142.336 865.392 141.856 865.968C141.376 866.544 140.728 866.952 139.912 867.192V867.312C140.888 867.536 141.672 867.968 142.264 868.608C142.856 869.232 143.152 870.12 143.152 871.272C143.152 871.96 143.04 872.592 142.816 873.168C142.592 873.744 142.272 874.248 141.856 874.68C141.44 875.096 140.936 875.424 140.344 875.664C139.768 875.888 139.128 876 138.424 876H131.992V859.248ZM137.608 873.936C138.504 873.936 139.192 873.752 139.672 873.384C140.152 873.016 140.392 872.424 140.392 871.608V870.744C140.392 869.928 140.152 869.336 139.672 868.968C139.192 868.6 138.504 868.416 137.608 868.416H134.632V873.936H137.608ZM137.224 866.448C138.072 866.448 138.712 866.288 139.144 865.968C139.592 865.632 139.816 865.08 139.816 864.312V863.448C139.816 862.68 139.592 862.136 139.144 861.816C138.712 861.48 138.072 861.312 137.224 861.312H134.632V866.448H137.224ZM146.407 876V859.248H152.671C154.271 859.248 155.487 859.696 156.319 860.592C157.167 861.488 157.591 862.72 157.591 864.288C157.591 865.856 157.167 867.088 156.319 867.984C155.487 868.88 154.271 869.328 152.671 869.328H149.095V876H146.407ZM149.095 867.096H152.263C153.927 867.096 154.759 866.328 154.759 864.792V863.76C154.759 862.24 153.927 861.48 152.263 861.48H149.095V867.096ZM160.845 876V859.248H171.333V861.504H163.533V866.376H171.045V868.632H163.533V873.744H171.333V876H160.845ZM183.852 867.984L183.924 862.944H183.732L180.372 871.56L177.012 862.944H176.82L176.892 867.984V876H174.516V859.248H177.804L180.372 865.896H180.54L183.132 859.248H186.228V876H183.852V867.984ZM188.427 873.744H189.891L191.571 870.36C191.811 869.88 192.059 869.536 192.315 869.328C192.587 869.104 192.915 868.96 193.299 868.896V868.752C191.891 868.672 190.835 868.232 190.131 867.432C189.427 866.632 189.075 865.552 189.075 864.192C189.075 862.688 189.499 861.488 190.347 860.592C191.195 859.696 192.395 859.248 193.947 859.248H200.091V876H197.403V869.136H195.147L192.651 874.152C192.299 874.856 191.923 875.344 191.523 875.616C191.139 875.872 190.667 876 190.107 876H188.427V873.744ZM197.403 861.456H194.259C193.507 861.456 192.923 861.648 192.507 862.032C192.107 862.4 191.907 862.968 191.907 863.736V864.672C191.907 865.44 192.107 866.016 192.507 866.4C192.923 866.768 193.507 866.952 194.259 866.952H197.403V861.456ZM209.153 876.24C208.385 876.24 207.841 876.08 207.521 875.76C207.217 875.44 207.065 875.048 207.065 874.584V873.96C207.065 873.496 207.217 873.104 207.521 872.784C207.841 872.464 208.385 872.304 209.153 872.304C209.921 872.304 210.457 872.464 210.761 872.784C211.081 873.104 211.241 873.496 211.241 873.96V874.584C211.241 875.048 211.081 875.44 210.761 875.76C210.457 876.08 209.921 876.24 209.153 876.24ZM209.153 867.312C208.385 867.312 207.841 867.152 207.521 866.832C207.217 866.512 207.065 866.12 207.065 865.656V865.032C207.065 864.568 207.217 864.176 207.521 863.856C207.841 863.536 208.385 863.376 209.153 863.376C209.921 863.376 210.457 863.536 210.761 863.856C211.081 864.176 211.241 864.568 211.241 865.032V865.656C211.241 866.12 211.081 866.512 210.761 866.832C210.457 867.152 209.921 867.312 209.153 867.312ZM223.544 876.288C222.488 876.288 221.568 876.096 220.784 875.712C220.016 875.312 219.376 874.744 218.864 874.008C218.368 873.272 218 872.368 217.76 871.296C217.52 870.224 217.4 869 217.4 867.624C217.4 866.264 217.52 865.048 217.76 863.976C218 862.888 218.368 861.976 218.864 861.24C219.376 860.504 220.016 859.944 220.784 859.56C221.568 859.16 222.488 858.96 223.544 858.96C224.6 858.96 225.512 859.16 226.28 859.56C227.064 859.944 227.704 860.504 228.2 861.24C228.712 861.976 229.088 862.888 229.328 863.976C229.568 865.048 229.688 866.264 229.688 867.624C229.688 869 229.568 870.224 229.328 871.296C229.088 872.368 228.712 873.272 228.2 874.008C227.704 874.744 227.064 875.312 226.28 875.712C225.512 876.096 224.6 876.288 223.544 876.288ZM223.544 874.08C224.76 874.08 225.624 873.632 226.136 872.736C226.664 871.824 226.928 870.6 226.928 869.064V866.184C226.928 864.648 226.664 863.432 226.136 862.536C225.624 861.624 224.76 861.168 223.544 861.168C222.936 861.168 222.416 861.288 221.984 861.528C221.552 861.752 221.2 862.088 220.928 862.536C220.656 862.968 220.456 863.496 220.328 864.12C220.216 864.728 220.16 865.416 220.16 866.184V869.064C220.16 869.832 220.216 870.528 220.328 871.152C220.456 871.76 220.656 872.288 220.928 872.736C221.2 873.168 221.552 873.504 221.984 873.744C222.416 873.968 222.936 874.08 223.544 874.08ZM223.544 869.04C222.984 869.04 222.592 868.928 222.368 868.704C222.16 868.48 222.056 868.208 222.056 867.888V867.36C222.056 867.04 222.16 866.768 222.368 866.544C222.592 866.32 222.984 866.208 223.544 866.208C224.104 866.208 224.488 866.32 224.696 866.544C224.92 866.768 225.032 867.04 225.032 867.36V867.888C225.032 868.208 224.92 868.48 224.696 868.704C224.488 868.928 224.104 869.04 223.544 869.04ZM232.846 876V873.768H237.55V861.216H237.358L233.47 865.368L231.814 863.88L236.086 859.248H240.238V873.768H244.294V876H232.846ZM252.325 876.24C251.557 876.24 251.013 876.08 250.693 875.76C250.389 875.44 250.237 875.048 250.237 874.584V873.96C250.237 873.496 250.389 873.104 250.693 872.784C251.013 872.464 251.557 872.304 252.325 872.304C253.093 872.304 253.629 872.464 253.933 872.784C254.253 873.104 254.413 873.496 254.413 873.96V874.584C254.413 875.048 254.253 875.44 253.933 875.76C253.629 876.08 253.093 876.24 252.325 876.24ZM252.325 867.312C251.557 867.312 251.013 867.152 250.693 866.832C250.389 866.512 250.237 866.12 250.237 865.656V865.032C250.237 864.568 250.389 864.176 250.693 863.856C251.013 863.536 251.557 863.376 252.325 863.376C253.093 863.376 253.629 863.536 253.933 863.856C254.253 864.176 254.413 864.568 254.413 865.032V865.656C254.413 866.12 254.253 866.512 253.933 866.832C253.629 867.152 253.093 867.312 252.325 867.312ZM266.716 876.288C265.66 876.288 264.74 876.096 263.956 875.712C263.188 875.312 262.548 874.744 262.036 874.008C261.54 873.272 261.172 872.368 260.932 871.296C260.692 870.224 260.572 869 260.572 867.624C260.572 866.264 260.692 865.048 260.932 863.976C261.172 862.888 261.54 861.976 262.036 861.24C262.548 860.504 263.188 859.944 263.956 859.56C264.74 859.16 265.66 858.96 266.716 858.96C267.772 858.96 268.684 859.16 269.452 859.56C270.236 859.944 270.876 860.504 271.372 861.24C271.884 861.976 272.26 862.888 272.5 863.976C272.74 865.048 272.86 866.264 272.86 867.624C272.86 869 272.74 870.224 272.5 871.296C272.26 872.368 271.884 873.272 271.372 874.008C270.876 874.744 270.236 875.312 269.452 875.712C268.684 876.096 267.772 876.288 266.716 876.288ZM266.716 874.08C267.932 874.08 268.796 873.632 269.308 872.736C269.836 871.824 270.1 870.6 270.1 869.064V866.184C270.1 864.648 269.836 863.432 269.308 862.536C268.796 861.624 267.932 861.168 266.716 861.168C266.108 861.168 265.588 861.288 265.156 861.528C264.724 861.752 264.372 862.088 264.1 862.536C263.828 862.968 263.628 863.496 263.5 864.12C263.388 864.728 263.332 865.416 263.332 866.184V869.064C263.332 869.832 263.388 870.528 263.5 871.152C263.628 871.76 263.828 872.288 264.1 872.736C264.372 873.168 264.724 873.504 265.156 873.744C265.588 873.968 266.108 874.08 266.716 874.08ZM266.716 869.04C266.156 869.04 265.764 868.928 265.54 868.704C265.332 868.48 265.228 868.208 265.228 867.888V867.36C265.228 867.04 265.332 866.768 265.54 866.544C265.764 866.32 266.156 866.208 266.716 866.208C267.276 866.208 267.66 866.32 267.868 866.544C268.092 866.768 268.204 867.04 268.204 867.36V867.888C268.204 868.208 268.092 868.48 267.868 868.704C267.66 868.928 267.276 869.04 266.716 869.04ZM287.034 865.488C287.034 866.704 286.85 867.848 286.482 868.92C286.114 869.992 285.634 870.976 285.042 871.872C284.45 872.768 283.794 873.568 283.074 874.272C282.354 874.976 281.642 875.552 280.938 876H277.338C278.298 875.312 279.162 874.648 279.93 874.008C280.698 873.368 281.362 872.712 281.922 872.04C282.498 871.368 282.978 870.664 283.362 869.928C283.746 869.176 284.042 868.344 284.25 867.432L284.082 867.384C283.906 867.72 283.698 868.04 283.458 868.344C283.218 868.632 282.938 868.888 282.618 869.112C282.298 869.336 281.93 869.512 281.514 869.64C281.098 869.768 280.626 869.832 280.098 869.832C279.378 869.832 278.714 869.712 278.106 869.472C277.498 869.232 276.97 868.888 276.522 868.44C276.074 867.976 275.722 867.424 275.466 866.784C275.226 866.144 275.106 865.424 275.106 864.624C275.106 863.792 275.242 863.032 275.514 862.344C275.802 861.64 276.202 861.04 276.714 860.544C277.242 860.048 277.874 859.664 278.61 859.392C279.346 859.104 280.162 858.96 281.058 858.96C281.986 858.96 282.818 859.112 283.554 859.416C284.306 859.72 284.938 860.16 285.45 860.736C285.962 861.296 286.354 861.976 286.626 862.776C286.898 863.576 287.034 864.48 287.034 865.488ZM281.082 867.696C282.09 867.696 282.874 867.424 283.434 866.88C283.994 866.32 284.274 865.536 284.274 864.528V864.288C284.274 863.28 283.994 862.504 283.434 861.96C282.874 861.4 282.09 861.12 281.082 861.12C280.058 861.12 279.266 861.4 278.706 861.96C278.146 862.504 277.866 863.28 277.866 864.288V864.528C277.866 865.536 278.146 866.32 278.706 866.88C279.266 867.424 280.058 867.696 281.082 867.696Z" fill="#363535"/>
<path d="M130.312 914.744H131.632C131.952 914.312 132.24 913.808 132.496 913.232C132.752 912.656 132.968 911.976 133.144 911.192C133.336 910.392 133.48 909.488 133.576 908.48C133.672 907.472 133.72 906.32 133.72 905.024V900.248H142.096V914.744H143.896V920.6H141.424V917H132.808V920.6H130.312V914.744ZM139.456 902.504H136.192V905.336C136.192 907.8 136.032 909.784 135.712 911.288C135.408 912.776 135 913.928 134.488 914.744H139.456V902.504ZM155.479 917L154.207 912.536H148.879L147.607 917H144.871L149.767 900.248H153.439L158.335 917H155.479ZM151.639 902.96H151.447L149.383 910.304H153.703L151.639 902.96ZM167.325 902.504V917H164.637V902.504H159.381V900.248H172.581V902.504H167.325ZM184.26 917L182.988 912.536H177.66L176.388 917H173.652L178.548 900.248H182.22L187.116 917H184.26ZM180.42 902.96H180.228L178.164 910.304H182.484L180.42 902.96ZM194.763 917.24C193.995 917.24 193.451 917.08 193.131 916.76C192.827 916.44 192.675 916.048 192.675 915.584V914.96C192.675 914.496 192.827 914.104 193.131 913.784C193.451 913.464 193.995 913.304 194.763 913.304C195.531 913.304 196.067 913.464 196.371 913.784C196.691 914.104 196.851 914.496 196.851 914.96V915.584C196.851 916.048 196.691 916.44 196.371 916.76C196.067 917.08 195.531 917.24 194.763 917.24ZM194.763 908.312C193.995 908.312 193.451 908.152 193.131 907.832C192.827 907.512 192.675 907.12 192.675 906.656V906.032C192.675 905.568 192.827 905.176 193.131 904.856C193.451 904.536 193.995 904.376 194.763 904.376C195.531 904.376 196.067 904.536 196.371 904.856C196.691 905.176 196.851 905.568 196.851 906.032V906.656C196.851 907.12 196.691 907.512 196.371 907.832C196.067 908.152 195.531 908.312 194.763 908.312ZM209.153 917.288C208.097 917.288 207.177 917.096 206.393 916.712C205.625 916.312 204.985 915.744 204.473 915.008C203.977 914.272 203.609 913.368 203.369 912.296C203.129 911.224 203.009 910 203.009 908.624C203.009 907.264 203.129 906.048 203.369 904.976C203.609 903.888 203.977 902.976 204.473 902.24C204.985 901.504 205.625 900.944 206.393 900.56C207.177 900.16 208.097 899.96 209.153 899.96C210.209 899.96 211.121 900.16 211.889 900.56C212.673 900.944 213.313 901.504 213.809 902.24C214.321 902.976 214.697 903.888 214.937 904.976C215.177 906.048 215.297 907.264 215.297 908.624C215.297 910 215.177 911.224 214.937 912.296C214.697 913.368 214.321 914.272 213.809 915.008C213.313 915.744 212.673 916.312 211.889 916.712C211.121 917.096 210.209 917.288 209.153 917.288ZM209.153 915.08C210.369 915.08 211.233 914.632 211.745 913.736C212.273 912.824 212.537 911.6 212.537 910.064V907.184C212.537 905.648 212.273 904.432 211.745 903.536C211.233 902.624 210.369 902.168 209.153 902.168C208.545 902.168 208.025 902.288 207.593 902.528C207.161 902.752 206.809 903.088 206.537 903.536C206.265 903.968 206.065 904.496 205.937 905.12C205.825 905.728 205.769 906.416 205.769 907.184V910.064C205.769 910.832 205.825 911.528 205.937 912.152C206.065 912.76 206.265 913.288 206.537 913.736C206.809 914.168 207.161 914.504 207.593 914.744C208.025 914.968 208.545 915.08 209.153 915.08ZM209.153 910.04C208.593 910.04 208.201 909.928 207.977 909.704C207.769 909.48 207.665 909.208 207.665 908.888V908.36C207.665 908.04 207.769 907.768 207.977 907.544C208.201 907.32 208.593 907.208 209.153 907.208C209.713 907.208 210.097 907.32 210.305 907.544C210.529 907.768 210.641 908.04 210.641 908.36V908.888C210.641 909.208 210.529 909.48 210.305 909.704C210.097 909.928 209.713 910.04 209.153 910.04ZM223.592 917.288C222.648 917.288 221.808 917.136 221.072 916.832C220.336 916.528 219.712 916.096 219.2 915.536C218.688 914.96 218.296 914.272 218.024 913.472C217.752 912.672 217.616 911.768 217.616 910.76C217.616 909.544 217.8 908.4 218.168 907.328C218.536 906.256 219.016 905.272 219.608 904.376C220.2 903.48 220.856 902.688 221.576 902C222.296 901.296 223.008 900.712 223.712 900.248H227.312C226.352 900.936 225.488 901.6 224.72 902.24C223.952 902.88 223.28 903.536 222.704 904.208C222.144 904.88 221.672 905.592 221.288 906.344C220.904 907.08 220.608 907.904 220.4 908.816L220.568 908.864C220.744 908.528 220.952 908.216 221.192 907.928C221.432 907.624 221.712 907.36 222.032 907.136C222.352 906.912 222.72 906.736 223.136 906.608C223.552 906.48 224.024 906.416 224.552 906.416C225.272 906.416 225.936 906.536 226.544 906.776C227.152 907.016 227.68 907.368 228.128 907.832C228.576 908.28 228.92 908.824 229.16 909.464C229.416 910.104 229.544 910.824 229.544 911.624C229.544 912.456 229.4 913.224 229.112 913.928C228.84 914.616 228.44 915.208 227.912 915.704C227.4 916.2 226.776 916.592 226.04 916.88C225.304 917.152 224.488 917.288 223.592 917.288ZM223.568 915.128C224.592 915.128 225.384 914.856 225.944 914.312C226.504 913.752 226.784 912.968 226.784 911.96V911.72C226.784 910.712 226.504 909.936 225.944 909.392C225.384 908.832 224.592 908.552 223.568 908.552C222.56 908.552 221.776 908.832 221.216 909.392C220.656 909.936 220.376 910.712 220.376 911.72V911.96C220.376 912.968 220.656 913.752 221.216 914.312C221.776 914.856 222.56 915.128 223.568 915.128ZM237.934 917.24C237.166 917.24 236.622 917.08 236.302 916.76C235.998 916.44 235.846 916.048 235.846 915.584V914.96C235.846 914.496 235.998 914.104 236.302 913.784C236.622 913.464 237.166 913.304 237.934 913.304C238.702 913.304 239.238 913.464 239.542 913.784C239.862 914.104 240.022 914.496 240.022 914.96V915.584C240.022 916.048 239.862 916.44 239.542 916.76C239.238 917.08 238.702 917.24 237.934 917.24ZM252.325 917.288C251.269 917.288 250.349 917.096 249.565 916.712C248.797 916.312 248.157 915.744 247.645 915.008C247.149 914.272 246.781 913.368 246.541 912.296C246.301 911.224 246.181 910 246.181 908.624C246.181 907.264 246.301 906.048 246.541 904.976C246.781 903.888 247.149 902.976 247.645 902.24C248.157 901.504 248.797 900.944 249.565 900.56C250.349 900.16 251.269 899.96 252.325 899.96C253.381 899.96 254.293 900.16 255.061 900.56C255.845 900.944 256.485 901.504 256.981 902.24C257.493 902.976 257.869 903.888 258.109 904.976C258.349 906.048 258.469 907.264 258.469 908.624C258.469 910 258.349 911.224 258.109 912.296C257.869 913.368 257.493 914.272 256.981 915.008C256.485 915.744 255.845 916.312 255.061 916.712C254.293 917.096 253.381 917.288 252.325 917.288ZM252.325 915.08C253.541 915.08 254.405 914.632 254.917 913.736C255.445 912.824 255.709 911.6 255.709 910.064V907.184C255.709 905.648 255.445 904.432 254.917 903.536C254.405 902.624 253.541 902.168 252.325 902.168C251.717 902.168 251.197 902.288 250.765 902.528C250.333 902.752 249.981 903.088 249.709 903.536C249.437 903.968 249.237 904.496 249.109 905.12C248.997 905.728 248.941 906.416 248.941 907.184V910.064C248.941 910.832 248.997 911.528 249.109 912.152C249.237 912.76 249.437 913.288 249.709 913.736C249.981 914.168 250.333 914.504 250.765 914.744C251.197 914.968 251.717 915.08 252.325 915.08ZM252.325 910.04C251.765 910.04 251.373 909.928 251.149 909.704C250.941 909.48 250.837 909.208 250.837 908.888V908.36C250.837 908.04 250.941 907.768 251.149 907.544C251.373 907.32 251.765 907.208 252.325 907.208C252.885 907.208 253.269 907.32 253.477 907.544C253.701 907.768 253.813 908.04 253.813 908.36V908.888C253.813 909.208 253.701 909.48 253.477 909.704C253.269 909.928 252.885 910.04 252.325 910.04ZM272.644 906.488C272.644 907.704 272.46 908.848 272.092 909.92C271.724 910.992 271.244 911.976 270.652 912.872C270.06 913.768 269.404 914.568 268.684 915.272C267.964 915.976 267.252 916.552 266.548 917H262.948C263.908 916.312 264.772 915.648 265.54 915.008C266.308 914.368 266.972 913.712 267.532 913.04C268.108 912.368 268.588 911.664 268.972 910.928C269.356 910.176 269.652 909.344 269.86 908.432L269.692 908.384C269.516 908.72 269.308 909.04 269.068 909.344C268.828 909.632 268.548 909.888 268.228 910.112C267.908 910.336 267.54 910.512 267.124 910.64C266.708 910.768 266.236 910.832 265.708 910.832C264.988 910.832 264.324 910.712 263.716 910.472C263.108 910.232 262.58 909.888 262.132 909.44C261.684 908.976 261.332 908.424 261.076 907.784C260.836 907.144 260.716 906.424 260.716 905.624C260.716 904.792 260.852 904.032 261.124 903.344C261.412 902.64 261.812 902.04 262.324 901.544C262.852 901.048 263.484 900.664 264.22 900.392C264.956 900.104 265.772 899.96 266.668 899.96C267.596 899.96 268.428 900.112 269.164 900.416C269.916 900.72 270.548 901.16 271.06 901.736C271.572 902.296 271.964 902.976 272.236 903.776C272.508 904.576 272.644 905.48 272.644 906.488ZM266.692 908.696C267.7 908.696 268.484 908.424 269.044 907.88C269.604 907.32 269.884 906.536 269.884 905.528V905.288C269.884 904.28 269.604 903.504 269.044 902.96C268.484 902.4 267.7 902.12 266.692 902.12C265.668 902.12 264.876 902.4 264.316 902.96C263.756 903.504 263.476 904.28 263.476 905.288V905.528C263.476 906.536 263.756 907.32 264.316 907.88C264.876 908.424 265.668 908.696 266.692 908.696ZM281.106 917.24C280.338 917.24 279.794 917.08 279.474 916.76C279.17 916.44 279.018 916.048 279.018 915.584V914.96C279.018 914.496 279.17 914.104 279.474 913.784C279.794 913.464 280.338 913.304 281.106 913.304C281.874 913.304 282.41 913.464 282.714 913.784C283.034 914.104 283.194 914.496 283.194 914.96V915.584C283.194 916.048 283.034 916.44 282.714 916.76C282.41 917.08 281.874 917.24 281.106 917.24ZM301.377 917H289.809V914.432L295.281 909.656C296.145 908.888 296.809 908.16 297.273 907.472C297.753 906.784 297.993 906.056 297.993 905.288V905.024C297.993 904.144 297.753 903.472 297.273 903.008C296.793 902.528 296.097 902.288 295.185 902.288C294.257 902.288 293.537 902.536 293.025 903.032C292.529 903.528 292.169 904.16 291.945 904.928L289.593 904.04C289.753 903.512 289.985 903.008 290.289 902.528C290.593 902.032 290.977 901.592 291.441 901.208C291.921 900.824 292.481 900.52 293.121 900.296C293.777 900.072 294.529 899.96 295.377 899.96C296.241 899.96 297.009 900.088 297.681 900.344C298.369 900.584 298.945 900.92 299.409 901.352C299.873 901.784 300.225 902.304 300.465 902.912C300.705 903.504 300.825 904.16 300.825 904.88C300.825 905.552 300.721 906.176 300.513 906.752C300.321 907.312 300.041 907.856 299.673 908.384C299.321 908.896 298.897 909.392 298.401 909.872C297.905 910.352 297.361 910.832 296.769 911.312L292.713 914.72H301.377V917ZM309.888 917.288C308.832 917.288 307.912 917.096 307.128 916.712C306.36 916.312 305.72 915.744 305.208 915.008C304.712 914.272 304.344 913.368 304.104 912.296C303.864 911.224 303.744 910 303.744 908.624C303.744 907.264 303.864 906.048 304.104 904.976C304.344 903.888 304.712 902.976 305.208 902.24C305.72 901.504 306.36 900.944 307.128 900.56C307.912 900.16 308.832 899.96 309.888 899.96C310.944 899.96 311.856 900.16 312.624 900.56C313.408 900.944 314.048 901.504 314.544 902.24C315.056 902.976 315.432 903.888 315.672 904.976C315.912 906.048 316.032 907.264 316.032 908.624C316.032 910 315.912 911.224 315.672 912.296C315.432 913.368 315.056 914.272 314.544 915.008C314.048 915.744 313.408 916.312 312.624 916.712C311.856 917.096 310.944 917.288 309.888 917.288ZM309.888 915.08C311.104 915.08 311.968 914.632 312.48 913.736C313.008 912.824 313.272 911.6 313.272 910.064V907.184C313.272 905.648 313.008 904.432 312.48 903.536C311.968 902.624 311.104 902.168 309.888 902.168C309.28 902.168 308.76 902.288 308.328 902.528C307.896 902.752 307.544 903.088 307.272 903.536C307 903.968 306.8 904.496 306.672 905.12C306.56 905.728 306.504 906.416 306.504 907.184V910.064C306.504 910.832 306.56 911.528 306.672 912.152C306.8 912.76 307 913.288 307.272 913.736C307.544 914.168 307.896 914.504 308.328 914.744C308.76 914.968 309.28 915.08 309.888 915.08ZM309.888 910.04C309.328 910.04 308.936 909.928 308.712 909.704C308.504 909.48 308.4 909.208 308.4 908.888V908.36C308.4 908.04 308.504 907.768 308.712 907.544C308.936 907.32 309.328 907.208 309.888 907.208C310.448 907.208 310.832 907.32 311.04 907.544C311.264 907.768 311.376 908.04 311.376 908.36V908.888C311.376 909.208 311.264 909.48 311.04 909.704C310.832 909.928 310.448 910.04 309.888 910.04ZM330.158 917H318.59V914.432L324.062 909.656C324.926 908.888 325.59 908.16 326.054 907.472C326.534 906.784 326.774 906.056 326.774 905.288V905.024C326.774 904.144 326.534 903.472 326.054 903.008C325.574 902.528 324.878 902.288 323.966 902.288C323.038 902.288 322.318 902.536 321.806 903.032C321.31 903.528 320.95 904.16 320.726 904.928L318.374 904.04C318.534 903.512 318.766 903.008 319.07 902.528C319.374 902.032 319.758 901.592 320.222 901.208C320.702 900.824 321.262 900.52 321.902 900.296C322.558 900.072 323.31 899.96 324.158 899.96C325.022 899.96 325.79 900.088 326.462 900.344C327.15 900.584 327.726 900.92 328.19 901.352C328.654 901.784 329.006 902.304 329.246 902.912C329.486 903.504 329.606 904.16 329.606 904.88C329.606 905.552 329.502 906.176 329.294 906.752C329.102 907.312 328.822 907.856 328.454 908.384C328.102 908.896 327.678 909.392 327.182 909.872C326.686 910.352 326.142 910.832 325.55 911.312L321.494 914.72H330.158V917ZM343.733 902.576H336.125L335.693 908.528H335.885C336.269 907.872 336.733 907.352 337.277 906.968C337.821 906.568 338.565 906.368 339.509 906.368C340.229 906.368 340.893 906.488 341.501 906.728C342.125 906.968 342.661 907.312 343.109 907.76C343.573 908.208 343.933 908.76 344.189 909.416C344.461 910.056 344.597 910.784 344.597 911.6C344.597 912.432 344.461 913.2 344.189 913.904C343.917 914.592 343.525 915.192 343.013 915.704C342.501 916.2 341.869 916.592 341.117 916.88C340.365 917.152 339.509 917.288 338.549 917.288C337.797 917.288 337.125 917.2 336.533 917.024C335.957 916.864 335.437 916.648 334.973 916.376C334.525 916.088 334.133 915.768 333.797 915.416C333.461 915.048 333.165 914.672 332.909 914.288L334.877 912.752C335.085 913.072 335.301 913.376 335.525 913.664C335.765 913.936 336.029 914.176 336.317 914.384C336.605 914.592 336.933 914.752 337.301 914.864C337.685 914.976 338.117 915.032 338.597 915.032C339.637 915.032 340.429 914.752 340.973 914.192C341.517 913.616 341.789 912.84 341.789 911.864V911.672C341.789 910.696 341.509 909.936 340.949 909.392C340.405 908.848 339.621 908.576 338.597 908.576C337.845 908.576 337.253 908.712 336.821 908.984C336.389 909.256 336.013 909.56 335.693 909.896L333.461 909.584L334.085 900.248H343.733V902.576Z" fill="#363535"/>
<path d="M1287 128H1281V134H1287V128ZM1361.5 128V134H1367.5V128H1361.5ZM1367.5 95.6997C1367.5 92.386 1364.81 89.6997 1361.5 89.6997C1358.19 89.6997 1355.5 92.386 1355.5 95.6997H1367.5ZM1281 95.6997V128H1293V95.6997H1281ZM1287 134H1361.5V122H1287V134ZM1367.5 128V95.6997H1355.5V128H1367.5Z" fill="#3E3E3E"/>
<path d="M1361.5 128H1367.5V134H1361.5V128ZM1287 128V134H1281V128H1287ZM1281 95.6997C1281 92.386 1283.69 89.6997 1287 89.6997C1290.31 89.6997 1293 92.386 1293 95.6997H1281ZM1367.5 95.6997V128H1355.5V95.6997H1367.5ZM1361.5 134H1287V122H1361.5V134ZM1281 128V95.6997H1293V128H1281Z" fill="#3E3E3E"/>
<path d="M1324.47 48V102.483M1324.47 102.483L1347.39 78.7438M1324.47 102.483L1301.11 78.7438" stroke="#3E3E3E" stroke-width="12" stroke-linecap="round"/>
<circle cx="122.049" cy="296.32" r="26.9511" transform="rotate(90 122.049 296.32)" fill="#D9D9D9"/>
<circle cx="23.6984" cy="23.6984" r="18.6984" transform="matrix(0 1 1 0 97.2935 254)" fill="#3E3E3E" stroke="#D9D9D9" stroke-width="10"/>
<circle cx="122.049" cy="399.337" r="26.9511" transform="rotate(90 122.049 399.337)" fill="#D9D9D9"/>
<circle cx="23.6984" cy="23.6984" r="18.6984" transform="matrix(0 1 1 0 97.2935 357.018)" fill="#3E3E3E" stroke="#D9D9D9" stroke-width="10"/>
<circle cx="120.951" cy="502.355" r="26.9511" transform="rotate(90 120.951 502.355)" fill="#D9D9D9"/>
<circle cx="23.6984" cy="23.6984" r="18.6984" transform="matrix(0 1 1 0 96.1953 460.035)" fill="#3E3E3E" stroke="#D9D9D9" stroke-width="10"/>
<circle cx="120.951" cy="605.373" r="26.9511" transform="rotate(90 120.951 605.373)" fill="#D9D9D9"/>
<circle cx="23.6984" cy="23.6984" r="18.6984" transform="matrix(0 1 1 0 96.1953 563.053)" fill="#3E3E3E" stroke="#D9D9D9" stroke-width="10"/>
<rect x="182" y="253" width="230" height="73" rx="18" fill="#D9D9D9" stroke="#3E3E3E" stroke-width="12"/>
<rect x="182" y="356" width="230" height="73" rx="18" fill="#D9D9D9" stroke="#3E3E3E" stroke-width="12"/>
<rect x="182" y="459" width="230" height="73" rx="18" fill="#D9D9D9" stroke="#3E3E3E" stroke-width="12"/>
<rect x="182" y="562" width="230" height="73" rx="18" fill="#D9D9D9" stroke="#3E3E3E" stroke-width="12"/>
</svg>
