<svg width="1920" height="228" viewBox="0 0 1920 228" fill="none" xmlns="http://www.w3.org/2000/svg">
<rect x="6" y="6" width="1908" height="216" fill="#D9D9D9" stroke="#3E3E3E" stroke-width="12"/>
<rect x="49" y="40" width="1822" height="148" rx="74" fill="white"/>
<path d="M121.046 46.5C159.623 46.5 190.592 76.8867 190.592 114C190.592 151.113 159.623 181.5 121.046 181.5C82.4685 181.5 51.5 151.113 51.5 114C51.5 76.8867 82.4685 46.5 121.046 46.5Z" stroke="#3E3E3E" stroke-width="13"/>
<path d="M258 187.187L251.039 40.8706L243.008 40.4353L226.409 40L199.638 40L122 40L122 188L200.482 188L230.585 188L245.636 188L258 187.187Z" fill="white"/>
<path d="M1795 46.5C1756.45 46.5 1725.5 76.8831 1725.5 114C1725.5 151.117 1756.45 181.5 1795 181.5C1833.55 181.5 1864.5 151.117 1864.5 114C1864.5 76.8831 1833.55 46.5 1795 46.5Z" stroke="#3E3E3E" stroke-width="13"/>
<path d="M1614 187.187L1623.11 40.8706L1633.62 40.4353L1655.35 40L1690.39 40L1792 40L1792 188L1689.28 188L1649.88 188L1630.18 188L1614 187.187Z" fill="white"/>
<path d="M148.4 80.2H193.6V150H182.4V89.6H159.6V150H148.4V80.2ZM230.961 151.2C226.561 151.2 222.728 150.4 219.461 148.8C216.261 147.133 213.594 144.767 211.461 141.7C209.394 138.633 207.861 134.867 206.861 130.4C205.861 125.933 205.361 120.833 205.361 115.1C205.361 109.433 205.861 104.367 206.861 99.9C207.861 95.3667 209.394 91.5667 211.461 88.5C213.594 85.4333 216.261 83.1 219.461 81.5C222.728 79.8333 226.561 79 230.961 79C235.361 79 239.161 79.8333 242.361 81.5C245.628 83.1 248.294 85.4333 250.361 88.5C252.494 91.5667 254.061 95.3667 255.061 99.9C256.061 104.367 256.561 109.433 256.561 115.1C256.561 120.833 256.061 125.933 255.061 130.4C254.061 134.867 252.494 138.633 250.361 141.7C248.294 144.767 245.628 147.133 242.361 148.8C239.161 150.4 235.361 151.2 230.961 151.2ZM230.961 141.9C235.961 141.9 239.494 140.033 241.561 136.3C243.628 132.5 244.661 127.367 244.661 120.9V109.2C244.661 102.8 243.628 97.7333 241.561 94C239.494 90.2 235.961 88.3 230.961 88.3C225.961 88.3 222.428 90.2 220.361 94C218.294 97.7333 217.261 102.8 217.261 109.2V121C217.261 127.4 218.294 132.5 220.361 136.3C222.428 140.033 225.961 141.9 230.961 141.9ZM269.322 150V80.2H295.422C302.089 80.2 307.155 82.0667 310.622 85.8C314.155 89.5333 315.922 94.6667 315.922 101.2C315.922 107.733 314.155 112.867 310.622 116.6C307.155 120.333 302.089 122.2 295.422 122.2H280.522V150H269.322ZM280.522 112.9H293.722C300.655 112.9 304.122 109.7 304.122 103.3V99C304.122 92.6667 300.655 89.5 293.722 89.5H280.522V112.9ZM356.483 89.6V150H345.283V89.6H323.383V80.2H378.383V89.6H356.483ZM389.244 150V80.2H415.344C422.01 80.2 427.077 82.0667 430.544 85.8C434.077 89.5333 435.844 94.6667 435.844 101.2C435.844 107.733 434.077 112.867 430.544 116.6C427.077 120.333 422.01 122.2 415.344 122.2H400.444V150H389.244ZM400.444 112.9H413.644C420.577 112.9 424.044 109.7 424.044 103.3V99C424.044 92.6667 420.577 89.5 413.644 89.5H400.444V112.9ZM449.405 150V80.2H493.105V89.6H460.605V109.9H491.905V119.3H460.605V140.6H493.105V150H449.405ZM536.366 89.6V150H525.166V89.6H503.266V80.2H558.266V89.6H536.366Z" fill="#3E3E3E"/>
</svg>
