<svg width="518" height="518" viewBox="0 0 518 518" fill="none" xmlns="http://www.w3.org/2000/svg">
<circle cx="258.852" cy="258.852" r="252.852" stroke="#D9D9D9" stroke-width="12"/>
<circle cx="258.85" cy="258.852" r="237.912" fill="#3E3E3E" stroke="#3E3E3E" stroke-width="12"/>
<path d="M318.781 481.058L333.381 483.314L335.876 489.15L305.923 497.319L309.762 489.15L318.781 481.058Z" fill="#D9D9D9"/>
<path d="M237.845 484.481L265.708 494.953L260.408 501.598L227.342 498.486L237.845 484.481Z" fill="#D9D9D9"/>
<path d="M163.154 468.92L179.103 472.421L190.773 485.259L190.773 491.872L159.521 476.766L163.154 468.92Z" fill="#D9D9D9"/>
<path d="M121.991 436.309L133.571 447.524L132.811 464.252L95.0772 432.742L109.47 431.964L121.991 436.309Z" fill="#D9D9D9"/>
<path d="M73.6814 384.503L84.1851 400.453L83.1326 419.496L53.8626 382.52L73.6814 384.503Z" fill="#D9D9D9"/>
<path d="M42.778 317.959L48.4728 336.188L42.2065 354.201L24.2757 310.585L42.778 317.959Z" fill="#D9D9D9"/>
<path d="M48.0864 187.12L41.522 205.072L24.3546 215.369L36.1958 169.721L48.0864 187.12Z" fill="#D9D9D9"/>
<path d="M36.3515 253.694L34.8263 270.662L22.286 283.489L21.9423 241.464L36.3515 253.694Z" fill="#D9D9D9"/>
<path d="M79.6229 125.449L67.6323 140.314L49.174 145.114L75.4724 105.969L79.6229 125.449Z" fill="#D9D9D9"/>
<path d="M185.738 44.7821L167.928 51.675L150.316 44.782L189.218 28.943L185.738 44.7821Z" fill="#D9D9D9"/>
<path d="M126.785 75.3129L111.804 87.1579L92.7417 87.7581L127.044 55.3968L130.087 64.3442L126.785 75.3129Z" fill="#D9D9D9"/>
<path d="M250.71 30.7618L236.127 30.7946L224.229 21.219L260.032 17.6631L258.851 26.6097L250.71 30.7618Z" fill="#D9D9D9"/>
<path d="M331.209 489.147C323.818 482.923 299.31 484.479 298.532 496.539" stroke="#D9D9D9" stroke-width="12"/>
<path d="M223.452 495.761C229.287 486.166 251.461 481.757 264.688 498.095M156.153 473.198C163.155 464.51 179.104 459.583 196.221 491.482M96.6332 434.297C106.359 422.237 138.647 434.297 137.48 464.64M54.2306 382.169C71.7362 377.112 93.5211 388.004 84.1847 421.848M25.8325 312.535C44.1162 309.812 63.1779 331.208 42.1711 358.439M23.1094 241.345C39.059 244.069 51.1185 270.522 23.1094 286.471" stroke="#D9D9D9" stroke-width="12"/>
<path d="M37.1139 167.432C53.4525 176.38 56.5647 210.613 23.1094 217.226M49.1734 142.535C66.29 151.094 92.7431 132.421 75.6264 103.634M92.354 87.2953C105.192 92.2228 135.924 87.2953 131.256 55.007" stroke="#D9D9D9" stroke-width="12"/>
<path d="M151.875 44.504C160.434 51.5063 188.91 54.2294 192.333 27.7764M225.399 21.1631C227.344 28.9434 254.186 33.2226 262.356 18.44" stroke="#D9D9D9" stroke-width="12"/>
<circle cx="279.386" cy="254.496" r="217.384" fill="#D9D9D9" stroke="#3E3E3E" stroke-width="12"/>
<circle cx="279.702" cy="254.739" r="90.0867" stroke="#3E3E3E" stroke-width="12"/>
<circle cx="258.85" cy="258.852" r="237.912" stroke="#3E3E3E" stroke-width="12"/>
<circle cx="280.092" cy="255.128" r="62.4666" fill="#3E3E3E" stroke="#3E3E3E" stroke-width="12"/>
<path d="M407.266 294.197C408.367 290.095 410.014 286.841 412.206 284.434C414.399 282.027 416.931 280.242 419.804 279.081L423.162 285.201C420.515 286.423 418.401 287.909 416.819 289.658C415.283 291.42 414.171 293.586 413.481 296.155C412.682 299.13 412.747 301.587 413.676 303.528C414.592 305.513 416.313 306.845 418.837 307.522C420.865 308.067 422.577 307.898 423.973 307.017C425.415 306.148 426.764 304.36 428.023 301.653L430.213 296.733C431.179 294.576 432.273 292.841 433.495 291.526C434.763 290.224 436.087 289.25 437.468 288.606C438.894 287.974 440.366 287.621 441.885 287.545C443.436 287.527 445 287.729 446.577 288.153C451.04 289.35 454.033 291.7 455.557 295.202C457.126 298.715 457.233 302.996 455.878 308.044C454.874 311.785 453.412 314.799 451.494 317.087C449.608 319.431 447.366 321.124 444.767 322.166L441.305 316.163C443.233 315.28 444.912 314.064 446.343 312.515C447.806 311.023 448.889 308.97 449.591 306.356C450.341 303.562 450.307 301.258 449.49 299.444C448.705 297.687 447.163 296.5 444.865 295.883C442.927 295.362 441.243 295.514 439.814 296.339C438.417 297.22 437.078 299.059 435.796 301.856L433.574 306.623C431.67 310.654 429.287 313.324 426.423 314.632C423.604 315.953 420.527 316.166 417.191 315.271C415.028 314.69 413.148 313.775 411.551 312.524C409.941 311.319 408.705 309.804 407.843 307.977C406.968 306.196 406.46 304.127 406.32 301.77C406.213 299.471 406.528 296.946 407.266 294.197Z" fill="#3E3E3E"/>
<path d="M393.364 325.62C394.896 322.948 396.716 320.898 398.824 319.471C400.95 318.107 403.315 317.311 405.92 317.082C408.502 316.894 411.324 317.274 414.385 318.221C417.445 319.168 420.717 320.639 424.199 322.634C427.641 324.606 430.544 326.673 432.909 328.835C435.315 331.02 437.089 333.274 438.232 335.596C439.353 337.959 439.842 340.391 439.7 342.891C439.575 345.455 438.747 348.073 437.216 350.746C435.685 353.418 433.856 355.436 431.731 356.8C429.622 358.227 427.277 359.035 424.695 359.223C422.09 359.451 419.237 359.08 416.135 358.11C413.075 357.163 409.823 355.704 406.381 353.732C402.899 351.736 399.976 349.658 397.611 347.496C395.246 345.334 393.503 343.072 392.383 340.709C391.24 338.387 390.73 335.943 390.855 333.379C390.997 330.879 391.833 328.292 393.364 325.62ZM399.013 328.856C397.273 331.893 397.177 334.689 398.725 337.243C400.314 339.821 403.072 342.235 407 344.485L414.106 348.557C417.993 350.784 421.43 351.92 424.417 351.964C427.444 352.031 429.828 350.546 431.568 347.509C433.308 344.473 433.383 341.665 431.795 339.088C430.246 336.533 427.529 334.142 423.641 331.915L416.475 327.809C412.587 325.582 409.13 324.434 406.103 324.367C403.116 324.323 400.753 325.82 399.013 328.856Z" fill="#3E3E3E"/>
<path d="M412.909 381.478L391.608 360.311C390.185 358.896 388.861 357.646 387.636 356.561C386.379 355.509 385.139 354.771 383.917 354.346C382.728 353.953 381.523 353.941 380.304 354.307C379.084 354.674 377.783 355.553 376.402 356.943C375.02 358.333 374.15 359.64 373.79 360.862C373.431 362.084 373.452 363.288 373.851 364.475C374.284 365.694 375.047 366.913 376.14 368.13C377.2 369.381 378.441 370.714 379.865 372.128L401.166 393.296L395.639 398.857L375.331 378.676C372.849 376.209 370.812 373.889 369.221 371.716C367.631 369.609 366.618 367.517 366.182 365.439C365.78 363.395 366.021 361.299 366.905 359.151C367.756 357.036 369.383 354.771 371.784 352.354C374.185 349.938 376.457 348.281 378.599 347.383C380.708 346.519 382.786 346.281 384.833 346.671C386.914 347.093 389.029 348.076 391.178 349.621C393.328 351.231 395.645 353.269 398.127 355.736L418.435 375.917L412.909 381.478Z" fill="#3E3E3E"/>
<path d="M370.97 401.424L371.513 401.106L352.502 368.678L358.419 365.208L383.131 407.359L374.435 412.457L343.044 387.286L342.501 387.605L361.512 420.033L355.594 423.502L330.883 381.352L339.579 376.254L370.97 401.424Z" fill="#3E3E3E"/>
<path d="M340.547 428.787L326.524 432.706C320.501 434.389 315.493 433.633 311.499 430.436C307.459 427.253 304.366 421.818 302.218 414.132C300.071 406.447 299.899 400.196 301.702 395.379C303.461 390.575 307.351 387.332 313.374 385.649L327.397 381.73L340.547 428.787ZM315.579 391.719C312.118 392.687 309.877 394.549 308.854 397.305C307.8 400.12 307.875 403.684 309.081 407.999L311.266 415.819C312.472 420.134 314.249 423.199 316.597 425.014C318.914 426.886 321.802 427.339 325.263 426.372L331.33 424.676L321.647 390.024L315.579 391.719Z" fill="#3E3E3E"/>
<path d="M253.545 387.754L256.035 401.061L271.508 402.499L276.407 389.878L284.353 390.616L265.613 437.946L254.949 436.955L245.251 386.983L253.545 387.754ZM260.908 429.564L261.466 429.616L269.442 408.845L256.896 407.679L260.908 429.564Z" fill="#3E3E3E"/>
<path d="M237.948 382.755L245.236 385.449L228.293 431.277L211.156 424.942C206.779 423.324 203.906 420.868 202.536 417.575C201.122 414.267 201.208 410.467 202.794 406.178C204.089 402.676 206.01 400.103 208.559 398.458C211.108 396.813 214.077 396.318 217.466 396.975L213.983 373.895L222.125 376.905L224.997 399.012L231.103 401.27L237.948 382.755ZM220.12 403.926C215.568 402.243 212.523 403.481 210.986 407.639L209.942 410.462C208.405 414.621 209.912 417.541 214.464 419.224L223.262 422.477L228.918 407.179L220.12 403.926Z" fill="#3E3E3E"/>
<path d="M201.611 362.738C204.13 364.511 206.002 366.514 207.227 368.746C208.387 370.989 208.96 373.418 208.946 376.033C208.893 378.621 208.253 381.395 207.026 384.355C205.799 387.315 204.03 390.435 201.72 393.717C199.437 396.961 197.109 399.66 194.737 401.814C192.338 404.006 189.929 405.563 187.511 406.486C185.054 407.382 182.587 407.643 180.111 407.269C177.569 406.907 175.039 405.84 172.521 404.067C170.002 402.294 168.163 400.286 167.003 398.042C165.777 395.81 165.191 393.4 165.244 390.812C165.258 388.197 165.892 385.391 167.147 382.393C168.374 379.433 170.129 376.332 172.412 373.088C174.722 369.806 177.064 367.088 179.436 364.934C181.808 362.78 184.222 361.256 186.679 360.36C189.098 359.437 191.578 359.157 194.119 359.519C196.595 359.892 199.093 360.966 201.611 362.738ZM197.864 368.062C195.002 366.047 192.228 365.692 189.54 366.996C186.826 368.339 184.167 370.861 181.561 374.563L176.847 381.26C174.268 384.923 172.818 388.24 172.497 391.21C172.149 394.217 173.406 396.729 176.268 398.743C179.13 400.758 181.918 401.094 184.632 399.751C187.319 398.447 189.952 395.963 192.531 392.3L197.285 385.545C199.864 381.882 201.327 378.546 201.676 375.538C201.997 372.569 200.726 370.076 197.864 368.062Z" fill="#3E3E3E"/>
<path d="M144.387 377.261L167.403 357.972C168.941 356.683 170.306 355.478 171.498 354.357C172.659 353.201 173.508 352.034 174.042 350.855C174.541 349.706 174.663 348.508 174.409 347.26C174.154 346.012 173.397 344.637 172.138 343.134C170.88 341.632 169.658 340.647 168.473 340.178C167.289 339.709 166.088 339.62 164.87 339.91C163.616 340.23 162.333 340.879 161.021 341.857C159.679 342.799 158.24 343.914 156.702 345.203L133.686 364.492L128.65 358.483L150.593 340.093C153.275 337.845 155.771 336.028 158.079 334.641C160.322 333.249 162.498 332.43 164.606 332.185C166.679 331.97 168.745 332.401 170.803 333.476C172.831 334.516 174.94 336.342 177.128 338.953C179.316 341.564 180.76 343.977 181.459 346.192C182.128 348.371 182.176 350.462 181.602 352.465C180.992 354.498 179.821 356.515 178.088 358.516C176.289 360.51 174.048 362.632 171.366 364.88L149.422 383.27L144.387 377.261Z" fill="#3E3E3E"/>
<path d="M128.482 333.994L128.752 334.563L162.721 318.465L165.659 324.664L121.506 345.589L117.189 336.48L145.012 307.414L144.743 306.845L110.774 322.943L107.836 316.744L151.989 295.82L156.306 304.928L128.482 333.994Z" fill="#3E3E3E"/>
<path d="M103.921 301.257L101.279 286.939C100.144 280.79 101.348 275.869 104.89 272.179C108.424 268.442 114.115 265.85 121.962 264.402C129.81 262.953 136.051 263.344 140.686 265.573C145.312 267.757 148.193 271.923 149.327 278.073L151.97 292.391L103.921 301.257ZM143.083 279.723C142.431 276.19 140.778 273.79 138.125 272.524C135.416 271.22 131.859 270.975 127.454 271.788L119.469 273.261C115.063 274.074 111.851 275.568 109.832 277.744C107.759 279.883 107.049 282.719 107.701 286.252L108.844 292.448L144.227 285.919L143.083 279.723Z" fill="#3E3E3E"/>
<path d="M151.367 229.353C150.584 233.527 149.193 236.898 147.192 239.467C145.191 242.035 142.803 244.009 140.029 245.388L136.21 239.545C138.755 238.123 140.749 236.479 142.191 234.612C143.587 232.737 144.53 230.493 145.02 227.878C145.587 224.851 145.333 222.406 144.258 220.542C143.192 218.633 141.374 217.438 138.805 216.957C136.741 216.57 135.047 216.869 133.723 217.856C132.352 218.833 131.144 220.72 130.098 223.515L128.292 228.589C127.496 230.814 126.538 232.628 125.42 234.033C124.257 235.429 123.011 236.501 121.684 237.25C120.311 237.989 118.87 238.455 117.362 238.648C115.817 238.785 114.242 238.704 112.637 238.403C108.096 237.552 104.931 235.439 103.142 232.065C101.307 228.683 100.871 224.423 101.834 219.285C102.547 215.478 103.772 212.361 105.509 209.933C107.209 207.45 109.315 205.589 111.826 204.351L115.739 210.069C113.885 211.099 112.304 212.44 110.997 214.095C109.652 215.694 108.731 217.824 108.232 220.485C107.699 223.329 107.91 225.623 108.865 227.369C109.782 229.06 111.411 230.125 113.75 230.564C115.722 230.933 117.389 230.652 118.751 229.721C120.075 228.734 121.269 226.798 122.332 223.911L124.181 218.987C125.769 214.822 127.94 211.976 130.695 210.451C133.404 208.917 136.455 208.468 139.85 209.105C142.051 209.517 143.996 210.285 145.685 211.409C147.382 212.487 148.731 213.903 149.732 215.657C150.741 217.366 151.406 219.389 151.727 221.729C152.011 224.013 151.891 226.555 151.367 229.353Z" fill="#3E3E3E"/>
<path d="M162.868 196.768C161.542 199.548 159.881 201.729 157.885 203.31C155.868 204.83 153.569 205.801 150.988 206.225C148.428 206.606 145.586 206.439 142.463 205.725C139.339 205.01 135.967 203.789 132.344 202.061C128.764 200.353 125.714 198.51 123.194 196.531C120.631 194.533 118.692 192.419 117.378 190.189C116.083 187.917 115.413 185.529 115.367 183.025C115.298 180.459 115.927 177.786 117.254 175.006C118.58 172.226 120.252 170.076 122.269 168.557C124.265 166.976 126.543 165.994 129.103 165.613C131.683 165.189 134.556 165.345 137.722 166.08C140.845 166.794 144.197 168.005 147.777 169.714C151.399 171.442 154.471 173.295 156.991 175.273C159.512 177.251 161.419 179.376 162.714 181.648C164.028 183.878 164.72 186.276 164.788 188.843C164.834 191.347 164.194 193.989 162.868 196.768ZM156.993 193.965C158.5 190.806 158.385 188.011 156.65 185.58C154.872 183.129 151.94 180.929 147.855 178.98L140.463 175.453C136.419 173.524 132.907 172.65 129.925 172.83C126.902 172.991 124.636 174.65 123.129 177.809C121.622 180.968 121.757 183.773 123.535 186.224C125.271 188.655 128.16 190.835 132.204 192.764L139.659 196.321C143.702 198.25 147.236 199.134 150.26 198.974C153.241 198.794 155.485 197.124 156.993 193.965Z" fill="#3E3E3E"/>
<path d="M138.952 142.757L161.815 162.227C163.343 163.528 164.759 164.673 166.063 165.661C167.397 166.613 168.69 167.254 169.941 167.585C171.157 167.884 172.359 167.805 173.547 167.345C174.735 166.886 175.964 165.91 177.235 164.418C178.506 162.926 179.273 161.557 179.538 160.311C179.802 159.065 179.689 157.865 179.2 156.713C178.675 155.53 177.821 154.374 176.638 153.244C175.485 152.078 174.145 150.845 172.617 149.544L149.754 130.073L154.838 124.104L176.634 142.667C179.299 144.936 181.508 147.093 183.26 149.138C185.008 151.116 186.179 153.125 186.772 155.163C187.33 157.17 187.251 159.279 186.534 161.488C185.848 163.662 184.4 166.045 182.191 168.639C179.982 171.232 177.845 173.059 175.778 174.118C173.741 175.142 171.687 175.539 169.616 175.307C167.51 175.046 165.326 174.228 163.064 172.853C160.796 171.412 158.331 169.558 155.666 167.288L133.869 148.725L138.952 142.757Z" fill="#3E3E3E"/>
<path d="M178.555 120.119L178.039 120.48L199.583 151.284L193.961 155.216L165.958 115.176L174.219 109.399L207.522 131.979L208.038 131.618L186.494 100.814L192.116 96.8822L220.119 136.921L211.858 142.698L178.555 120.119Z" fill="#3E3E3E"/>
<path d="M207.012 90.1576L220.687 85.1581C226.56 83.0109 231.612 83.3749 235.843 86.2502C240.118 89.1095 243.626 94.2865 246.366 101.781C249.106 109.276 249.765 115.495 248.342 120.437C246.963 125.363 243.337 128.9 237.464 131.047L223.789 136.047L207.012 90.1576ZM234.792 125.167C238.167 123.933 240.257 121.902 241.061 119.074C241.893 116.186 241.54 112.638 240.002 108.431L237.214 100.804C235.676 96.5968 233.665 93.6798 231.182 92.0534C228.727 90.3672 225.812 90.141 222.438 91.3748L216.521 93.5381L228.875 127.33L234.792 125.167Z" fill="#3E3E3E"/>
<path d="M297.273 124.152L293.767 111.075L278.229 110.832L274.315 123.793L266.336 123.668L281.379 75.0372L292.087 75.2047L305.602 124.282L297.273 124.152ZM286.714 83.0316L286.154 83.0228L279.8 104.346L292.399 104.543L286.714 83.0316Z" fill="#3E3E3E"/>
<path d="M312.622 127.763L305.142 125.662L318.353 78.6222L335.942 83.5621C340.435 84.8239 343.496 87.0409 345.126 90.213C346.801 93.3977 347.02 97.1916 345.783 101.595C344.774 105.189 343.065 107.908 340.656 109.752C338.248 111.596 335.328 112.328 331.897 111.946L337.221 134.672L328.864 132.325L324.227 110.519L317.96 108.758L312.622 127.763ZM328.694 105.229C333.366 106.542 336.302 105.064 337.501 100.795L338.315 97.8975C339.513 93.6293 337.776 90.8391 333.104 89.5268L324.073 86.9906L319.663 102.693L328.694 105.229Z" fill="#3E3E3E"/>
<path d="M350.702 144.837C348.053 143.266 346.031 141.416 344.635 139.286C343.303 137.14 342.543 134.763 342.353 132.155C342.204 129.571 342.625 126.755 343.618 123.709C344.611 120.662 346.131 117.413 348.178 113.961C350.201 110.549 352.311 107.677 354.508 105.345C356.729 102.973 359.009 101.232 361.348 100.124C363.727 99.0388 366.166 98.586 368.664 98.7652C371.226 98.928 373.832 99.795 376.481 101.366C379.13 102.937 381.12 104.795 382.452 106.942C383.848 109.071 384.62 111.428 384.769 114.013C384.959 116.621 384.546 119.468 383.529 122.555C382.536 125.601 381.028 128.83 379.005 132.242C376.958 135.694 374.836 138.586 372.639 140.918C370.442 143.251 368.154 144.959 365.775 146.044C363.435 147.153 360.985 147.625 358.423 147.463C355.925 147.283 353.351 146.408 350.702 144.837ZM354.023 139.238C357.033 141.023 359.827 141.161 362.404 139.651C365.005 138.101 367.46 135.379 369.769 131.485L373.947 124.441C376.232 120.587 377.419 117.168 377.507 114.182C377.62 111.156 376.171 108.751 373.16 106.965C370.15 105.18 367.344 105.063 364.743 106.613C362.166 108.123 359.734 110.804 357.449 114.658L353.236 121.762C350.951 125.616 349.752 129.056 349.64 132.081C349.551 135.067 351.012 137.453 354.023 139.238Z" fill="#3E3E3E"/>
<path d="M406.394 125.544L384.995 146.612C383.565 148.02 382.301 149.33 381.202 150.543C380.136 151.788 379.384 153.02 378.946 154.237C378.541 155.422 378.515 156.627 378.868 157.85C379.222 159.074 380.086 160.384 381.461 161.781C382.836 163.178 384.133 164.062 385.351 164.435C386.569 164.807 387.773 164.8 388.964 164.413C390.188 163.994 391.415 163.245 392.645 162.165C393.907 161.119 395.253 159.892 396.683 158.484L418.082 137.416L423.583 143.003L403.181 163.089C400.687 165.544 398.345 167.556 396.154 169.122C394.03 170.69 391.927 171.68 389.845 172.093C387.796 172.473 385.702 172.209 383.565 171.301C381.459 170.427 379.212 168.776 376.822 166.348C374.432 163.921 372.8 161.631 371.926 159.479C371.084 157.361 370.869 155.28 371.281 153.237C371.726 151.162 372.733 149.058 374.3 146.925C375.934 144.793 377.998 142.499 380.492 140.043L400.894 119.957L406.394 125.544Z" fill="#3E3E3E"/>
<path d="M426.055 167.79L425.742 167.243L393.108 185.899L389.704 179.944L432.122 155.695L437.124 164.446L411.612 195.559L411.925 196.106L444.559 177.451L447.963 183.406L405.545 207.655L400.543 198.904L426.055 167.79Z" fill="#3E3E3E"/>
<path d="M453.104 198.349L456.866 212.415C458.481 218.456 457.668 223.456 454.428 227.414C451.199 231.418 445.73 234.45 438.021 236.511C430.312 238.573 424.059 238.675 419.263 236.818C414.479 235.005 411.28 231.078 409.664 225.037L405.903 210.972L453.104 198.349ZM415.759 222.9C416.687 226.372 418.524 228.634 421.269 229.687C424.072 230.773 427.637 230.738 431.965 229.581L439.809 227.483C444.137 226.326 447.222 224.583 449.063 222.255C450.961 219.96 451.446 217.077 450.518 213.606L448.89 207.519L414.131 216.814L415.759 222.9Z" fill="#3E3E3E"/>
</svg>
