<svg width="518" height="519" viewBox="0 0 518 519" fill="none" xmlns="http://www.w3.org/2000/svg">
<circle cx="258.851" cy="259.219" r="252.852" transform="rotate(180 258.851 259.219)" stroke="#D9D9D9" stroke-width="12"/>
<circle cx="258.853" cy="259.219" r="237.912" transform="rotate(180 258.853 259.219)" fill="#3E3E3E" stroke="#3E3E3E" stroke-width="12"/>
<path d="M198.922 37.0145L184.322 34.7579L181.827 28.9226L211.78 20.7534L207.941 28.9226L198.922 37.0145Z" fill="#D9D9D9"/>
<path d="M279.859 33.5901L251.996 23.1182L257.296 16.4735L290.363 19.5855L279.859 33.5901Z" fill="#D9D9D9"/>
<path d="M354.55 49.1516L338.601 45.6504L326.93 32.8128L326.93 26.1995L358.183 41.3053L354.55 49.1516Z" fill="#D9D9D9"/>
<path d="M395.713 81.7633L384.133 70.5474L384.892 53.8198L422.626 85.3299L408.233 86.108L395.713 81.7633Z" fill="#D9D9D9"/>
<path d="M444.023 133.568L433.519 117.618L434.571 98.5751L463.842 135.551L444.023 133.568Z" fill="#D9D9D9"/>
<path d="M474.926 200.112L469.231 181.883L475.498 163.87L493.428 207.486L474.926 200.112Z" fill="#D9D9D9"/>
<path d="M469.617 330.952L476.182 313L493.349 302.703L481.508 348.35L469.617 330.952Z" fill="#D9D9D9"/>
<path d="M481.353 264.378L482.878 247.41L495.418 234.582L495.762 276.608L481.353 264.378Z" fill="#D9D9D9"/>
<path d="M438.08 392.622L450.071 377.758L468.529 372.957L442.231 412.102L438.08 392.622Z" fill="#D9D9D9"/>
<path d="M331.965 473.288L349.775 466.395L367.387 473.288L328.485 489.127L331.965 473.288Z" fill="#D9D9D9"/>
<path d="M390.919 442.759L405.899 430.914L424.962 430.313L390.659 462.675L387.616 453.727L390.919 442.759Z" fill="#D9D9D9"/>
<path d="M266.993 487.309L281.576 487.276L293.474 496.852L257.671 500.408L258.852 491.461L266.993 487.309Z" fill="#D9D9D9"/>
<path d="M186.495 28.9231C193.886 35.1474 218.394 33.5913 219.172 21.5319" stroke="#D9D9D9" stroke-width="12"/>
<path d="M294.251 22.3097C288.416 31.9054 266.242 36.3142 253.015 19.9756M361.551 44.8726C354.548 53.5606 338.599 58.4882 321.482 26.5889M421.07 83.7742C411.345 95.8337 379.056 83.7743 380.223 53.431M463.473 135.902C445.967 140.959 424.182 130.067 433.518 96.2227M491.871 205.536C473.587 208.259 454.525 186.863 475.532 159.632M494.594 276.725C478.644 274.002 466.585 247.549 494.594 231.6" stroke="#D9D9D9" stroke-width="12"/>
<path d="M480.589 350.638C464.251 341.691 461.138 307.458 494.594 300.844M468.53 375.535C451.413 366.977 424.96 385.65 442.077 414.437M425.349 430.775C412.512 425.848 381.779 430.775 386.448 463.064" stroke="#D9D9D9" stroke-width="12"/>
<path d="M365.828 473.567C357.27 466.565 328.794 463.842 325.371 490.295M292.304 496.908C290.359 489.127 263.517 484.848 255.348 499.631" stroke="#D9D9D9" stroke-width="12"/>
<circle cx="238.317" cy="263.575" r="217.384" transform="rotate(180 238.317 263.575)" fill="#D9D9D9" stroke="#3E3E3E" stroke-width="12"/>
<circle cx="238.001" cy="261.331" r="90.0867" transform="rotate(180 238.001 261.331)" stroke="#3E3E3E" stroke-width="12"/>
<circle cx="258.853" cy="259.219" r="237.912" transform="rotate(180 258.853 259.219)" stroke="#3E3E3E" stroke-width="12"/>
<circle cx="237.611" cy="260.943" r="62.4666" transform="rotate(180 237.611 260.943)" fill="#3E3E3E" stroke="#3E3E3E" stroke-width="12"/>
<path d="M366.192 303.869C367.293 299.767 368.94 296.513 371.133 294.106C373.325 291.699 375.858 289.914 378.73 288.753L382.088 294.873C379.441 296.095 377.327 297.581 375.746 299.331C374.21 301.093 373.097 303.258 372.407 305.827C371.609 308.802 371.674 311.259 372.602 313.2C373.519 315.185 375.239 316.517 377.763 317.195C379.791 317.739 381.503 317.57 382.9 316.689C384.341 315.82 385.691 314.032 386.949 311.325L389.139 306.405C390.105 304.248 391.199 302.513 392.422 301.198C393.689 299.896 395.014 298.922 396.395 298.278C397.821 297.646 399.293 297.293 400.811 297.217C402.362 297.199 403.926 297.401 405.504 297.825C409.966 299.022 412.959 301.372 414.483 304.874C416.052 308.388 416.16 312.668 414.804 317.716C413.8 321.457 412.339 324.471 410.42 326.759C408.534 329.103 406.292 330.797 403.693 331.838L400.231 325.835C402.159 324.952 403.839 323.736 405.269 322.187C406.733 320.695 407.815 318.643 408.517 316.028C409.267 313.234 409.233 310.93 408.416 309.116C407.631 307.359 406.09 306.172 403.791 305.555C401.853 305.035 400.169 305.187 398.74 306.011C397.344 306.892 396.004 308.731 394.722 311.528L392.5 316.295C390.597 320.326 388.213 322.996 385.349 324.304C382.53 325.625 379.453 325.838 376.118 324.943C373.954 324.362 372.074 323.447 370.477 322.196C368.868 320.991 367.632 319.476 366.769 317.65C365.894 315.869 365.387 313.8 365.246 311.443C365.139 309.143 365.454 306.618 366.192 303.869Z" fill="#3E3E3E"/>
<path d="M352.291 335.292C353.822 332.62 355.642 330.57 357.75 329.143C359.876 327.779 362.242 326.983 364.847 326.755C367.429 326.567 370.25 326.946 373.311 327.893C376.372 328.84 379.643 330.311 383.125 332.306C386.567 334.278 389.471 336.345 391.835 338.507C394.241 340.692 396.015 342.946 397.159 345.268C398.279 347.631 398.768 350.063 398.626 352.563C398.502 355.127 397.674 357.746 396.143 360.418C394.611 363.09 392.783 365.108 390.657 366.472C388.548 367.899 386.203 368.707 383.621 368.895C381.016 369.123 378.163 368.752 375.062 367.782C372.001 366.835 368.749 365.376 365.308 363.404C361.825 361.408 358.902 359.33 356.537 357.168C354.172 355.006 352.43 352.744 351.309 350.381C350.166 348.059 349.657 345.615 349.781 343.051C349.923 340.551 350.759 337.965 352.291 335.292ZM357.939 338.529C356.199 341.565 356.103 344.361 357.652 346.915C359.24 349.493 361.999 351.907 365.926 354.158L373.032 358.229C376.92 360.456 380.356 361.592 383.343 361.636C386.37 361.703 388.754 360.218 390.494 357.182C392.234 354.145 392.31 351.337 390.721 348.76C389.173 346.205 386.455 343.815 382.568 341.587L375.401 337.481C371.514 335.254 368.056 334.106 365.029 334.039C362.043 333.995 359.679 335.492 357.939 338.529Z" fill="#3E3E3E"/>
<path d="M371.835 391.15L350.534 369.983C349.111 368.568 347.787 367.319 346.563 366.233C345.305 365.181 344.066 364.443 342.843 364.018C341.654 363.626 340.45 363.613 339.23 363.98C338.01 364.346 336.709 365.225 335.328 366.615C333.946 368.006 333.076 369.312 332.717 370.534C332.358 371.756 332.378 372.96 332.778 374.147C333.21 375.366 333.973 376.585 335.066 377.803C336.126 379.053 337.367 380.386 338.791 381.8L360.092 402.968L354.566 408.529L334.258 388.348C331.775 385.881 329.738 383.561 328.148 381.388C326.557 379.281 325.544 377.189 325.108 375.111C324.706 373.067 324.947 370.971 325.831 368.823C326.682 366.708 328.309 364.443 330.71 362.026C333.111 359.61 335.383 357.953 337.525 357.055C339.634 356.191 341.713 355.953 343.76 356.343C345.84 356.765 347.955 357.748 350.105 359.293C352.255 360.903 354.571 362.941 357.053 365.409L377.361 385.589L371.835 391.15Z" fill="#3E3E3E"/>
<path d="M329.896 411.096L330.439 410.778L311.428 378.35L317.346 374.88L342.057 417.031L333.361 422.129L301.971 396.958L301.427 397.277L320.439 429.705L314.521 433.174L289.809 391.024L298.505 385.926L329.896 411.096Z" fill="#3E3E3E"/>
<path d="M299.473 438.46L285.45 442.378C279.428 444.061 274.419 443.305 270.425 440.108C266.386 436.925 263.292 431.49 261.145 423.804C258.997 416.119 258.825 409.868 260.628 405.051C262.387 400.248 266.278 397.004 272.3 395.321L286.323 391.402L299.473 438.46ZM274.505 401.392C271.045 402.359 268.803 404.221 267.781 406.978C266.726 409.792 266.801 413.357 268.007 417.671L270.192 425.492C271.398 429.806 273.175 432.871 275.524 434.686C277.84 436.558 280.728 437.011 284.189 436.044L290.257 434.348L280.573 399.696L274.505 401.392Z" fill="#3E3E3E"/>
<path d="M212.472 397.426L214.961 410.733L230.434 412.171L235.333 399.55L243.279 400.289L224.539 447.618L213.875 446.627L204.177 396.655L212.472 397.426ZM219.835 439.236L220.392 439.288L228.368 418.517L215.822 417.351L219.835 439.236Z" fill="#3E3E3E"/>
<path d="M196.874 392.427L204.162 395.121L187.219 440.949L170.083 434.614C165.705 432.996 162.832 430.54 161.462 427.248C160.048 423.939 160.135 420.14 161.72 415.85C163.015 412.348 164.937 409.775 167.485 408.13C170.034 406.485 173.003 405.991 176.392 406.647L172.91 383.567L181.051 386.577L183.923 408.684L190.029 410.942L196.874 392.427ZM179.046 413.598C174.494 411.915 171.449 413.153 169.912 417.311L168.868 420.134C167.331 424.293 168.838 427.213 173.391 428.896L182.189 432.149L187.844 416.851L179.046 413.598Z" fill="#3E3E3E"/>
<path d="M160.538 372.411C163.056 374.183 164.928 376.186 166.154 378.418C167.314 380.661 167.887 383.09 167.872 385.705C167.819 388.293 167.18 391.067 165.952 394.027C164.725 396.987 162.956 400.108 160.646 403.389C158.363 406.633 156.035 409.332 153.663 411.486C151.264 413.678 148.855 415.235 146.437 416.158C143.98 417.054 141.514 417.315 139.037 416.941C136.496 416.579 133.966 415.512 131.447 413.739C128.928 411.966 127.089 409.958 125.929 407.715C124.704 405.482 124.117 403.072 124.17 400.484C124.184 397.869 124.819 395.063 126.073 392.065C127.3 389.105 129.055 386.004 131.339 382.76C133.649 379.478 135.99 376.76 138.362 374.606C140.734 372.453 143.148 370.928 145.605 370.032C148.024 369.109 150.504 368.829 153.045 369.191C155.522 369.565 158.019 370.638 160.538 372.411ZM156.791 377.734C153.929 375.719 151.154 375.364 148.467 376.669C145.753 378.011 143.093 380.533 140.487 384.235L135.773 390.932C133.194 394.595 131.745 397.912 131.423 400.882C131.075 403.89 132.332 406.401 135.194 408.415C138.056 410.43 140.844 410.766 143.558 409.424C146.246 408.119 148.879 405.635 151.457 401.972L156.212 395.217C158.79 391.554 160.254 388.218 160.602 385.21C160.923 382.241 159.653 379.749 156.791 377.734Z" fill="#3E3E3E"/>
<path d="M103.313 386.933L126.329 367.644C127.867 366.355 129.232 365.15 130.424 364.03C131.586 362.873 132.434 361.706 132.968 360.527C133.467 359.378 133.589 358.18 133.335 356.932C133.08 355.684 132.324 354.309 131.065 352.807C129.806 351.304 128.584 350.319 127.4 349.85C126.215 349.381 125.014 349.292 123.796 349.582C122.542 349.903 121.259 350.551 119.948 351.529C118.606 352.471 117.166 353.586 115.628 354.875L92.6119 374.164L87.5761 368.155L109.519 349.766C112.202 347.517 114.697 345.7 117.006 344.313C119.248 342.921 121.424 342.102 123.533 341.857C125.605 341.642 127.671 342.073 129.729 343.149C131.758 344.189 133.866 346.014 136.054 348.625C138.242 351.236 139.686 353.649 140.385 355.864C141.055 358.043 141.102 360.134 140.528 362.137C139.919 364.17 138.747 366.187 137.014 368.188C135.215 370.182 132.974 372.304 130.292 374.552L108.349 392.942L103.313 386.933Z" fill="#3E3E3E"/>
<path d="M87.4087 343.666L87.6785 344.235L121.647 328.137L124.585 334.337L80.432 355.261L76.1152 346.152L103.939 317.086L103.669 316.517L69.7001 332.615L66.7624 326.416L110.915 305.492L115.232 314.601L87.4087 343.666Z" fill="#3E3E3E"/>
<path d="M62.847 310.929L60.2049 296.611C59.0702 290.462 60.274 285.542 63.8164 281.851C67.3504 278.114 73.0411 275.522 80.8886 274.074C88.7361 272.626 94.9773 273.016 99.6121 275.246C104.238 277.429 107.119 281.595 108.254 287.745L110.896 302.063L62.847 310.929ZM102.01 289.395C101.358 285.862 99.7046 283.462 97.0508 282.196C94.3426 280.892 90.7857 280.647 86.3801 281.46L78.3949 282.933C73.9893 283.746 70.7771 285.241 68.7584 287.416C66.6854 289.555 65.9749 292.391 66.6269 295.924L67.7702 302.12L103.153 295.591L102.01 289.395Z" fill="#3E3E3E"/>
<path d="M110.293 239.025C109.511 243.199 108.119 246.57 106.118 249.139C104.118 251.708 101.73 253.682 98.9548 255.061L95.1359 249.217C97.6815 247.795 99.6752 246.151 101.117 244.284C102.513 242.41 103.456 240.165 103.946 237.55C104.513 234.523 104.259 232.078 103.184 230.215C102.118 228.305 100.3 227.11 97.7316 226.629C95.6675 226.242 93.9733 226.541 92.649 227.528C91.2788 228.505 90.0706 230.392 89.0244 233.187L87.2187 238.261C86.422 240.486 85.4646 242.3 84.3467 243.705C83.1829 245.101 81.9374 246.174 80.6101 246.922C79.237 247.662 77.7965 248.127 76.2887 248.32C74.7435 248.457 73.1683 248.376 71.5629 248.075C67.022 247.224 63.857 245.111 62.0679 241.737C60.233 238.355 59.7969 234.095 60.7598 228.958C61.4733 225.15 62.6986 222.033 64.4357 219.605C66.1355 217.122 68.241 215.261 70.7521 214.023L74.6656 219.742C72.8109 220.771 71.23 222.113 69.9229 223.767C68.5785 225.366 67.657 227.496 67.1584 230.157C66.6254 233.001 66.8362 235.295 67.791 237.041C68.7084 238.732 70.3368 239.797 72.6761 240.236C74.6484 240.605 76.3154 240.324 77.677 239.393C79.0013 238.406 80.1952 236.47 81.2585 233.583L83.1072 228.659C84.6951 224.494 86.8664 221.648 89.6212 220.123C92.3302 218.589 95.3817 218.14 98.776 218.777C100.978 219.189 102.923 219.957 104.611 221.081C106.308 222.159 107.657 223.575 108.658 225.329C109.667 227.038 110.332 229.062 110.654 231.401C110.938 233.686 110.817 236.227 110.293 239.025Z" fill="#3E3E3E"/>
<path d="M121.794 206.44C120.468 209.22 118.807 211.401 116.812 212.983C114.794 214.502 112.495 215.473 109.915 215.897C107.354 216.278 104.512 216.111 101.389 215.397C98.2657 214.682 94.8929 213.461 91.2707 211.733C87.6907 210.025 84.6403 208.182 82.1198 206.204C79.5572 204.205 77.6186 202.091 76.3041 199.861C75.0096 197.589 74.3393 195.201 74.2929 192.697C74.2246 190.131 74.8536 187.458 76.1798 184.678C77.5061 181.898 79.1779 179.749 81.1955 178.229C83.1909 176.648 85.4689 175.666 88.0293 175.285C90.6098 174.861 93.4828 175.017 96.6482 175.752C99.7716 176.466 103.123 177.678 106.703 179.386C110.326 181.114 113.397 182.967 115.918 184.945C118.438 186.923 120.346 189.048 121.64 191.32C122.955 193.55 123.646 195.949 123.714 198.515C123.761 201.019 123.121 203.661 121.794 206.44ZM115.919 203.637C117.426 200.478 117.312 197.683 115.576 195.252C113.798 192.801 110.866 190.601 106.781 188.652L99.389 185.125C95.3456 183.196 91.8332 182.322 88.8516 182.502C85.8279 182.663 83.5625 184.322 82.0554 187.481C80.5483 190.64 80.6836 193.445 82.4615 195.896C84.1972 198.327 87.0867 200.507 91.1301 202.436L98.5851 205.993C102.629 207.922 106.162 208.806 109.186 208.646C112.167 208.466 114.412 206.796 115.919 203.637Z" fill="#3E3E3E"/>
<path d="M97.8787 152.429L120.741 171.899C122.269 173.2 123.685 174.345 124.989 175.333C126.323 176.285 127.616 176.927 128.867 177.257C130.083 177.556 131.285 177.477 132.473 177.017C133.661 176.558 134.89 175.582 136.161 174.09C137.432 172.598 138.2 171.229 138.464 169.983C138.728 168.737 138.616 167.537 138.126 166.385C137.601 165.202 136.747 164.046 135.564 162.916C134.411 161.75 133.071 160.517 131.543 159.216L108.681 139.745L113.764 133.776L135.561 152.339C138.225 154.609 140.434 156.765 142.187 158.81C143.934 160.788 145.105 162.797 145.698 164.835C146.257 166.842 146.177 168.951 145.46 171.16C144.774 173.334 143.326 175.717 141.117 178.311C138.909 180.905 136.771 182.731 134.704 183.79C132.667 184.814 130.614 185.211 128.543 184.979C126.436 184.718 124.252 183.9 121.99 182.525C119.723 181.085 117.257 179.23 114.592 176.96L92.7955 158.398L97.8787 152.429Z" fill="#3E3E3E"/>
<path d="M137.482 129.791L136.965 130.152L158.509 160.956L152.888 164.888L124.885 124.848L133.145 119.071L166.448 141.651L166.964 141.29L145.421 110.486L151.042 106.554L179.045 146.594L170.785 152.371L137.482 129.791Z" fill="#3E3E3E"/>
<path d="M165.938 99.8298L179.613 94.8303C185.486 92.683 190.538 93.0471 194.769 95.9223C199.044 98.7816 202.552 103.959 205.292 111.453C208.032 118.948 208.691 125.167 207.268 130.109C205.889 135.036 202.263 138.572 196.39 140.72L182.715 145.719L165.938 99.8298ZM193.718 134.839C197.093 133.606 199.183 131.574 199.987 128.746C200.82 125.858 200.467 122.31 198.928 118.103L196.14 110.477C194.602 106.269 192.591 103.352 190.109 101.726C187.654 100.039 184.739 99.8131 181.364 101.047L175.447 103.21L187.801 137.003L193.718 134.839Z" fill="#3E3E3E"/>
<path d="M256.199 133.824L252.693 120.747L237.155 120.504L233.242 133.465L225.263 133.34L240.305 84.7093L251.014 84.8768L264.528 133.954L256.199 133.824ZM245.641 92.7037L245.081 92.695L238.726 114.018L251.325 114.215L245.641 92.7037Z" fill="#3E3E3E"/>
<path d="M271.549 137.435L264.068 135.334L277.279 88.2943L294.869 93.2343C299.361 94.496 302.423 96.713 304.052 99.8851C305.727 103.07 305.946 106.864 304.709 111.267C303.7 114.861 301.991 117.58 299.583 119.424C297.174 121.269 294.255 122 290.823 121.618L296.147 144.344L287.79 141.997L283.154 120.191L276.886 118.431L271.549 137.435ZM287.62 114.901C292.293 116.214 295.228 114.736 296.427 110.468L297.241 107.57C298.44 103.301 296.703 100.511 292.03 99.1989L282.999 96.6627L278.589 112.365L287.62 114.901Z" fill="#3E3E3E"/>
<path d="M309.628 154.509C306.979 152.938 304.957 151.088 303.561 148.958C302.23 146.812 301.469 144.435 301.279 141.827C301.13 139.243 301.552 136.427 302.544 133.381C303.537 130.335 305.057 127.085 307.104 123.633C309.127 120.222 311.237 117.349 313.434 115.017C315.655 112.645 317.935 110.904 320.274 109.796C322.654 108.711 325.092 108.258 327.59 108.437C330.152 108.6 332.758 109.467 335.407 111.038C338.056 112.609 340.047 114.468 341.378 116.614C342.774 118.743 343.546 121.1 343.696 123.685C343.885 126.293 343.472 129.14 342.455 132.227C341.463 135.273 339.955 138.502 337.931 141.914C335.884 145.366 333.762 148.258 331.565 150.591C329.369 152.923 327.08 154.631 324.701 155.716C322.362 156.825 319.911 157.298 317.349 157.135C314.851 156.955 312.278 156.08 309.628 154.509ZM312.949 148.91C315.959 150.695 318.753 150.833 321.331 149.323C323.932 147.773 326.387 145.051 328.696 141.157L332.873 134.113C335.158 130.259 336.345 126.84 336.434 123.854C336.546 120.828 335.097 118.423 332.087 116.638C329.076 114.852 326.27 114.735 323.669 116.285C321.092 117.795 318.661 120.476 316.376 124.33L312.162 131.435C309.877 135.288 308.679 138.728 308.566 141.753C308.478 144.739 309.938 147.125 312.949 148.91Z" fill="#3E3E3E"/>
<path d="M365.32 135.216L343.921 156.284C342.491 157.692 341.227 159.002 340.128 160.215C339.063 161.46 338.311 162.692 337.872 163.91C337.467 165.094 337.441 166.299 337.794 167.522C338.148 168.746 339.012 170.056 340.387 171.453C341.762 172.85 343.059 173.734 344.277 174.107C345.495 174.479 346.7 174.472 347.891 174.086C349.115 173.666 350.342 172.917 351.571 171.837C352.833 170.791 354.179 169.564 355.609 168.156L377.009 147.088L382.509 152.675L362.107 172.761C359.613 175.216 357.271 177.228 355.081 178.795C352.956 180.362 350.853 181.352 348.771 181.765C346.722 182.145 344.629 181.881 342.491 180.973C340.386 180.099 338.138 178.448 335.748 176.02C333.358 173.593 331.726 171.303 330.852 169.151C330.01 167.033 329.796 164.952 330.208 162.909C330.653 160.834 331.659 158.73 333.227 156.597C334.86 154.465 336.924 152.171 339.418 149.715L359.82 129.63L365.32 135.216Z" fill="#3E3E3E"/>
<path d="M384.981 177.463L384.668 176.916L352.034 195.571L348.63 189.616L391.048 165.367L396.051 174.118L370.538 205.232L370.851 205.778L403.485 187.123L406.89 193.078L364.472 217.327L359.469 208.576L384.981 177.463Z" fill="#3E3E3E"/>
<path d="M412.031 208.022L415.792 222.087C417.407 228.128 416.595 233.128 413.354 237.086C410.125 241.09 404.656 244.122 396.947 246.184C389.238 248.245 382.985 248.347 378.189 246.49C373.406 244.677 370.206 240.751 368.59 234.71L364.829 220.644L412.031 208.022ZM374.685 232.572C375.613 236.044 377.45 238.306 380.196 239.359C382.998 240.446 386.563 240.41 390.891 239.253L398.735 237.155C403.063 235.998 406.148 234.255 407.989 231.927C409.887 229.632 410.372 226.749 409.444 223.278L407.816 217.192L373.058 226.486L374.685 232.572Z" fill="#3E3E3E"/>
</svg>
