<svg width="1964" height="1242" viewBox="0 0 1964 1242" fill="none" xmlns="http://www.w3.org/2000/svg">
<path d="M1957.5 1233.01L6.49758 1235.49L6.00242 6H435.5V228V233.995L441.495 234L985.5 234.495V553.786V559.786H991.5H1549V661.795V667.795H1555H1957.5V1233.01Z" fill="#D9D9D9" fill-opacity="0.81" stroke="#3E3E3E" stroke-width="12"/>
<rect x="63" y="1023" width="1831" height="134" rx="12" fill="white"/>
<rect x="62" y="1017" width="1837" height="148" rx="18" stroke="#3E3E3E" stroke-width="12" stroke-linejoin="round"/>
<rect x="1587" y="1136" width="210" height="58" rx="18" stroke="#3E3E3E" stroke-width="12"/>
<rect x="1282" y="1136" width="210" height="58" rx="18" stroke="#3E3E3E" stroke-width="12"/>
<rect x="1288" y="1142" width="198" height="46" rx="12" fill="#D9D9D9"/>
<rect x="1593" y="1142" width="198" height="46" rx="12" fill="#D9D9D9"/>
<rect x="981" y="1142" width="199" height="46" rx="12" fill="#D9D9D9"/>
<rect x="976" y="1136" width="210" height="58" rx="18" stroke="#3E3E3E" stroke-width="12"/>
<ellipse cx="180.5" cy="1158" rx="42.5" ry="42" fill="#3E3E3E"/>
<path d="M191 1138C191 1154.41 177.277 1168 160 1168C142.723 1168 129 1154.41 129 1138C129 1121.59 142.723 1108 160 1108C177.277 1108 191 1121.59 191 1138Z" fill="#D9D9D9" stroke="#3E3E3E" stroke-width="12"/>
<path d="M382.6 1066.6V1127H371.4V1066.6H349.5V1057.2H404.5V1066.6H382.6ZM415.561 1127V1057.2H459.261V1066.6H426.761V1086.9H458.061V1096.3H426.761V1117.6H459.261V1127H415.561ZM511.422 1093.6L511.722 1072.6H510.922L496.922 1108.5L482.922 1072.6H482.122L482.422 1093.6V1127H472.522V1057.2H486.222L496.922 1084.9H497.622L508.422 1057.2H521.322V1127H511.422V1093.6ZM534.283 1057.2H579.483V1127H568.283V1066.6H545.483V1127H534.283V1057.2Z" fill="#3E3E3E"/>
</svg>
