<svg width="1920" height="228" viewBox="0 0 1920 228" fill="none" xmlns="http://www.w3.org/2000/svg">
<rect width="1920" height="228" fill="#555555"/>
<rect x="6" y="6" width="620.739" height="216" stroke="#3E3E3E" stroke-width="12"/>
<rect x="638.738" y="6" width="631.631" height="216" stroke="#3E3E3E" stroke-width="12"/>
<rect x="1282.37" y="6" width="631.631" height="216" stroke="#3E3E3E" stroke-width="12"/>
<rect x="161.462" y="6" width="153.364" height="216" stroke="#3E3E3E" stroke-width="12"/>
<rect x="799.151" y="6" width="153.364" height="216" stroke="#3E3E3E" stroke-width="12"/>
<rect x="1442.78" y="6" width="153.364" height="216" stroke="#3E3E3E" stroke-width="12"/>
<rect x="315.933" y="6" width="155.344" height="216" stroke="#3E3E3E" stroke-width="12"/>
<rect x="953.622" y="6" width="155.344" height="216" stroke="#3E3E3E" stroke-width="12"/>
<rect x="1597.25" y="6" width="155.344" height="216" stroke="#3E3E3E" stroke-width="12"/>
<rect x="118.823" y="30.2327" width="38.6178" height="20.4104" fill="#D9D9D9"/>
<rect x="754.533" y="30.2327" width="38.6178" height="20.4104" fill="#D9D9D9"/>
<rect x="1069.42" y="64.2498" width="38.6178" height="20.4104" fill="#D9D9D9"/>
<rect x="1391.23" y="30.2327" width="38.6178" height="20.4104" fill="#D9D9D9"/>
<rect x="1703.15" y="30.2327" width="38.6178" height="20.4104" fill="#D9D9D9"/>
<rect x="229.727" y="30.2327" width="38.6178" height="20.4104" fill="#D9D9D9"/>
<rect x="869.396" y="30.2327" width="38.6178" height="20.4104" fill="#D9D9D9"/>
<rect x="1188.24" y="64.2498" width="38.6178" height="20.4104" fill="#D9D9D9"/>
<rect x="1513.03" y="30.2327" width="38.6178" height="20.4104" fill="#D9D9D9"/>
<rect x="1803.16" y="30.2327" width="38.6178" height="20.4104" fill="#D9D9D9"/>
<rect x="157.441" y="95.7159" width="90.1083" height="20.4104" fill="#D9D9D9"/>
<rect x="247.55" y="116.126" width="144.569" height="20.4104" fill="#D9D9D9"/>
<rect x="657.493" y="116.126" width="144.569" height="20.4104" fill="#D9D9D9"/>
<rect x="862.465" y="116.126" width="168.334" height="20.4104" fill="#D9D9D9"/>
<rect x="778.298" y="95.7159" width="102.981" height="20.4104" fill="#D9D9D9"/>
<rect x="645.61" y="150.143" width="102.981" height="20.4104" fill="#D9D9D9"/>
<rect x="12.8721" y="150.143" width="79.2161" height="20.4104" fill="#D9D9D9"/>
<rect x="1021.89" y="183.31" width="96.0495" height="20.4104" fill="#D9D9D9"/>
<rect x="1289.24" y="149.293" width="96.0495" height="20.4104" fill="#D9D9D9"/>
<rect x="1344.69" y="116.126" width="96.0495" height="20.4104" fill="#D9D9D9"/>
<rect x="1428.86" y="95.7159" width="82.1867" height="20.4104" fill="#D9D9D9"/>
<rect x="1504.12" y="116.126" width="157.442" height="20.4104" fill="#D9D9D9"/>
<rect x="1777.41" y="182.459" width="129.716" height="20.4104" fill="#D9D9D9"/>
<rect x="392.119" y="183.31" width="108.922" height="20.4104" fill="#D9D9D9"/>
<rect x="79.2158" y="116.126" width="78.2259" height="20.4104" fill="#D9D9D9"/>
</svg>
