<svg width="1920" height="925" viewBox="0 0 1920 925" fill="none" xmlns="http://www.w3.org/2000/svg">
<rect x="6" y="6" width="1908" height="913" fill="#3E3E3E" stroke="white" stroke-width="12"/>
<rect x="320" y="336" width="1534" height="246" rx="6" stroke="white" stroke-width="12"/>
<rect width="1521.59" height="233.866" transform="matrix(-1 0 0 1 1848.03 341.284)" fill="#555555"/>
<rect x="-6" y="6" width="742.519" height="221.866" transform="matrix(-1 0 0 1 1836.03 341.284)" stroke="#3E3E3E" stroke-width="12"/>
<rect x="-6" y="6" width="755.508" height="221.866" transform="matrix(-1 0 0 1 1081.51 341.284)" stroke="#3E3E3E" stroke-width="12"/>
<rect x="-6" y="6" width="185.19" height="221.866" transform="matrix(-1 0 0 1 1650.64 341.284)" stroke="#3E3E3E" stroke-width="12"/>
<rect x="-6" y="6" width="185.19" height="221.866" transform="matrix(-1 0 0 1 890.221 341.284)" stroke="#3E3E3E" stroke-width="12"/>
<rect x="-6" y="6" width="187.552" height="221.866" transform="matrix(-1 0 0 1 1466.44 341.284)" stroke="#3E3E3E" stroke-width="12"/>
<rect x="-6" y="6" width="187.552" height="221.866" transform="matrix(-1 0 0 1 706.02 341.284)" stroke="#3E3E3E" stroke-width="12"/>
<rect x="320" y="67" width="1534" height="245" rx="6" stroke="white" stroke-width="12"/>
<rect width="1521.59" height="233.866" transform="matrix(-1 0 0 1 1848.03 71.7896)" fill="#555555"/>
<rect x="320" y="610" width="1534" height="246" rx="6" stroke="white" stroke-width="12"/>
<rect width="1522.08" height="233.866" transform="matrix(-1 0 0 1 1848.52 615.345)" fill="#555555"/>
<rect x="-6" y="6" width="742.764" height="221.866" transform="matrix(-1 0 0 1 1836.52 615.345)" stroke="#3E3E3E" stroke-width="12"/>
<rect x="-6" y="6" width="755.757" height="221.866" transform="matrix(-1 0 0 1 1081.76 615.345)" stroke="#3E3E3E" stroke-width="12"/>
<rect x="-6" y="6" width="185.254" height="221.866" transform="matrix(-1 0 0 1 1651.08 615.345)" stroke="#3E3E3E" stroke-width="12"/>
<rect x="-6" y="6" width="185.254" height="221.866" transform="matrix(-1 0 0 1 890.407 615.345)" stroke="#3E3E3E" stroke-width="12"/>
<rect x="-6" y="6" width="187.617" height="221.866" transform="matrix(-1 0 0 1 1466.82 615.345)" stroke="#3E3E3E" stroke-width="12"/>
<rect x="-6" y="6" width="187.617" height="221.866" transform="matrix(-1 0 0 1 706.146 615.345)" stroke="#3E3E3E" stroke-width="12"/>
<line x1="344" y1="353" x2="344" y2="565" stroke="#3E3E3E" stroke-width="12"/>
<line x1="344" y1="626" x2="344" y2="838" stroke="#3E3E3E" stroke-width="12"/>
<line x1="1831" y1="627" x2="1831" y2="839" stroke="#3E3E3E" stroke-width="12"/>
<line x1="1830" y1="353" x2="1830" y2="565" stroke="#3E3E3E" stroke-width="12"/>
<rect x="90" y="360" width="160" height="198" rx="9" fill="#555555" stroke="#D9D9D9" stroke-width="12"/>
<mask id="path-25-inside-1_155_408" fill="white">
<rect x="107" y="377" width="126" height="164" rx="6"/>
</mask>
<rect x="107" y="377" width="126" height="164" rx="6" fill="#D9D9D9" stroke="white" stroke-width="24" mask="url(#path-25-inside-1_155_408)"/>
<rect x="90" y="87" width="160" height="198" rx="9" fill="#555555" stroke="#D9D9D9" stroke-width="12"/>
<mask id="path-27-inside-2_155_408" fill="white">
<rect x="107" y="104" width="126" height="164" rx="6"/>
</mask>
<rect x="107" y="104" width="126" height="164" rx="6" fill="#D9D9D9" stroke="white" stroke-width="24" mask="url(#path-27-inside-2_155_408)"/>
<rect x="90" y="633" width="160" height="198" rx="9" fill="#555555" stroke="#D9D9D9" stroke-width="12"/>
<mask id="path-29-inside-3_155_408" fill="white">
<rect x="107" y="650" width="126" height="164" rx="6"/>
</mask>
<rect x="107" y="650" width="126" height="164" rx="6" fill="#D9D9D9" stroke="white" stroke-width="24" mask="url(#path-29-inside-3_155_408)"/>
<rect x="-6" y="6" width="742" height="222" transform="matrix(-1 0 0 1 1835 72)" stroke="#3E3E3E" stroke-width="12"/>
<rect x="-6" y="6" width="755.508" height="221.866" transform="matrix(-1 0 0 1 1081.51 71.7896)" stroke="#3E3E3E" stroke-width="12"/>
<rect x="-6" y="6" width="185.19" height="221.866" transform="matrix(-1 0 0 1 1650.64 71.7896)" stroke="#3E3E3E" stroke-width="12"/>
<rect x="-6" y="6" width="185.19" height="221.866" transform="matrix(-1 0 0 1 890.221 71.7896)" stroke="#3E3E3E" stroke-width="12"/>
<rect x="-6" y="6" width="187.552" height="221.866" transform="matrix(-1 0 0 1 1466.44 71.7896)" stroke="#3E3E3E" stroke-width="12"/>
<rect x="-6" y="6" width="187.552" height="221.866" transform="matrix(-1 0 0 1 706.02 71.7896)" stroke="#3E3E3E" stroke-width="12"/>
<line x1="344" y1="83" x2="344" y2="295" stroke="#3E3E3E" stroke-width="12"/>
<line x1="1829" y1="82" x2="1829" y2="294" stroke="#3E3E3E" stroke-width="12"/>
</svg>
