<svg width="1920" height="228" viewBox="0 0 1920 228" fill="none" xmlns="http://www.w3.org/2000/svg">
<rect width="1920" height="228" fill="#3E3E3E"/>
<path d="M1133.5 117.378C1132.83 126.111 1129.7 133.111 1124.1 138.378C1118.57 143.578 1111.37 146.178 1102.5 146.178C1092.43 146.178 1084.37 142.778 1078.3 135.978C1072.23 129.178 1069.2 120.145 1069.2 108.878C1069.2 102.078 1070.5 95.9114 1073.1 90.378C1075.7 84.778 1079.6 80.278 1084.8 76.878C1090 73.4114 1096.1 71.678 1103.1 71.678C1110.63 71.678 1117.2 73.778 1122.8 77.978C1128.4 82.1114 1131.77 88.1114 1132.9 95.978H1120.5C1119.63 91.7114 1117.63 88.378 1114.5 85.978C1111.37 83.5114 1107.5 82.278 1102.9 82.278C1098.17 82.278 1094.13 83.6114 1090.8 86.278C1087.53 88.9447 1085.2 92.2447 1083.8 96.178C1082.47 100.045 1081.8 104.278 1081.8 108.878C1081.8 112.345 1082.2 115.611 1083 118.678C1083.8 121.745 1085 124.578 1086.6 127.178C1088.2 129.711 1090.37 131.745 1093.1 133.278C1095.9 134.811 1099.13 135.578 1102.8 135.578C1113.4 135.578 1119.47 129.511 1121 117.378H1133.5ZM1144.57 73.278H1177.07C1184.53 73.278 1190.23 74.9114 1194.17 78.178C1198.17 81.378 1200.17 85.7114 1200.17 91.178C1200.17 94.578 1199.23 97.6447 1197.37 100.378C1195.5 103.045 1193.03 104.978 1189.97 106.178C1194.1 107.178 1197.37 109.178 1199.77 112.178C1202.17 115.178 1203.37 118.945 1203.37 123.478C1203.37 129.745 1201.27 134.811 1197.07 138.678C1192.93 142.545 1187.53 144.478 1180.87 144.478H1144.57V73.278ZM1156.77 83.378V102.978H1173.77C1178.57 102.978 1182.1 102.245 1184.37 100.778C1186.63 99.2447 1187.77 96.7114 1187.77 93.178C1187.77 89.178 1186.57 86.5447 1184.17 85.278C1181.83 84.0114 1178.5 83.378 1174.17 83.378H1156.77ZM1156.77 111.978V134.278H1175.47C1180.27 134.278 1184.03 133.478 1186.77 131.878C1189.5 130.278 1190.87 127.378 1190.87 123.178C1190.87 120.845 1190.43 118.911 1189.57 117.378C1188.77 115.778 1187.57 114.611 1185.97 113.878C1184.43 113.145 1182.83 112.645 1181.17 112.378C1179.5 112.111 1177.53 111.978 1175.27 111.978H1156.77ZM1266.28 73.278V83.778H1227.38V102.678H1263.48V112.778H1227.38V133.778H1266.88V144.478H1214.98V73.278H1266.28ZM1341.67 162.178H1329.57V144.478H1283.17V162.178H1271.07V133.678H1277.97C1280.7 128.878 1282.93 121.878 1284.67 112.678C1286.4 103.478 1287.27 94.0114 1287.27 84.278V73.278H1333.67V133.678H1341.67V162.178ZM1321.17 133.678V84.078H1299.47V88.378C1299.47 96.978 1298.67 105.545 1297.07 114.078C1295.53 122.545 1293.63 129.078 1291.37 133.678H1321.17ZM1401.43 73.278V83.778H1362.53V102.678H1398.63V112.778H1362.53V133.778H1402.03V144.478H1350.13V73.278H1401.43ZM1470.62 73.278V144.478H1458.12V112.478H1425.52V144.478H1413.02V73.278H1425.52V101.578H1458.12V73.278H1470.62ZM1485.19 144.478V73.278H1497.69V127.878L1528.29 73.278H1542.79V144.478H1530.29V89.878L1499.69 144.478H1485.19ZM1608.76 73.278V83.778H1569.86V102.678H1605.96V112.778H1569.86V133.778H1609.36V144.478H1557.46V73.278H1608.76Z" fill="#3E3E3E"/>
<rect x="76" y="36" width="1775" height="136" rx="12" fill="#D9D9D9"/>
<rect x="70" y="30" width="1786" height="139" rx="18" stroke="white" stroke-width="12" stroke-linejoin="round"/>
<rect x="1553" y="138" width="203" height="58" rx="18" stroke="white" stroke-width="12"/>
<rect x="1256" y="138" width="203" height="58" rx="18" stroke="white" stroke-width="12"/>
<rect x="1262" y="144" width="191" height="46" rx="12" fill="#3E3E3E"/>
<rect x="1559" y="144" width="191" height="46" rx="12" fill="#3E3E3E"/>
<rect x="965" y="144" width="191" height="46" rx="12" fill="#3E3E3E"/>
<rect x="959" y="138" width="203" height="58" rx="18" stroke="white" stroke-width="12"/>
<circle cx="186" cy="171" r="42" fill="#D9D9D9"/>
<circle cx="186" cy="171" r="42" stroke="#3E3E3E"/>
<circle cx="166" cy="151" r="30" fill="white" stroke="#3E3E3E" stroke-width="12"/>
<path d="M387.6 77.6V138H376.4V77.6H354.5V68.2H409.5V77.6H387.6ZM420.561 138V68.2H464.261V77.6H431.761V97.9H463.061V107.3H431.761V128.6H464.261V138H420.561ZM516.422 104.6L516.722 83.6H515.922L501.922 119.5L487.922 83.6H487.122L487.422 104.6V138H477.522V68.2H491.222L501.922 95.9H502.622L513.422 68.2H526.322V138H516.422V104.6ZM539.283 68.2H584.483V138H573.283V77.6H550.483V138H539.283V68.2Z" fill="#3E3E3E"/>
</svg>
