<svg width="1920" height="228" viewBox="0 0 1920 228" fill="none" xmlns="http://www.w3.org/2000/svg">
<rect width="1920" height="228" fill="#3E3E3E"/>
<path d="M1133.5 117.378C1132.83 126.111 1129.7 133.111 1124.1 138.378C1118.57 143.578 1111.37 146.178 1102.5 146.178C1092.43 146.178 1084.37 142.778 1078.3 135.978C1072.23 129.178 1069.2 120.145 1069.2 108.878C1069.2 102.078 1070.5 95.9114 1073.1 90.378C1075.7 84.778 1079.6 80.278 1084.8 76.878C1090 73.4114 1096.1 71.678 1103.1 71.678C1110.63 71.678 1117.2 73.778 1122.8 77.978C1128.4 82.1114 1131.77 88.1114 1132.9 95.978H1120.5C1119.63 91.7114 1117.63 88.378 1114.5 85.978C1111.37 83.5114 1107.5 82.278 1102.9 82.278C1098.17 82.278 1094.13 83.6114 1090.8 86.278C1087.53 88.9447 1085.2 92.2447 1083.8 96.178C1082.47 100.045 1081.8 104.278 1081.8 108.878C1081.8 112.345 1082.2 115.611 1083 118.678C1083.8 121.745 1085 124.578 1086.6 127.178C1088.2 129.711 1090.37 131.745 1093.1 133.278C1095.9 134.811 1099.13 135.578 1102.8 135.578C1113.4 135.578 1119.47 129.511 1121 117.378H1133.5ZM1144.57 73.278H1177.07C1184.53 73.278 1190.23 74.9114 1194.17 78.178C1198.17 81.378 1200.17 85.7114 1200.17 91.178C1200.17 94.578 1199.23 97.6447 1197.37 100.378C1195.5 103.045 1193.03 104.978 1189.97 106.178C1194.1 107.178 1197.37 109.178 1199.77 112.178C1202.17 115.178 1203.37 118.945 1203.37 123.478C1203.37 129.745 1201.27 134.811 1197.07 138.678C1192.93 142.545 1187.53 144.478 1180.87 144.478H1144.57V73.278ZM1156.77 83.378V102.978H1173.77C1178.57 102.978 1182.1 102.245 1184.37 100.778C1186.63 99.2447 1187.77 96.7114 1187.77 93.178C1187.77 89.178 1186.57 86.5447 1184.17 85.278C1181.83 84.0114 1178.5 83.378 1174.17 83.378H1156.77ZM1156.77 111.978V134.278H1175.47C1180.27 134.278 1184.03 133.478 1186.77 131.878C1189.5 130.278 1190.87 127.378 1190.87 123.178C1190.87 120.845 1190.43 118.911 1189.57 117.378C1188.77 115.778 1187.57 114.611 1185.97 113.878C1184.43 113.145 1182.83 112.645 1181.17 112.378C1179.5 112.111 1177.53 111.978 1175.27 111.978H1156.77ZM1266.28 73.278V83.778H1227.38V102.678H1263.48V112.778H1227.38V133.778H1266.88V144.478H1214.98V73.278H1266.28ZM1341.67 162.178H1329.57V144.478H1283.17V162.178H1271.07V133.678H1277.97C1280.7 128.878 1282.93 121.878 1284.67 112.678C1286.4 103.478 1287.27 94.0114 1287.27 84.278V73.278H1333.67V133.678H1341.67V162.178ZM1321.17 133.678V84.078H1299.47V88.378C1299.47 96.978 1298.67 105.545 1297.07 114.078C1295.53 122.545 1293.63 129.078 1291.37 133.678H1321.17ZM1401.43 73.278V83.778H1362.53V102.678H1398.63V112.778H1362.53V133.778H1402.03V144.478H1350.13V73.278H1401.43ZM1470.62 73.278V144.478H1458.12V112.478H1425.52V144.478H1413.02V73.278H1425.52V101.578H1458.12V73.278H1470.62ZM1485.19 144.478V73.278H1497.69V127.878L1528.29 73.278H1542.79V144.478H1530.29V89.878L1499.69 144.478H1485.19ZM1608.76 73.278V83.778H1569.86V102.678H1605.96V112.778H1569.86V133.778H1609.36V144.478H1557.46V73.278H1608.76Z" fill="#3E3E3E"/>
<rect x="76" y="36" width="1775" height="136" rx="12" fill="#D9D9D9"/>
<rect x="70" y="30" width="1786" height="139" rx="18" stroke="white" stroke-width="12" stroke-linejoin="round"/>
<rect x="1553" y="138" width="203" height="58" rx="18" stroke="white" stroke-width="12"/>
<rect x="1256" y="138" width="203" height="58" rx="18" stroke="white" stroke-width="12"/>
<rect x="1262" y="144" width="191" height="46" rx="12" fill="#3E3E3E"/>
<rect x="1559" y="144" width="191" height="46" rx="12" fill="#3E3E3E"/>
<rect x="965" y="144" width="191" height="46" rx="12" fill="#3E3E3E"/>
<rect x="959" y="138" width="203" height="58" rx="18" stroke="white" stroke-width="12"/>
<circle cx="186" cy="171" r="42" fill="#D9D9D9"/>
<circle cx="186" cy="171" r="42" stroke="#3E3E3E"/>
<circle cx="166" cy="151" r="30" fill="white" stroke="#3E3E3E" stroke-width="12"/>
<path d="M364.1 139.2C358.367 139.2 353.533 138.133 349.6 136C345.667 133.867 342.433 131.167 339.9 127.9L347.1 120.9C351.833 126.833 357.567 129.8 364.3 129.8C368.3 129.8 371.433 128.833 373.7 126.9C376.033 124.967 377.2 122.3 377.2 118.9V117.2C377.2 114.067 376.2 111.633 374.2 109.9C372.267 108.1 369.2 107.2 365 107.2H355.3V97.8H364.6C368.467 97.8 371.3 96.9333 373.1 95.2C374.967 93.4667 375.9 90.9333 375.9 87.6V86C375.9 83 374.933 80.6667 373 79C371.067 77.2667 368.1 76.4 364.1 76.4C360.567 76.4 357.6 77.0667 355.2 78.4C352.867 79.7333 350.833 81.5 349.1 83.7L341.9 77.6C344.567 74.2 347.7 71.6 351.3 69.8C354.9 67.9333 359.4 67 364.8 67C372.2 67 377.833 68.7 381.7 72.1C385.633 75.4333 387.6 79.9667 387.6 85.7C387.6 88.1667 387.233 90.3333 386.5 92.2C385.833 94 384.867 95.5667 383.6 96.9C382.4 98.1667 380.933 99.2 379.2 100C377.533 100.8 375.733 101.367 373.8 101.7V102.2C375.933 102.4 377.9 102.867 379.7 103.6C381.567 104.333 383.167 105.367 384.5 106.7C385.9 107.967 387 109.567 387.8 111.5C388.6 113.367 389 115.6 389 118.2C389 121.333 388.4 124.2 387.2 126.8C386.067 129.333 384.433 131.533 382.3 133.4C380.167 135.2 377.533 136.633 374.4 137.7C371.333 138.7 367.9 139.2 364.1 139.2ZM442.161 138L436.861 119.4H414.661L409.361 138H397.961L418.361 68.2H433.661L454.061 138H442.161ZM426.161 79.5H425.361L416.761 110.1H434.761L426.161 79.5ZM468.022 68.2H508.422V77.6H479.222V138H468.022V68.2ZM524.283 138V68.2H550.383C557.049 68.2 562.116 70.0667 565.583 73.8C569.116 77.5333 570.883 82.6667 570.883 89.2C570.883 95.7333 569.116 100.867 565.583 104.6C562.116 108.333 557.049 110.2 550.383 110.2H535.483V138H524.283ZM535.483 100.9H548.683C555.616 100.9 559.083 97.7 559.083 91.3V87C559.083 80.6667 555.616 77.5 548.683 77.5H535.483V100.9ZM588.444 128.6H599.544L602.344 121.5L579.044 68.2H591.044L603.344 97.9L607.444 109.8H607.644L611.444 97.7L621.944 68.2H633.044L610.844 127.2C610.044 129.333 609.177 131.1 608.244 132.5C607.377 133.9 606.377 135 605.244 135.8C604.11 136.6 602.81 137.167 601.344 137.5C599.877 137.833 598.144 138 596.144 138H588.444V128.6ZM663.905 139.2C658.171 139.2 653.338 138.133 649.405 136C645.471 133.867 642.238 131.167 639.705 127.9L646.905 120.9C651.638 126.833 657.371 129.8 664.105 129.8C668.105 129.8 671.238 128.833 673.505 126.9C675.838 124.967 677.005 122.3 677.005 118.9V117.2C677.005 114.067 676.005 111.633 674.005 109.9C672.071 108.1 669.005 107.2 664.805 107.2H655.105V97.8H664.405C668.271 97.8 671.105 96.9333 672.905 95.2C674.771 93.4667 675.705 90.9333 675.705 87.6V86C675.705 83 674.738 80.6667 672.805 79C670.871 77.2667 667.905 76.4 663.905 76.4C660.371 76.4 657.405 77.0667 655.005 78.4C652.671 79.7333 650.638 81.5 648.905 83.7L641.705 77.6C644.371 74.2 647.505 71.6 651.105 69.8C654.705 67.9333 659.205 67 664.605 67C672.005 67 677.638 68.7 681.505 72.1C685.438 75.4333 687.405 79.9667 687.405 85.7C687.405 88.1667 687.038 90.3333 686.305 92.2C685.638 94 684.671 95.5667 683.405 96.9C682.205 98.1667 680.738 99.2 679.005 100C677.338 100.8 675.538 101.367 673.605 101.7V102.2C675.738 102.4 677.705 102.867 679.505 103.6C681.371 104.333 682.971 105.367 684.305 106.7C685.705 107.967 686.805 109.567 687.605 111.5C688.405 113.367 688.805 115.6 688.805 118.2C688.805 121.333 688.205 124.2 687.005 126.8C685.871 129.333 684.238 131.533 682.105 133.4C679.971 135.2 677.338 136.633 674.205 137.7C671.138 138.7 667.705 139.2 663.905 139.2ZM702.966 68.2H714.166V98H724.966L738.266 68.2H749.766L737.966 94.6C736.832 97.1333 735.699 98.9333 734.566 100C733.499 101.067 732.232 101.733 730.766 102V102.6C732.432 102.933 733.766 103.633 734.766 104.7C735.832 105.767 736.932 107.667 738.066 110.4L745.866 128.6H751.966V138H745.166C742.699 138 740.632 137.367 738.966 136.1C737.299 134.833 735.799 132.7 734.466 129.7L724.866 107.4H714.166V138H702.966V68.2ZM801.927 138L796.627 119.4H774.427L769.127 138H757.727L778.127 68.2H793.427L813.827 138H801.927ZM785.927 79.5H785.127L776.527 110.1H794.527L785.927 79.5Z" fill="#3E3E3E"/>
</svg>
